<?xml version="1.0" encoding="UTF-8"?>
<svg version="1.1" xmlns="http://www.w3.org/2000/svg" width="1351" height="701">
<path d="M0 0 C-1.58921525 5.36095277 -3.18972938 10.70843973 -5 16 C-9.73181425 15.41900509 -14.06993945 14.44996097 -18.625 13.0625 C-39.24413871 7.27457903 -61.05175171 7.23529562 -80.19140625 17.75390625 C-103.26819693 32.34268197 -113.71012473 57.02770383 -122.81295776 81.67233276 C-124.52788348 86.30932897 -126.27556733 90.93393446 -128.0234375 95.55859375 C-128.36614182 96.46623978 -128.70884613 97.3738858 -129.06193542 98.30903625 C-131.88052003 105.74619707 -134.83076029 113.11519324 -137.9375 120.4375 C-138.36740234 121.45303955 -138.79730469 122.4685791 -139.24023438 123.51489258 C-141.27471825 128.24334346 -143.41156033 132.88643446 -145.7421875 137.4765625 C-146.17539307 138.33967041 -146.60859863 139.20277832 -147.05493164 140.09204102 C-147.85718166 141.66803946 -148.68237879 143.23270708 -149.53686523 144.78100586 C-153.33786268 152.18902832 -150.50498258 158.54676118 -148.11157227 166.08178711 C-147.35089299 168.39841415 -146.5855772 170.71352227 -145.81640625 173.02734375 C-145.18564805 174.94298892 -144.55489088 176.85863442 -143.92418194 178.77429581 C-143.26012181 180.788518 -142.593957 182.80203234 -141.92712402 184.81533813 C-140.55686658 188.95256199 -139.19232717 193.09165573 -137.82910156 197.23120117 C-137.37497363 198.61006301 -136.92084157 199.98892349 -136.46670532 201.36778259 C-136.13126646 202.3862946 -136.13126646 202.3862946 -135.78905106 203.42538261 C-135.11511677 205.47099112 -134.44061606 207.51641205 -133.76596069 209.56178284 C-130.2246156 220.30041749 -126.72065974 231.05081292 -123.25 241.8125 C-122.90825241 242.87136917 -122.90825241 242.87136917 -122.55960083 243.95162964 C-121.37126009 247.63383919 -120.18451538 251.31655813 -119 255 C-117.20990712 252.31486068 -116.2819606 250.27549808 -115.23852539 247.26806641 C-114.72910652 245.81042374 -114.72910652 245.81042374 -114.20939636 244.32333374 C-113.65908501 242.72855698 -113.65908501 242.72855698 -113.09765625 241.1015625 C-112.70769974 239.98319 -112.31774323 238.8648175 -111.91596985 237.71255493 C-110.84997639 234.65444939 -109.78745889 231.59516014 -108.72600555 228.53547668 C-106.93497065 223.37842804 -105.13250196 218.22535501 -103.33098602 213.07196045 C-102.86617991 211.74233474 -102.40150509 210.41266312 -101.93695831 209.08294678 C-96.82243411 194.44576523 -91.61282564 179.8435198 -86.375 165.25 C-85.9643631 164.10444641 -85.5537262 162.95889282 -85.13064575 161.77862549 C-83.97116787 158.54467186 -82.81019477 155.3112604 -81.6484375 152.078125 C-81.30661942 151.1254776 -80.96480133 150.1728302 -80.61262512 149.1913147 C-80.13801094 147.87313248 -80.13801094 147.87313248 -79.65380859 146.52832031 C-79.24465714 145.39055145 -79.24465714 145.39055145 -78.82723999 144.22979736 C-77.92718408 141.80372715 -76.96102799 139.40256998 -76 137 C-69.4 137 -62.8 137 -56 137 C-47.91401314 160.54034526 -39.94062304 184.11494377 -32.09161377 207.7354126 C-26.84144802 223.53079064 -21.53704949 239.30237967 -16 255 C-11.47720081 244.8519357 -7.92683035 234.39123339 -4.32696533 223.89031982 C-2.46919178 218.47324378 -0.59741642 213.06100718 1.2734375 207.6484375 C1.85171799 205.97432297 1.85171799 205.97432297 2.44168091 204.26638794 C6.33470957 193.00790834 10.28288972 181.76914879 14.25598145 170.53869629 C14.99773066 168.44161825 15.73854577 166.34420957 16.47839355 164.24645996 C17.51178926 161.31707817 18.54834734 158.38883584 19.5859375 155.4609375 C20.03956161 154.17348129 20.03956161 154.17348129 20.50234985 152.86001587 C20.78822968 152.05591278 21.0741095 151.25180969 21.36865234 150.42333984 C21.73475113 149.38927505 21.73475113 149.38927505 22.10824585 148.33432007 C23.31125296 145.18524178 24.67208173 142.09847596 26 139 C38.54 139 51.08 139 64 139 C58.67521104 154.35886709 53.13439328 169.62733691 47.5 184.875 C46.8178838 186.72370275 46.1357694 188.57240617 45.45379353 190.4211607 C37.62061009 211.65466203 29.74831565 232.87368074 21.87082577 254.09077644 C14.21354716 274.71483558 6.58894626 295.35070081 -1 316 C-10.24 316 -19.48 316 -29 316 C-34.93786798 299.30977648 -40.80749825 282.60040453 -46.5546875 265.84375 C-46.91917936 264.78136108 -46.91917936 264.78136108 -47.2910347 263.69750977 C-49.76781992 256.47792557 -52.24189164 249.25742599 -54.70884895 242.03447723 C-55.65255297 239.27294962 -56.59828601 236.51211946 -57.54440689 233.75141907 C-58.1978875 231.84220213 -58.84860805 229.93204118 -59.49923706 228.02185059 C-61.81561004 221.26589336 -64.26165813 214.59689301 -67 208 C-67.23786728 208.6598439 -67.47573456 209.31968781 -67.72080994 209.99952698 C-70.79266148 218.52065446 -73.86492151 227.04163462 -76.9375 235.5625 C-77.18424721 236.24677944 -77.43099442 236.93105888 -77.68521881 237.63607407 C-87.10678137 263.76343034 -96.54663272 289.88413258 -106 316 C-115.24 316 -124.48 316 -134 316 C-135.81395552 310.85467574 -137.62666433 305.70892227 -139.4375 300.5625 C-139.72255402 299.75246521 -140.00760803 298.94243042 -140.30130005 298.10784912 C-143.9450891 287.74864094 -147.56702709 277.38215411 -151.15625 267.00390625 C-151.68214218 265.48340668 -151.68214218 265.48340668 -152.21865845 263.93218994 C-152.93283125 261.86713013 -153.6469934 259.80206664 -154.36114502 257.73699951 C-162.07614711 235.43108448 -169.9599813 213.19076092 -178 191 C-178.60473145 191.74620605 -179.20946289 192.49241211 -179.83251953 193.26123047 C-180.63286621 194.24494629 -181.43321289 195.22866211 -182.2578125 196.2421875 C-183.44334717 197.70180908 -183.44334717 197.70180908 -184.65283203 199.19091797 C-191.56563604 207.46413649 -199.87729756 215.64539213 -209.37182617 220.84741211 C-216.35931022 224.72396944 -216.35931022 224.72396944 -220.09545898 231.5769043 C-220.55397611 235.76721686 -220.35357718 239.92560267 -220.125 244.125 C-220.03954273 246.96062771 -219.98897656 249.79626363 -219.9453125 252.6328125 C-219.93004517 253.32834732 -219.91477783 254.02388214 -219.89904785 254.74049377 C-219.71356883 272.34960033 -226.29078168 288.81274344 -238.25 301.6875 C-245.85878635 308.88958062 -255.18899282 313.56614749 -265 317 C-266.35351562 317.48146484 -266.35351562 317.48146484 -267.734375 317.97265625 C-289.06264351 324.16938291 -313.10024876 320.70783402 -332.359375 310.2109375 C-337.56954982 307.1784318 -341.86408635 303.36480963 -346 299 C-346.59296875 298.37996094 -347.1859375 297.75992187 -347.796875 297.12109375 C-351.18740898 293.36968611 -353.53914706 289.40859186 -356 285 C-356.50748779 285.24121582 -357.01497559 285.48243164 -357.5378418 285.73095703 C-367.66670149 290.54310928 -377.80368605 295.33202862 -388 300 C-387.566875 300.98742187 -387.13375 301.97484375 -386.6875 302.9921875 C-386.12480955 304.28637554 -385.56231995 305.58065093 -385 306.875 C-384.71382813 307.52597656 -384.42765625 308.17695312 -384.1328125 308.84765625 C-382 313.7734375 -382 313.7734375 -382 316 C-387.35676631 316.12353289 -392.71270526 316.21430573 -398.07055664 316.2746582 C-399.89329467 316.29981397 -401.71593172 316.33394285 -403.53833008 316.37719727 C-406.15731693 316.43780546 -408.77497153 316.46619761 -411.39453125 316.48828125 C-412.21025101 316.51408768 -413.02597076 316.5398941 -413.8664093 316.56648254 C-416.17114258 316.56762695 -416.17114258 316.56762695 -420 316 C-422.05660597 313.57233274 -423 312.1942286 -423 309 C-424.15113281 309.30679687 -425.30226563 309.61359375 -426.48828125 309.9296875 C-456.42049668 317.37825724 -487.19757805 312.24302111 -516 303 C-516.19335938 303.60328125 -516.38671875 304.2065625 -516.5859375 304.828125 C-516.84632813 305.62734375 -517.10671875 306.4265625 -517.375 307.25 C-517.63023437 308.03890625 -517.88546875 308.8278125 -518.1484375 309.640625 C-519 312 -519 312 -521 316 C-533.87 316 -546.74 316 -560 316 C-557.69 310.39 -555.38 304.78 -553 299 C-583.01773896 301.79234781 -607.00072869 311.88924699 -628.80078125 333.0390625 C-630.81526431 334.83528008 -632.53264468 335.94982131 -635 337 C-636.27400377 335.75323147 -637.54406654 334.5024352 -638.8125 333.25 C-639.52019531 332.55390625 -640.22789062 331.8578125 -640.95703125 331.140625 C-642.85002038 329.15714882 -644.56829873 327.34018946 -646 325 C-645 322 -645 322 -639 317 C-656.16 316.67 -673.32 316.34 -691 316 C-691 257.59 -691 199.18 -691 139 C-613.42100923 139 -613.42100923 139 -598.44921875 153.29296875 C-588.4061773 165.12264291 -585.78611772 178.72444095 -586.77685547 193.79980469 C-587.70858044 202.98657212 -591.56506791 210.4543594 -598 217 C-599.95277324 218.57674688 -601.80246434 219.76723609 -604 221 C-603.17757812 221.268125 -602.35515625 221.53625 -601.5078125 221.8125 C-589.90617076 225.88513174 -580.60582936 231.73578663 -575 243 C-569.39501915 255.52362908 -569.27276054 269.92484396 -573 283 C-571.90042969 282.86722656 -570.80085938 282.73445313 -569.66796875 282.59765625 C-568.17448881 282.41919009 -566.68099867 282.24080932 -565.1875 282.0625 C-564.46884766 281.97548828 -563.75019531 281.88847656 -563.00976562 281.79882812 C-558.74459719 281.29151734 -554.4786116 280.85036509 -550.20043945 280.46655273 C-548.73390678 280.33457741 -548.73390678 280.33457741 -547.23774719 280.19993591 C-546.49929062 280.13395706 -545.76083405 280.06797821 -545 280 C-533.62803983 253.85869381 -522.2768205 227.70938649 -511.0625 201.5 C-504.64873255 186.51050748 -498.22116651 171.52731685 -491.75 156.5625 C-491.40671661 155.76811523 -491.06343323 154.97373047 -490.70974731 154.15527344 C-489.76032716 151.95867897 -488.81005376 149.76245624 -487.859375 147.56640625 C-487.44228523 146.60155052 -487.44228523 146.60155052 -487.01676941 145.61720276 C-486.05081123 143.38865478 -485.08646674 141.17293348 -484 139 C-474.76 139 -465.52 139 -456 139 C-452.75495551 145.49008897 -449.70972331 151.83460852 -446.98828125 158.52734375 C-446.62280182 159.41677673 -446.25732239 160.30620972 -445.88076782 161.22259521 C-445.09663162 163.13173722 -444.31414214 165.04155628 -443.53317261 166.95199585 C-441.42344091 172.11194839 -439.3006341 177.26652458 -437.1796875 182.421875 C-436.74621506 183.4764238 -436.31274261 184.5309726 -435.86613464 185.61747742 C-431.59900931 195.99198342 -427.27525758 206.34236918 -422.9375 216.6875 C-422.20560475 218.43471504 -421.47375253 220.18194812 -420.74194336 221.92919922 C-417.22505232 230.32311405 -413.70060827 238.71381091 -410.16755676 247.10093689 C-408.47573408 251.11856028 -406.78654683 255.13728893 -405.09768677 259.15615845 C-404.28708257 261.08297465 -403.47514658 263.00923115 -402.66183472 264.93490601 C-401.5396208 267.59200357 -400.42169344 270.25086604 -399.3046875 272.91015625 C-398.96815659 273.70376556 -398.63162567 274.49737488 -398.28489685 275.31503296 C-396 280.77228174 -396 280.77228174 -396 283 C-392.18467386 281.2770224 -388.37328937 279.54548594 -384.5625 277.8125 C-383.49322266 277.32974609 -382.42394531 276.84699219 -381.32226562 276.34960938 C-375.63466637 273.75801216 -370.10976326 271.06292868 -364.72241211 267.8894043 C-363 267 -363 267 -361 267 C-361.33 266.01 -361.66 265.02 -362 264 C-362.14627628 262.26060347 -362.24873097 260.51734078 -362.32421875 258.7734375 C-362.38416016 257.74089844 -362.44410156 256.70835937 -362.50585938 255.64453125 C-362.62559921 253.48921425 -362.72758358 251.33282694 -362.81054688 249.17578125 C-363.30469125 241.4325869 -365.36898657 237.106485 -370 231 C-375.95274751 219.07819609 -376.52507881 206.55899352 -372.98828125 193.76953125 C-371.36264331 189.21388974 -369.14727674 184.85934448 -365.44694519 181.65519714 C-363.6497883 179.59938399 -363.60915191 178.59487388 -363.56762695 175.89575195 C-363.53793571 174.6648156 -363.53793571 174.6648156 -363.50764465 173.40901184 C-363.50125473 172.52767075 -363.49486481 171.64632965 -363.48828125 170.73828125 C-363.47033005 169.83248825 -363.45237885 168.92669525 -363.43388367 167.99345398 C-363.37969341 165.09985004 -363.34585714 162.20641185 -363.3125 159.3125 C-363.27933461 157.35088835 -363.24484568 155.38929859 -363.20898438 153.42773438 C-363.1214691 148.61846458 -363.06147585 143.80995555 -363 139 C-351.12 139 -339.24 139 -327 139 C-327 149.56 -327 160.12 -327 171 C-324.69 171.33 -322.38 171.66 -320 172 C-310.43304223 176.04034416 -303.21617332 183.57346731 -298.7890625 192.8828125 C-294.05095566 205.59595066 -294.74524685 218.59210022 -300 231 C-305.46356589 242.46356589 -305.46356589 242.46356589 -308 245 C-302.00910697 245.21735666 -296.90199678 244.55886253 -291.125 243 C-289.903573 242.67539795 -289.903573 242.67539795 -288.6574707 242.34423828 C-278.49385227 239.49345533 -268.9799473 235.07618973 -259.61328125 230.2578125 C-257 229 -257 229 -255 229 C-255 199.3 -255 169.6 -255 139 C-243.45 139 -231.9 139 -220 139 C-219.67 161.11 -219.34 183.22 -219 206 C-214.05 201.545 -214.05 201.545 -209 197 C-207.700625 195.9275 -206.40125 194.855 -205.0625 193.75 C-201.43988832 190.59958211 -198.34885873 187.09047974 -195.25 183.4375 C-194.78988525 182.89512695 -194.32977051 182.35275391 -193.85571289 181.79394531 C-192.54275071 180.21619006 -191.26798191 178.61402279 -190 177 C-189.21109375 176.02160156 -188.4221875 175.04320312 -187.609375 174.03515625 C-185.46750691 169.99575939 -185.85149728 168.41972447 -187 164 C-188.25843849 160.02617436 -189.64185649 156.10592434 -191.0625 152.1875 C-191.80608044 150.11945662 -192.54710197 148.05049078 -193.28515625 145.98046875 C-193.61394775 145.07192139 -193.94273926 144.16337402 -194.28149414 143.22729492 C-195 141 -195 141 -195 139 C-185.43 138.67 -175.86 138.34 -166 138 C-156.42866933 117.49000571 -148.11542233 96.70348408 -140.15722656 75.51855469 C-136.58149852 66.03493338 -133.00137985 56.59091836 -128.6953125 47.41015625 C-128.39135056 46.7616571 -128.08738861 46.11315796 -127.7742157 45.44500732 C-117.23431674 23.64233587 -99.78804978 4.88802311 -77 -4 C-53.15838248 -11.93457691 -22.87261851 -11.43630925 0 0 Z M-655 168 C-655 182.52 -655 197.04 -655 212 C-639.22446279 212.86420091 -639.22446279 212.86420091 -626.13671875 206.38671875 C-620.8813984 200.73003742 -619.57510914 195.05265402 -619.74609375 187.4609375 C-620.33133169 181.78863128 -622.92262846 176.97007229 -627 173 C-636.65263743 167.71063964 -643.23299289 168 -655 168 Z M-327 189 C-327 205.5 -327 222 -327 239 C-318.96285678 230.96285678 -313.28443378 221.59751691 -312.5625 210 C-312.86772659 203.95651355 -314.91498047 198.31165209 -318.9765625 193.80859375 C-322.49490541 190.28444284 -322.49490541 190.28444284 -327 189 Z M-471 190 C-473.47318316 196.17015025 -475.94494308 202.34086931 -478.41577148 208.51196289 C-479.25432054 210.60584032 -480.09318063 212.69959322 -480.93237305 214.79321289 C-486.54868059 228.79617164 -486.54868059 228.79617164 -492.08203125 242.83203125 C-492.65207886 244.29153198 -492.65207886 244.29153198 -493.23364258 245.78051758 C-494.10879279 247.92373569 -494.10879279 247.92373569 -494 250 C-478.16 250 -462.32 250 -446 250 C-449.05282172 242.02621192 -452.11343918 234.05581631 -455.1918335 226.09191895 C-456.0346543 223.91029821 -456.87595824 221.72809566 -457.71728516 219.54589844 C-459.18141536 215.75132281 -460.65379382 211.96002711 -462.1312561 208.17062378 C-462.71083949 206.68079294 -463.28796558 205.19000382 -463.86264038 203.69827271 C-464.67271597 201.5970139 -465.49150707 199.49935659 -466.3125 197.40234375 C-466.78300781 196.19054443 -467.25351562 194.97874512 -467.73828125 193.73022461 C-468.7079822 190.88587796 -468.7079822 190.88587796 -471 190 Z M-655 240 C-655 255.51 -655 271.02 -655 287 C-650.936875 287.0825 -646.87375 287.165 -642.6875 287.25 C-641.43026123 287.28641602 -640.17302246 287.32283203 -638.87768555 287.36035156 C-628.90572165 287.45723502 -619.75723454 285.67563521 -612.3671875 278.55078125 C-607.6126888 273.1578213 -606.88344507 266.97386981 -607 260 C-607.83814141 253.14047424 -611.14421373 249.26613059 -616.16015625 244.7265625 C-624.49554428 239.65883003 -633.11244029 239.60733664 -642.625 239.8125 C-646.70875 239.874375 -650.7925 239.93625 -655 240 Z M-261.62597656 250.59155273 C-274.92016233 256.72869793 -288.87533077 262.16570949 -303.7109375 262.09765625 C-304.95488281 262.09443359 -306.19882812 262.09121094 -307.48046875 262.08789062 C-308.76566406 262.07951172 -310.05085938 262.07113281 -311.375 262.0625 C-312.68339844 262.05798828 -313.99179687 262.05347656 -315.33984375 262.04882812 C-318.55994281 262.03707594 -321.7799477 262.02064543 -325 262 C-323.6233642 270.87718763 -319.44162133 276.47426793 -312.5703125 282.234375 C-304.01315299 288.11254537 -294.12910838 289.142293 -284 288 C-273.92299507 285.70332026 -266.17520377 280.51509994 -260.25 272.078125 C-255.68386472 264.4869251 -254.84995978 256.70233256 -255 248 C-257.34435487 248 -259.52424237 249.61454176 -261.62597656 250.59155273 Z M-506 279 C-507.485 282.96 -507.485 282.96 -509 287 C-482.92748643 294.7895115 -457.0442294 299.10855284 -430 293 C-430.80925342 290.85294019 -431.62249113 288.7073817 -432.4375 286.5625 C-432.88996094 285.36753906 -433.34242188 284.17257812 -433.80859375 282.94140625 C-434.7144826 280.15554277 -434.7144826 280.15554277 -436 279 C-438.17805719 278.90570658 -440.3592128 278.88257462 -442.53930664 278.88647461 C-443.22220261 278.88632858 -443.90509857 278.88618256 -444.60868835 278.8860321 C-446.87587614 278.88673124 -449.14298274 278.8945236 -451.41015625 278.90234375 C-452.97814387 278.90420793 -454.54613207 278.90563183 -456.11412048 278.90663147 C-460.24876503 278.91045666 -464.38337466 278.92028694 -468.51800537 278.93133545 C-472.73400398 278.94154956 -476.95000822 278.94612909 -481.16601562 278.95117188 C-489.44402647 278.96190921 -497.7220089 278.97898564 -506 279 Z " fill="#D7102C" transform="translate(779,276)"/>
<path d="M0 0 C-1.58921525 5.36095277 -3.18972938 10.70843973 -5 16 C-9.73181425 15.41900509 -14.06993945 14.44996097 -18.625 13.0625 C-39.24413871 7.27457903 -61.05175171 7.23529562 -80.19140625 17.75390625 C-103.26819693 32.34268197 -113.71012473 57.02770383 -122.81295776 81.67233276 C-124.52788348 86.30932897 -126.27556733 90.93393446 -128.0234375 95.55859375 C-128.36614182 96.46623978 -128.70884613 97.3738858 -129.06193542 98.30903625 C-131.88052003 105.74619707 -134.83076029 113.11519324 -137.9375 120.4375 C-138.36740234 121.45303955 -138.79730469 122.4685791 -139.24023438 123.51489258 C-141.27471825 128.24334346 -143.41156033 132.88643446 -145.7421875 137.4765625 C-146.17539307 138.33967041 -146.60859863 139.20277832 -147.05493164 140.09204102 C-147.85718166 141.66803946 -148.68237879 143.23270708 -149.53686523 144.78100586 C-153.33786268 152.18902832 -150.50498258 158.54676118 -148.11157227 166.08178711 C-147.35089299 168.39841415 -146.5855772 170.71352227 -145.81640625 173.02734375 C-145.18564805 174.94298892 -144.55489088 176.85863442 -143.92418194 178.77429581 C-143.26012181 180.788518 -142.593957 182.80203234 -141.92712402 184.81533813 C-140.55686658 188.95256199 -139.19232717 193.09165573 -137.82910156 197.23120117 C-137.37497363 198.61006301 -136.92084157 199.98892349 -136.46670532 201.36778259 C-136.24307941 202.0467906 -136.01945351 202.72579861 -135.78905106 203.42538261 C-135.11511677 205.47099112 -134.44061606 207.51641205 -133.76596069 209.56178284 C-130.2246156 220.30041749 -126.72065974 231.05081292 -123.25 241.8125 C-122.90825241 242.87136917 -122.90825241 242.87136917 -122.55960083 243.95162964 C-121.37126009 247.63383919 -120.18451538 251.31655813 -119 255 C-117.20990712 252.31486068 -116.2819606 250.27549808 -115.23852539 247.26806641 C-114.89891281 246.29630463 -114.55930023 245.32454285 -114.20939636 244.32333374 C-113.84252213 243.26014923 -113.47564789 242.19696472 -113.09765625 241.1015625 C-112.70769974 239.98319 -112.31774323 238.8648175 -111.91596985 237.71255493 C-110.84997639 234.65444939 -109.78745889 231.59516014 -108.72600555 228.53547668 C-106.93497065 223.37842804 -105.13250196 218.22535501 -103.33098602 213.07196045 C-102.86617991 211.74233474 -102.40150509 210.41266312 -101.93695831 209.08294678 C-96.82243411 194.44576523 -91.61282564 179.8435198 -86.375 165.25 C-85.9643631 164.10444641 -85.5537262 162.95889282 -85.13064575 161.77862549 C-83.97116787 158.54467186 -82.81019477 155.3112604 -81.6484375 152.078125 C-81.30661942 151.1254776 -80.96480133 150.1728302 -80.61262512 149.1913147 C-80.13801094 147.87313248 -80.13801094 147.87313248 -79.65380859 146.52832031 C-79.38104095 145.76980774 -79.10827332 145.01129517 -78.82723999 144.22979736 C-77.92718408 141.80372715 -76.96102799 139.40256998 -76 137 C-69.4 137 -62.8 137 -56 137 C-47.91401314 160.54034526 -39.94062304 184.11494377 -32.09161377 207.7354126 C-26.84144802 223.53079064 -21.53704949 239.30237967 -16 255 C-11.47720081 244.8519357 -7.92683035 234.39123339 -4.32696533 223.89031982 C-2.46919178 218.47324378 -0.59741642 213.06100718 1.2734375 207.6484375 C1.85171799 205.97432297 1.85171799 205.97432297 2.44168091 204.26638794 C6.33470957 193.00790834 10.28288972 181.76914879 14.25598145 170.53869629 C14.99773066 168.44161825 15.73854577 166.34420957 16.47839355 164.24645996 C17.51178926 161.31707817 18.54834734 158.38883584 19.5859375 155.4609375 C20.03956161 154.17348129 20.03956161 154.17348129 20.50234985 152.86001587 C20.78822968 152.05591278 21.0741095 151.25180969 21.36865234 150.42333984 C21.6127182 149.73396332 21.85678406 149.04458679 22.10824585 148.33432007 C23.31125296 145.18524178 24.67208173 142.09847596 26 139 C38.54 139 51.08 139 64 139 C58.67521104 154.35886709 53.13439328 169.62733691 47.5 184.875 C46.8178838 186.72370275 46.1357694 188.57240617 45.45379353 190.4211607 C37.62061009 211.65466203 29.74831565 232.87368074 21.87082577 254.09077644 C14.21354716 274.71483558 6.58894626 295.35070081 -1 316 C-10.24 316 -19.48 316 -29 316 C-34.93786798 299.30977648 -40.80749825 282.60040453 -46.5546875 265.84375 C-46.79768208 265.13549072 -47.04067665 264.42723145 -47.2910347 263.69750977 C-49.76781992 256.47792557 -52.24189164 249.25742599 -54.70884895 242.03447723 C-55.65255297 239.27294962 -56.59828601 236.51211946 -57.54440689 233.75141907 C-58.1978875 231.84220213 -58.84860805 229.93204118 -59.49923706 228.02185059 C-61.81561004 221.26589336 -64.26165813 214.59689301 -67 208 C-67.23786728 208.6598439 -67.47573456 209.31968781 -67.72080994 209.99952698 C-70.79266148 218.52065446 -73.86492151 227.04163462 -76.9375 235.5625 C-77.18424721 236.24677944 -77.43099442 236.93105888 -77.68521881 237.63607407 C-87.10678137 263.76343034 -96.54663272 289.88413258 -106 316 C-115.24 316 -124.48 316 -134 316 C-135.81395552 310.85467574 -137.62666433 305.70892227 -139.4375 300.5625 C-139.72255402 299.75246521 -140.00760803 298.94243042 -140.30130005 298.10784912 C-143.9450891 287.74864094 -147.56702709 277.38215411 -151.15625 267.00390625 C-151.68214218 265.48340668 -151.68214218 265.48340668 -152.21865845 263.93218994 C-152.93283125 261.86713013 -153.6469934 259.80206664 -154.36114502 257.73699951 C-162.07614711 235.43108448 -169.9599813 213.19076092 -178 191 C-178.60473145 191.74620605 -179.20946289 192.49241211 -179.83251953 193.26123047 C-180.63286621 194.24494629 -181.43321289 195.22866211 -182.2578125 196.2421875 C-183.04816895 197.21526855 -183.83852539 198.18834961 -184.65283203 199.19091797 C-191.56563604 207.46413649 -199.87729756 215.64539213 -209.37182617 220.84741211 C-216.35931022 224.72396944 -216.35931022 224.72396944 -220.09545898 231.5769043 C-220.55397611 235.76721686 -220.35357718 239.92560267 -220.125 244.125 C-220.03954273 246.96062771 -219.98897656 249.79626363 -219.9453125 252.6328125 C-219.93004517 253.32834732 -219.91477783 254.02388214 -219.89904785 254.74049377 C-219.71356883 272.34960033 -226.29078168 288.81274344 -238.25 301.6875 C-245.85878635 308.88958062 -255.18899282 313.56614749 -265 317 C-266.35351562 317.48146484 -266.35351562 317.48146484 -267.734375 317.97265625 C-289.06264351 324.16938291 -313.10024876 320.70783402 -332.359375 310.2109375 C-337.57080507 307.1777012 -341.85950882 303.3617388 -346 299 C-346.59296875 298.3915625 -347.1859375 297.783125 -347.796875 297.15625 C-350.47250595 294.24219649 -352.43625886 291.34737269 -354.1640625 287.78515625 C-354.51162598 287.07367432 -354.85918945 286.36219238 -355.21728516 285.62915039 C-355.47558105 285.09153076 -355.73387695 284.55391113 -356 284 C-355.51756836 283.68361572 -355.03513672 283.36723145 -354.53808594 283.04125977 C-344.79750722 276.63901776 -335.20947024 270.15088278 -326 263 C-324 266 -324 266 -323.02734375 267.98046875 C-318.88716851 276.3646946 -313.13267654 282.14833291 -304.3125 285.5 C-293.55181514 288.56665828 -283.01279592 288.09367273 -273 283 C-265.71931344 278.83418108 -260.69431474 273.02337847 -258 265.03515625 C-255.55098286 255.6982784 -254.85160642 246.69183203 -254.88647461 237.0859375 C-254.88632858 236.0216301 -254.88618256 234.95732269 -254.8860321 233.86076355 C-254.88672518 230.36548783 -254.89448913 226.87026633 -254.90234375 223.375 C-254.90421008 220.94262725 -254.90563297 218.51025412 -254.90663147 216.07788086 C-254.9104397 209.69271802 -254.92025548 203.30757812 -254.93133545 196.92242432 C-254.94158603 190.40010895 -254.9461369 183.87778986 -254.95117188 177.35546875 C-254.96187932 164.57030083 -254.97946236 151.78515592 -255 139 C-243.45 139 -231.9 139 -220 139 C-219.67 161.11 -219.34 183.22 -219 206 C-215.7 203.03 -212.4 200.06 -209 197 C-207.700625 195.9275 -206.40125 194.855 -205.0625 193.75 C-201.43988832 190.59958211 -198.34885873 187.09047974 -195.25 183.4375 C-194.78988525 182.89512695 -194.32977051 182.35275391 -193.85571289 181.79394531 C-192.54275071 180.21619006 -191.26798191 178.61402279 -190 177 C-189.21109375 176.02160156 -188.4221875 175.04320312 -187.609375 174.03515625 C-185.46750691 169.99575939 -185.85149728 168.41972447 -187 164 C-188.25843849 160.02617436 -189.64185649 156.10592434 -191.0625 152.1875 C-191.80608044 150.11945662 -192.54710197 148.05049078 -193.28515625 145.98046875 C-193.61394775 145.07192139 -193.94273926 144.16337402 -194.28149414 143.22729492 C-195 141 -195 141 -195 139 C-185.43 138.67 -175.86 138.34 -166 138 C-156.42866933 117.49000571 -148.11542233 96.70348408 -140.15722656 75.51855469 C-136.58149852 66.03493338 -133.00137985 56.59091836 -128.6953125 47.41015625 C-128.39135056 46.7616571 -128.08738861 46.11315796 -127.7742157 45.44500732 C-117.23431674 23.64233587 -99.78804978 4.88802311 -77 -4 C-53.15838248 -11.93457691 -22.87261851 -11.43630925 0 0 Z " fill="#000000" transform="translate(779,276)"/>
<path d="M0 0 C6.6 0 13.2 0 20 0 C22.84510789 6.94630745 25.40130733 13.92426661 27.75878906 21.04931641 C28.28635803 22.63158524 28.28635803 22.63158524 28.82458496 24.24581909 C29.97444869 27.69679211 31.12006815 31.14915768 32.265625 34.6015625 C33.06677419 37.00874428 33.86819018 39.41583729 34.66986084 41.82284546 C36.55607957 47.48833074 38.4396261 53.15469738 40.32184958 58.82151067 C42.46702614 65.27949124 44.61566073 71.73631953 46.76456881 78.19305921 C51.18019457 91.460772 55.59153345 104.72990685 60 118 C61.8957724 115.1563414 62.85387511 112.87562982 63.9609375 109.66967773 C64.34375885 108.56828461 64.7265802 107.46689148 65.1210022 106.3321228 C65.53482147 105.12810822 65.94864075 103.92409363 66.375 102.68359375 C66.81624069 101.41046136 67.25793174 100.13748497 67.70004272 98.86465454 C68.64485788 96.14261789 69.5873568 93.41979548 70.52801514 90.69631958 C72.99987146 83.54112523 75.48781106 76.39151942 77.9765625 69.2421875 C78.22786549 68.51993296 78.47916847 67.79767841 78.7380867 67.05353737 C83.85427144 52.35492615 89.08654498 37.70005193 94.375 23.0625 C94.76671387 21.97798553 95.15842773 20.89347107 95.56201172 19.77609253 C97.70367958 13.84914464 99.85101298 7.92430618 102 2 C114.54 2 127.08 2 140 2 C136.62512803 13.24957323 136.62512803 13.24957323 135.14086914 17.23535156 C134.80442886 18.1435968 134.46798859 19.05184204 134.12135315 19.98760986 C133.76290817 20.94560486 133.4044632 21.90359985 133.03515625 22.890625 C132.65016464 23.92741394 132.26517303 24.96420288 131.86851501 26.03240967 C130.60270673 29.43934553 129.33257554 32.8446529 128.0625 36.25 C127.16438239 38.66524147 126.26660198 41.08060835 125.36914062 43.49609375 C123.74021226 47.8795966 122.11047669 52.26279574 120.47936058 56.64548492 C116.38277061 67.65318127 112.30478278 78.6677491 108.22793579 89.68276978 C106.58905048 94.11016731 104.94911234 98.53717455 103.30918884 102.96418762 C99.80047007 112.4361423 96.29335055 121.90868733 92.78826904 131.38198853 C90.93165372 136.39990032 89.07446337 141.41759925 87.21728516 146.43530273 C86.3290262 148.83560525 85.4410018 151.23599458 84.55322266 153.63647461 C83.32513129 156.95708605 82.0962445 160.27740212 80.8671875 163.59765625 C80.50358124 164.58145767 80.13997498 165.56525909 79.76535034 166.57887268 C79.26057663 167.94180702 79.26057663 167.94180702 78.74560547 169.33227539 C78.45507294 170.11760147 78.16454041 170.90292755 77.86520386 171.71205139 C76.94190761 174.15361975 75.96944577 176.57638557 75 179 C65.76 179 56.52 179 47 179 C44.98712891 173.14314453 44.98712891 173.14314453 42.93359375 167.16796875 C37.51958085 151.41950061 32.0960833 135.67430865 26.66609192 119.93134308 C26.02705351 118.07844204 25.38821711 116.22547134 24.74938965 114.37249756 C22.59553612 108.1262335 20.43743982 101.88147664 18.27102661 95.63955688 C17.63385282 93.80183724 16.99816258 91.96360253 16.36398315 90.12484741 C15.49280885 87.60003029 14.61631869 85.07712457 13.73828125 82.5546875 C13.48714569 81.82319992 13.23601013 81.09171234 12.9772644 80.33805847 C11.89421615 77.2442063 10.83046061 74.74569091 9 72 C6.78998218 78.06188707 4.58195569 84.12449744 2.375 90.1875 C2.03129364 91.13163757 1.68758728 92.07577515 1.33346558 93.04852295 C-3.44146648 106.16902754 -8.19371754 119.29757871 -12.92578125 132.43359375 C-13.17543892 133.1265196 -13.42509659 133.81944546 -13.68231964 134.53336906 C-16.18060803 141.46745801 -18.67779816 148.40193901 -21.17155552 155.33765888 C-21.8827568 157.31514967 -22.59448983 159.29244812 -23.30644226 161.26966858 C-24.18572007 163.71179901 -25.0640279 166.15427895 -25.9412384 168.59715271 C-26.3305101 169.67771439 -26.7197818 170.75827606 -27.12084961 171.87158203 C-27.46119736 172.81808624 -27.8015451 173.76459045 -28.15220642 174.73977661 C-29 177 -29 177 -30 179 C-39.24 179 -48.48 179 -58 179 C-59.19753906 175.52855469 -60.39507813 172.05710937 -61.62890625 168.48046875 C-69.85757712 144.63468719 -78.09996824 120.79405827 -86.42285156 96.98095703 C-89.74652487 87.46957617 -93.05882276 77.95438016 -96.35546875 68.43359375 C-96.72406509 67.36923599 -97.09266144 66.30487823 -97.47242737 65.20826721 C-98.94961282 60.94255754 -100.42679338 56.67684629 -101.90335083 52.41091919 C-106.61997383 38.78840611 -111.37737466 25.1830703 -116.30981445 11.63696289 C-116.67292725 10.6339917 -117.03604004 9.63102051 -117.41015625 8.59765625 C-117.72090088 7.74695557 -118.03164551 6.89625488 -118.35180664 6.01977539 C-119 4 -119 4 -119 2 C-106.46 2 -93.92 2 -81 2 C-74.68177772 20.90669248 -68.38761883 39.8198673 -62.17578125 58.76171875 C-61.60572314 60.49912169 -61.03564459 62.23651793 -60.46554565 63.97390747 C-58.14995586 71.03184958 -55.83506597 78.0900178 -53.5246582 85.1496582 C-52.0804668 89.56213136 -50.63338356 93.97364669 -49.18434715 98.38453102 C-48.63979842 100.04403626 -48.09635113 101.70390335 -47.55404091 103.36414146 C-46.80871065 105.64560933 -46.05971675 107.92584215 -45.30981445 110.20581055 C-45.08914307 110.884366 -44.86847168 111.56292145 -44.64111328 112.26203918 C-43.76994579 115.38149654 -43.76994579 115.38149654 -42 118 C-41.57404541 116.79730469 -41.14809082 115.59460938 -40.70922852 114.35546875 C-40.42310699 113.54759918 -40.13698547 112.73972961 -39.8421936 111.90737915 C-39.18648543 110.05596172 -38.53078505 108.20454153 -37.87509155 106.3531189 C-36.00292565 101.06689212 -34.13061331 95.78071727 -32.25805664 90.49462891 C-28.67158475 80.36984037 -25.08580121 70.24481283 -21.50544739 60.11785889 C-20.00866101 55.88439154 -18.51117215 51.65117282 -17.01364136 47.41796875 C-16.30880536 45.42492768 -15.60430456 43.43176803 -14.900177 41.43847656 C-10.0105634 27.59716319 -5.03779164 13.78808034 0 0 Z " fill="#000000" transform="translate(1123,413)"/>
<path d="M0 0 C77.57899077 0 77.57899077 0 92.55078125 14.29296875 C102.5938227 26.12264291 105.21388228 39.72444095 104.22314453 54.79980469 C103.29141956 63.98657212 99.43493209 71.4543594 93 78 C91.04722676 79.57674688 89.19753566 80.76723609 87 82 C87.82242188 82.268125 88.64484375 82.53625 89.4921875 82.8125 C101.09382924 86.88513174 110.39417064 92.73578663 116 104 C119.34564861 111.47543362 120.36310432 118.64720278 120.4375 126.75 C120.44765137 127.52972168 120.45780273 128.30944336 120.46826172 129.11279297 C120.38550509 134.62485076 119.82926128 140.16138314 117 145 C114.0234375 146.5078125 114.0234375 146.5078125 110.375 147.125 C109.01611983 147.40532726 107.65936912 147.69613309 106.3046875 147.99609375 C105.59795898 148.14933105 104.89123047 148.30256836 104.16308594 148.46044922 C86.43556763 152.88232455 67.88182471 164.11817529 55 177 C36.85 177 18.7 177 0 177 C0 118.59 0 60.18 0 0 Z M36 29 C36 43.52 36 58.04 36 73 C51.77553721 73.86420091 51.77553721 73.86420091 64.86328125 67.38671875 C70.1186016 61.73003742 71.42489086 56.05265402 71.25390625 48.4609375 C70.66866831 42.78863128 68.07737154 37.97007229 64 34 C54.34736257 28.71063964 47.76700711 29 36 29 Z M36 101 C36 116.51 36 132.02 36 148 C40.063125 148.0825 44.12625 148.165 48.3125 148.25 C49.56973877 148.28641602 50.82697754 148.32283203 52.12231445 148.36035156 C62.09427835 148.45723502 71.24276546 146.67563521 78.6328125 139.55078125 C83.3873112 134.1578213 84.11655493 127.97386981 84 121 C83.16185859 114.14047424 79.85578627 110.26613059 74.83984375 105.7265625 C66.50445572 100.65883003 57.88755971 100.60733664 48.375 100.8125 C44.29125 100.874375 40.2075 100.93625 36 101 Z " fill="#000000" transform="translate(88,415)"/>
<path d="M0 0 C1.16781006 0.00523682 2.33562012 0.01047363 3.53881836 0.01586914 C4.79887695 0.0190918 6.05893555 0.02231445 7.35717773 0.02563477 C8.6976732 0.03399136 10.03816799 0.04245632 11.37866211 0.05102539 C12.72306153 0.05603879 14.06746271 0.06060197 15.41186523 0.06469727 C18.71334151 0.07653051 22.01473014 0.09301568 25.31616211 0.11352539 C33.21536494 18.39403999 41.02127449 36.70947538 48.62866211 55.11352539 C49.15568726 56.38850388 49.15568726 56.38850388 49.69335938 57.6892395 C50.047771 58.54669769 50.40218262 59.40415588 50.76733398 60.28759766 C51.48930876 62.03427365 52.21131412 63.780937 52.93334961 65.52758789 C53.29277649 66.39711594 53.65220337 67.26664398 54.02252197 68.16252136 C58.07105436 77.94978909 62.16054746 87.71983707 66.25366211 97.48852539 C66.62242462 98.36891479 66.99118713 99.2493042 67.37112427 100.15637207 C71.24549584 109.4060942 75.12335986 118.65434948 79.00294495 127.90188599 C80.63293174 131.78784646 82.2619839 135.67419838 83.89089966 139.56060791 C85.02771934 142.27184212 86.16592814 144.98249013 87.30419922 147.69311523 C88.01138476 149.38009639 88.71850085 151.06710666 89.42553711 152.75415039 C89.73111038 153.48068817 90.03668365 154.20722595 90.35151672 154.95578003 C93.42957994 162.30843867 96.35435222 169.70900068 99.31616211 177.11352539 C86.44616211 177.11352539 73.57616211 177.11352539 60.31616211 177.11352539 C57.84116211 171.37977539 55.36616211 165.64602539 52.81616211 159.73852539 C51.64150391 157.02496826 51.64150391 157.02496826 50.44311523 154.2565918 C49.82759355 152.8262141 49.2123406 151.39572071 48.59741211 149.96508789 C48.27353516 149.21960693 47.9496582 148.47412598 47.6159668 147.70605469 C45.31616211 142.34166899 45.31616211 142.34166899 45.31616211 140.11352539 C22.21616211 140.44352539 -0.88383789 140.77352539 -24.68383789 141.11352539 C-29.63383789 152.99352539 -34.58383789 164.87352539 -39.68383789 177.11352539 C-52.55383789 177.11352539 -65.42383789 177.11352539 -78.68383789 177.11352539 C-75.30911039 166.9893429 -75.30911039 166.9893429 -73.4699707 162.78198242 C-73.05752609 161.83310654 -72.64508148 160.88423065 -72.22013855 159.90660095 C-71.5602166 158.40414574 -71.5602166 158.40414574 -70.88696289 156.87133789 C-70.42175735 155.80351578 -69.95655182 154.73569366 -69.47724915 153.63551331 C-68.48251489 151.35323916 -67.48607405 149.07170821 -66.48806763 146.79086304 C-64.37964565 141.97186711 -62.27987102 137.1491202 -60.17970276 132.32652283 C-59.12952031 129.91510147 -58.07893366 127.5038561 -57.02793884 125.0927887 C-53.06909273 116.00894648 -49.14095417 106.91256648 -45.24633789 97.80102539 C-44.68067331 96.47859305 -44.11499935 95.15616472 -43.54931641 93.83374023 C-42.32516649 90.97129611 -41.10159238 88.10860638 -39.87817383 85.24584961 C-35.84902712 75.81984033 -31.81199178 66.39720507 -27.77499676 56.97455502 C-25.96005639 52.73825372 -24.14615905 48.50150686 -22.33251953 44.26464844 C-19.45514991 37.54522876 -16.5722958 30.82818602 -13.68383789 24.11352539 C-13.20045959 22.98970459 -12.7170813 21.86588379 -12.21905518 20.70800781 C-10.82097342 17.46167523 -9.41915752 14.2169852 -8.01586914 10.97290039 C-7.59230637 9.98920471 -7.16874359 9.00550903 -6.73234558 7.99200439 C-6.34484634 7.09850281 -5.95734711 6.20500122 -5.55810547 5.28442383 C-5.21878494 4.49952576 -4.87946442 3.71462769 -4.52986145 2.90594482 C-3.23119665 0.15454152 -3.19756342 0.1352558 0 0 Z M10.31616211 51.11352539 C6.86216249 58.53991627 3.67184975 66.03241715 0.67163086 73.65258789 C0.25698074 74.70006195 -0.15766937 75.74753601 -0.58488464 76.82675171 C-1.4508322 79.01605215 -2.31542773 81.20588782 -3.17871094 83.39624023 C-4.50702181 86.76562617 -5.84023456 90.13304279 -7.17407227 93.50024414 C-8.01745777 95.6342455 -8.86056698 97.76835608 -9.70336914 99.90258789 C-10.10328568 100.91286041 -10.50320221 101.92313293 -10.91523743 102.96401978 C-11.27949326 103.88943573 -11.64374908 104.81485168 -12.01904297 105.76831055 C-12.3414949 106.58562653 -12.66394684 107.4029425 -12.99617004 108.24502563 C-13.74140188 109.93809823 -13.74140188 109.93809823 -13.68383789 111.11352539 C2.15616211 111.11352539 17.99616211 111.11352539 34.31616211 111.11352539 C31.75091406 102.56216575 31.75091406 102.56216575 28.67944336 94.27758789 C28.18798828 93.05700684 27.6965332 91.83642578 27.19018555 90.57885742 C26.66975229 89.29871643 26.14924313 88.0186063 25.62866211 86.73852539 C25.09339079 85.41301963 24.55856406 84.08733426 24.02416992 82.76147461 C22.95959673 80.12150236 21.89293403 77.48239108 20.82446289 74.84399414 C18.72186434 69.64877007 16.64390225 64.44372998 14.56616211 59.23852539 C13.92567 57.63690974 13.28506072 56.03534094 12.64428711 54.43383789 C12.20600586 53.33813477 11.76772461 52.24243164 11.31616211 51.11352539 C10.98616211 51.11352539 10.65616211 51.11352539 10.31616211 51.11352539 Z " fill="#000000" transform="translate(910.683837890625,414.886474609375)"/>
<path d="M0 0 C9.24 0 18.48 0 28 0 C31.24504449 6.49008897 34.29027669 12.83460852 37.01171875 19.52734375 C37.37719818 20.41677673 37.74267761 21.30620972 38.11923218 22.22259521 C38.90336838 24.13173722 39.68585786 26.04155628 40.46682739 27.95199585 C42.57655909 33.11194839 44.6993659 38.26652458 46.8203125 43.421875 C47.25378494 44.4764238 47.68725739 45.5309726 48.13386536 46.61747742 C52.03958705 56.11331594 55.99050168 65.58982994 59.96069336 75.05886841 C61.06040174 77.68249409 62.15830666 80.30686837 63.25585938 82.93139648 C66.767195 91.32243726 70.29521445 99.70590464 73.85823059 108.07514954 C75.56280024 112.08177158 77.26036153 116.09134445 78.95724487 120.10122681 C79.77249325 122.02214555 80.59123973 123.94158372 81.41360474 125.85946655 C82.5486385 128.50692794 83.67201312 131.15905381 84.79296875 133.8125 C85.13466095 134.60094803 85.47635315 135.38939606 85.82839966 136.20173645 C88.1138635 141.65840951 88.1138635 141.65840951 87 145 C85.36450195 145.84375 85.36450195 145.84375 83.23828125 146.5 C82.45493408 146.7460498 81.67158691 146.99209961 80.86450195 147.24560547 C80.02234131 147.49455566 79.18018066 147.74350586 78.3125 148 C77.03475708 148.39082764 77.03475708 148.39082764 75.73120117 148.78955078 C68.54993478 150.94090347 61.36310519 152.57488287 54 154 C52.02 149.71 50.04 145.42 48 141 C13.35 140.505 13.35 140.505 -22 140 C-22.66 142.31 -23.32 144.62 -24 147 C-26.59569311 148.29784655 -27.72561303 147.82542871 -30.55078125 147.2578125 C-31.47165527 147.07895508 -32.3925293 146.90009766 -33.34130859 146.71582031 C-34.32180176 146.52084961 -35.30229492 146.32587891 -36.3125 146.125 C-44.56122165 144.54474401 -52.59469087 143.31718148 -61 143 C-58.82672554 136.13371894 -56.20492272 129.59442174 -53.30859375 123.00390625 C-52.85122833 121.95436264 -52.39386292 120.90481903 -51.92263794 119.82347107 C-50.94121342 117.57226853 -49.95809059 115.32180574 -48.97341919 113.07202148 C-46.35733648 107.09436423 -43.75381124 101.11123677 -41.1484375 95.12890625 C-40.62397537 93.92561676 -40.09951324 92.72232727 -39.55915833 91.48257446 C-34.85038688 80.67343809 -30.19617855 69.84149679 -25.5625 59 C-24.12799568 55.64566576 -22.69306582 52.29151382 -21.2578125 48.9375 C-20.91014832 48.12502304 -20.56248413 47.31254608 -20.20428467 46.47544861 C-16.13638305 36.97455757 -12.03914202 27.48636358 -7.9375 18 C-7.41459885 16.78981201 -7.41459885 16.78981201 -6.88113403 15.55517578 C-5.90971354 13.30732392 -4.93745893 11.05983515 -3.96484375 8.8125 C-3.53345596 7.81428223 -3.53345596 7.81428223 -3.09335327 6.79589844 C-2.1020379 4.50790291 -1.11538137 2.23076275 0 0 Z M13 51 C10.52681684 57.17015025 8.05505692 63.34086931 5.58422852 69.51196289 C4.74567946 71.60584032 3.90681937 73.69959322 3.06762695 75.79321289 C-2.54868059 89.79617164 -2.54868059 89.79617164 -8.08203125 103.83203125 C-8.65207886 105.29153198 -8.65207886 105.29153198 -9.23364258 106.78051758 C-10.10879279 108.92373569 -10.10879279 108.92373569 -10 111 C5.84 111 21.68 111 38 111 C34.94717828 103.02621192 31.88656082 95.05581631 28.8081665 87.09191895 C27.9653457 84.91029821 27.12404176 82.72809566 26.28271484 80.54589844 C24.81858464 76.75132281 23.34620618 72.96002711 21.8687439 69.17062378 C21.28916051 67.68079294 20.71203442 66.19000382 20.13735962 64.69827271 C19.32728403 62.5970139 18.50849293 60.49935659 17.6875 58.40234375 C17.21699219 57.19054443 16.74648438 55.97874512 16.26171875 54.73022461 C15.2920178 51.88587796 15.2920178 51.88587796 13 51 Z " fill="#000000" transform="translate(295,415)"/>
<path d="M0 0 C11.55 0 23.1 0 35 0 C35.06796256 15.64776845 35.1231238 31.29541817 35.15543652 46.94329166 C35.17084481 54.21037681 35.19181736 61.47736311 35.22631836 68.74438477 C35.25640722 75.08514127 35.27561876 81.42582612 35.28226548 87.76665205 C35.28614516 91.11795084 35.29675655 94.46888384 35.31719017 97.82014656 C35.4599191 122.2141289 34.23398061 143.86503283 16.75 162.6875 C9.14121365 169.88958062 -0.18899282 174.56614749 -10 178 C-11.35351562 178.48146484 -11.35351562 178.48146484 -12.734375 178.97265625 C-34.06264351 185.16938291 -58.10024876 181.70783402 -77.359375 171.2109375 C-82.57080507 168.1777012 -86.85950882 164.3617388 -91 160 C-91.59296875 159.3915625 -92.1859375 158.783125 -92.796875 158.15625 C-95.47250595 155.24219649 -97.43625886 152.34737269 -99.1640625 148.78515625 C-99.51162598 148.07367432 -99.85918945 147.36219238 -100.21728516 146.62915039 C-100.47558105 146.09153076 -100.73387695 145.55391113 -101 145 C-100.51756836 144.68361572 -100.03513672 144.36723145 -99.53808594 144.04125977 C-89.79750722 137.63901776 -80.20947024 131.15088278 -71 124 C-69 127 -69 127 -68.02734375 128.98046875 C-63.88716851 137.3646946 -58.13267654 143.14833291 -49.3125 146.5 C-38.55181514 149.56665828 -28.01279592 149.09367273 -18 144 C-10.71931344 139.83418108 -5.69431474 134.02337847 -3 126.03515625 C-0.55098286 116.6982784 0.14839358 107.69183203 0.11352539 98.0859375 C0.11367142 97.0216301 0.11381744 95.95732269 0.1139679 94.86076355 C0.11327482 91.36548783 0.10551087 87.87026633 0.09765625 84.375 C0.09578992 81.94262725 0.09436703 79.51025412 0.09336853 77.07788086 C0.0895603 70.69271802 0.07974452 64.30757812 0.06866455 57.92242432 C0.05841397 51.40010895 0.0538631 44.87778986 0.04882812 38.35546875 C0.03812068 25.57030083 0.02053764 12.78515592 0 0 Z " fill="#000000" transform="translate(524,415)"/>
<path d="M0 0 C-1.58921525 5.36095277 -3.18972938 10.70843973 -5 16 C-9.73181425 15.41900509 -14.06993945 14.44996097 -18.625 13.0625 C-39.24413871 7.27457903 -61.05175171 7.23529562 -80.19140625 17.75390625 C-103.26819693 32.34268197 -113.71012473 57.02770383 -122.81295776 81.67233276 C-124.52788348 86.30932897 -126.27556733 90.93393446 -128.0234375 95.55859375 C-128.36614182 96.46623978 -128.70884613 97.3738858 -129.06193542 98.30903625 C-133.37264826 109.68334962 -138.04794333 120.88969176 -143 132 C-143.4242627 132.95551758 -143.84852539 133.91103516 -144.28564453 134.89550781 C-145.50730555 137.62573155 -146.74785708 140.34613904 -148 143.0625 C-148.54321899 144.26120728 -148.54321899 144.26120728 -149.09741211 145.48413086 C-149.98459798 147.36284022 -150.98291598 149.18831908 -152 151 C-152.99 151.33 -153.98 151.66 -155 152 C-155.50559908 150.56445975 -156.0042749 149.1264798 -156.5 147.6875 C-156.7784375 146.88699219 -157.056875 146.08648437 -157.34375 145.26171875 C-158 143 -158 143 -158 140 C-160.64 140 -163.28 140 -166 140 C-163.98442521 133.41823145 -161.38524973 127.29765767 -158.4453125 121.08203125 C-152.62383855 108.51929984 -147.73923046 95.64407527 -142.875 82.6875 C-133.35128952 57.33285324 -133.35128952 57.33285324 -128.68359375 47.3828125 C-128.38037201 46.7360405 -128.07715027 46.08926849 -127.76473999 45.42289734 C-117.22514996 23.62988697 -99.77861231 4.88434221 -77 -4 C-53.15838248 -11.93457691 -22.87261851 -11.43630925 0 0 Z " fill="#D90E2C" transform="translate(779,276)"/>
<path d="M0 0 C5.28 1.65 10.56 3.3 16 5 C13.42449291 20.45304253 3.31034422 33.42062078 -8.87890625 42.87109375 C-33.54666591 59.69703745 -65.10314569 62.50071567 -93.91943359 57.06738281 C-95.61636826 56.72823755 -97.3088847 56.36706379 -99 56 C-97.07289294 44.47835991 -97.07289294 44.47835991 -95 39 C-94.33355469 39.06058594 -93.66710937 39.12117188 -92.98046875 39.18359375 C-91.03266906 39.36066645 -89.08474177 39.53633877 -87.13671875 39.7109375 C-85.15916363 39.89317795 -83.18241424 40.08461727 -81.20703125 40.2890625 C-60.4786131 42.38284211 -37.37037418 40.67567846 -20 28 C-19.29488281 27.48824219 -18.58976563 26.97648437 -17.86328125 26.44921875 C-9.2883447 19.60560273 -4.64621778 9.714819 0 0 Z " fill="#DA0E2C" transform="translate(942,252)"/>
<path d="M0 0 C0.83265381 0.00757324 1.66530762 0.01514648 2.52319336 0.02294922 C15.7153795 0.37317294 26.83232591 5.88723898 36.75 14.4375 C45.53530223 24.55390862 51.0143495 35.95567544 50.75 49.4375 C51.83667969 49.61925781 51.83667969 49.61925781 52.9453125 49.8046875 C60.83948821 51.58582464 67.92715829 55.92602405 72.75 62.4375 C77.49613819 70.16933936 77.59558143 78.58839205 76.75 87.4375 C75.7265625 90.890625 75.7265625 90.890625 74.75 93.4375 C70.77578236 92.86975462 67.88073915 92.00187428 64.75 89.4375 C64.3671875 86.109375 64.3671875 86.109375 64.625 82.1875 C64.9702056 74.35677625 64.9702056 74.35677625 61.75 67.4375 C55.74312743 62.01397201 47.2791313 59.92253631 39.75 57.4375 C39.73582031 56.49390625 39.72164062 55.5503125 39.70703125 54.578125 C39.22953246 41.72437368 36.05359592 30.85318744 26.75 21.4375 C15.95188396 12.4192932 5.25675177 11.74959491 -8.25 12.4375 C-10.25617219 12.73141202 -12.25999943 13.04890146 -14.25 13.4375 C-15.24 10.1375 -16.23 6.8375 -17.25 3.4375 C-11.29842397 0.87614822 -6.4596462 -0.08279071 0 0 Z " fill="#000000" transform="translate(706.25,112.5625)"/>
<path d="M0 0 C3.63 0 7.26 0 11 0 C10.46903798 13.27405052 6.53439243 24.49906158 -3 34 C-13.27343023 42.87405933 -25.52333745 46.78222751 -39 46 C-39.74636719 45.82082031 -40.49273438 45.64164062 -41.26171875 45.45703125 C-43.73802852 44.8822508 -45.47918079 44.59666893 -48 45 C-50.50531439 47.03253019 -52.53254399 49.29361868 -54.68359375 51.6953125 C-59.26473007 56.25327275 -65.05356285 58.12447429 -71.4375 58.5 C-78.52679812 58.15941094 -85.51573397 55.46155907 -91 51 C-90.52797514 46.75177626 -88.03344482 44.80010291 -85 42 C-80 44 -80 44 -77.625 45.125 C-72.85934315 46.71355228 -69.29557739 46.50383565 -64.625 44.6875 C-59.32035064 41.38870894 -55.72612235 35.90056908 -52 31 C-49.03860558 31.56577415 -46.21631615 32.22580721 -43.3125 33.0625 C-33.31763682 35.51442336 -24.65016205 33.7787622 -15.73828125 28.71484375 C-5.52621186 21.73173345 -2.32230906 11.61154532 0 0 Z " fill="#000000" transform="translate(781,290)"/>
<path d="M0 0 C1.2684375 -0.00386719 1.2684375 -0.00386719 2.5625 -0.0078125 C4.85453516 0.11707403 6.79166145 0.53731582 9 1.125 C9.0252908 8.49397044 9.04284179 15.86292974 9.05493164 23.23193359 C9.05997003 25.74040139 9.06680084 28.24886624 9.07543945 30.75732422 C9.08752661 34.3564527 9.09323315 37.95554247 9.09765625 41.5546875 C9.10281754 42.68180145 9.10797882 43.80891541 9.11329651 44.97018433 C9.11340981 46.53157639 9.11340981 46.53157639 9.11352539 48.12451172 C9.115746 49.04384491 9.11796661 49.9631781 9.12025452 50.91036987 C9 53.125 9 53.125 8 55.125 C-1.00878383 54.27153627 -9.13760206 47.52358283 -15.125 41 C-20.62061056 34.08967781 -22.6499644 26.44184147 -21.75 17.6953125 C-20.71690712 12.21623063 -19.0197541 7.3211848 -14.32421875 3.90625 C-9.47664744 0.99978326 -5.57238803 -0.01698899 0 0 Z " fill="#000000" transform="translate(443,462.875)"/>
<path d="M0 0 C3.35915158 1.43963639 5.71624938 3.12416589 8 6 C7.59949903 9.13295117 6.32781774 11.24047919 4.5625 13.8125 C0.76917455 19.74368227 -1.00695917 25.93900581 0 33 C2.78317984 43.20021066 6.49035049 48.39978047 15.5625 53.765625 C21.7514566 56.8997761 29.13617967 57.10238942 35.765625 55.2109375 C40.07439606 53.52097041 44.1395996 51.57360026 48 49 C49.03531726 49.90027588 50.05294165 50.82093035 51.0625 51.75 C51.63097656 52.26046875 52.19945312 52.7709375 52.78515625 53.296875 C54 55 54 55 53.9296875 57.01171875 C51.74854444 61.67643227 46.15382803 64.04234754 41.63671875 66.05078125 C31.70698236 69.47987188 20.62606904 69.27468174 11 65 C0.28910783 59.17694495 -7.02759377 51.35069459 -10.75 39.640625 C-13.54086402 28.39964494 -11.87221746 17.44364169 -6 7.4375 C-4.22782433 4.62694014 -2.432341 2.26584146 0 0 Z " fill="#000000" transform="translate(509,254)"/>
<path d="M0 0 C11.88 0 23.76 0 36 0 C36 10.23 36 20.46 36 31 C33.256875 31.0825 30.51375 31.165 27.6875 31.25 C16.85642379 31.74799172 9.4552002 34.59702846 0 40 C0 26.8 0 13.6 0 0 Z " fill="#000000" transform="translate(416,415)"/>
<path d="M0 0 C5.42661081 3.79756975 12.42893783 9.54656473 14.4765625 15.98828125 C14.56808594 16.55804688 14.65960937 17.1278125 14.75390625 17.71484375 C8.36812247 21.76736038 8.36812247 21.76736038 5.65234375 21.53515625 C2.88496979 20.33937738 1.98768779 18.06942801 0.375 15.6328125 C-4.08226453 10.35927784 -10.89469113 7.13886222 -17.69140625 6.4765625 C-25.92758556 6.24844675 -32.08135331 8.1234497 -39.05859375 12.46484375 C-44.98979136 18.56550415 -48.24678909 25.58799536 -48.49609375 34.15234375 C-48.40488576 38.57593121 -47.47920051 42.47603928 -46.24609375 46.71484375 C-52.69609375 50.80811298 -52.69609375 50.80811298 -55.48046875 50.3359375 C-56.063125 50.13097656 -56.64578125 49.92601562 -57.24609375 49.71484375 C-61.00456609 37.74589911 -61.87977275 26.77157997 -55.95703125 15.1953125 C-49.49505071 5.05311309 -42.00315862 -0.21160225 -30.93359375 -4.59765625 C-20.01879198 -6.63261929 -9.72544303 -5.5646448 0 0 Z " fill="#000000" transform="translate(600.24609375,112.28515625)"/>
<path d="M0 0 C0.66 0 1.32 0 2 0 C3.03411477 2.74564964 4.05251157 5.4954861 5.0625 8.25 C5.35705078 9.02730469 5.65160156 9.80460937 5.95507812 10.60546875 C6.22900391 11.35957031 6.50292969 12.11367188 6.78515625 12.890625 C7.04176025 13.58188477 7.29836426 14.27314453 7.56274414 14.98535156 C8.0816464 17.37618429 7.82753483 18.71252447 7 21 C-2.44315212 34.30719905 -14.78275846 44.76649615 -28.0625 54.0625 C-28.90300903 54.65405884 -28.90300903 54.65405884 -29.76049805 55.25756836 C-33.75345395 58 -33.75345395 58 -36 58 C-37.63009001 39.50224009 -37.63009001 39.50224009 -34.16015625 34.17578125 C-31.54245237 32.20319871 -28.84699767 30.62141846 -26 29 C-16.22902399 21.00308388 -8.43047617 11.65472254 -1.19140625 1.36328125 C-0.79824219 0.91339844 -0.40507813 0.46351563 0 0 Z " fill="#D7102D" transform="translate(594,446)"/>
<path d="M0 0 C0 3.63 0 7.26 0 11 C-1.65 11.2475 -3.3 11.495 -5 11.75 C-15.08946517 13.64904146 -20.93705407 17.60944035 -27 26 C-31.31539089 33.3029692 -30.79715723 41.95627207 -29 50 C-35.5 53 -35.5 53 -40 53 C-43.39518548 41.75344809 -42.5400444 31.87072744 -38 21 C-32.4127195 11.03215935 -22.92052178 3.84272589 -12 0.75 C-7.95675099 -0.16454442 -4.13220031 -0.14757858 0 0 Z " fill="#000000" transform="translate(535,177)"/>
<path d="M0 0 C-0.66241789 3.55079859 -1.57481771 6.67457466 -3 10 C-4.093125 9.835 -5.18625 9.67 -6.3125 9.5 C-16.43994056 8.30328304 -25.54751801 8.11737474 -34.0390625 14.54296875 C-40.50961826 20.5592089 -43.18304405 27.52087225 -45 36 C-48.63 36 -52.26 36 -56 36 C-55.31015463 23.75524473 -50.94313698 14.27860902 -42.05078125 5.671875 C-29.91068537 -4.22519364 -14.31022118 -5.31884327 0 0 Z " fill="#000000" transform="translate(688,91)"/>
<path d="M0 0 C3.49453298 3.60042792 4.36760598 6.50956671 4.4375 11.5 C4.33759489 16.4952557 3.54663691 19.3583655 0.0625 23.125 C-3.89864362 26.72603966 -8.15219922 26.62532479 -13.27734375 26.48046875 C-17.9184318 25.86029399 -20.44343186 23.51602895 -23.75 20.4375 C-26.30513074 15.46171908 -26.38076468 10.68946358 -24.875 5.375 C-22.23581995 0.9479883 -19.51671181 -1.82937359 -14.625 -3.8125 C-9.24530961 -3.93760908 -4.54596898 -2.90168233 0 0 Z " fill="#000000" transform="translate(857.9375,235.875)"/>
<path d="M0 0 C5.18976563 1.76256191 7.55541708 4.11083416 10 9 C11.35877349 13.73379151 11.48193782 17.73144174 9.5625 22.3125 C7.05092296 26.65146585 3.73654396 28.58703473 -1 30 C-6.2453441 30.63305877 -9.56130208 29.86049421 -14 27 C-18.49483717 22.01923449 -19.29983058 19.03552837 -19.21484375 12.47265625 C-18.81234859 7.84030287 -16.83077378 5.7294599 -13.4375 2.75 C-8.95627442 -0.46729016 -5.40743682 -0.49241415 0 0 Z " fill="#000000" transform="translate(710,198)"/>
<path d="M0 0 C3.93787261 0.58338854 6.17201647 2.24271605 9 5 C12.88722374 11.31025987 14.8846524 17.52532827 14 25 C12.10149336 32.72704294 8.52112973 37.51262301 2 42 C-4.51918228 45.58555025 -11.13550527 45.29748824 -18.1171875 43.5703125 C-20 43 -20 43 -22 42 C-20.66511872 38.40608886 -19.03977277 35.24509304 -17 32 C-16.41992188 32.10699219 -15.83984375 32.21398437 -15.2421875 32.32421875 C-9.86868972 33.14886445 -6.7029423 33.13529487 -2 30 C0.4656856 27.95943261 0.95657975 27.13026076 2 24 C2.53756448 18.30181648 1.60129241 15.44865533 -2 11 C-2.66 10.67 -3.32 10.34 -4 10 C-3.29445932 6.33118845 -1.72264494 3.29549466 0 0 Z " fill="#000000" transform="translate(630,222)"/>
<path d="M0 0 C5.87548953 2.78608299 10.76553523 7.15887346 13.875 12.93359375 C15.96526703 19.65151077 15.91943712 28.33644815 13.10546875 34.84375 C10.57199266 38.97304554 6.84523857 41.99951168 2.60546875 44.28125 C0.13046875 44.77625 0.13046875 44.77625 -2.39453125 45.28125 C-3.38453125 41.98125 -4.37453125 38.68125 -5.39453125 35.28125 C-4.28078125 34.559375 -3.16703125 33.8375 -2.01953125 33.09375 C1.1626364 30.7876447 2.8607646 29.28403481 3.60546875 25.28125 C3.74851186 20.59897225 3.21066695 18.01059142 0.16796875 14.34375 C-3.08963706 11.72177459 -4.93788753 11.12691437 -9.01953125 10.71875 C-10.46328125 10.574375 -11.90703125 10.43 -13.39453125 10.28125 C-14.38453125 6.98125 -15.37453125 3.68125 -16.39453125 0.28125 C-11.72597981 -2.05302572 -4.8948065 -1.46924045 0 0 Z " fill="#000000" transform="translate(632.39453125,173.71875)"/>
<path d="M0 0 C27.69172932 -0.65413534 27.69172932 -0.65413534 37 4 C36.54554036 5.41791408 36.08625056 6.83428046 35.625 8.25 C35.24214844 9.43335938 35.24214844 9.43335938 34.8515625 10.640625 C34 13 34 13 32 17 C19.13 17 6.26 17 -7 17 C-4.69 11.39 -2.38 5.78 0 0 Z " fill="#000000" transform="translate(226,575)"/>
<path d="M0 0 C1.4835001 0.42257276 2.96176424 0.86356322 4.4375 1.3125 C5.26121094 1.55613281 6.08492187 1.79976562 6.93359375 2.05078125 C7.95646484 2.52064453 7.95646484 2.52064453 9 3 C9.495 4.485 9.495 4.485 10 6 C6.98899524 12.02200952 2.01043951 16.16511659 -4 19 C-11.14745104 21.28895643 -18.87232318 20.94966954 -25.625 17.75 C-29.03145123 15.96409353 -30.57118337 14.595087 -32 11 C-31.09972412 9.96468274 -30.17906965 8.94705835 -29.25 7.9375 C-28.48429688 7.08478516 -28.48429688 7.08478516 -27.703125 6.21484375 C-26 5 -26 5 -24.046875 5.19140625 C-22 6 -22 6 -20.0234375 7.0390625 C-16.45666778 8.73293383 -12.85486374 8.54878268 -9 8 C-5.02533183 5.93906095 -2.4199059 3.76429807 0 0 Z " fill="#000000" transform="translate(592,253)"/>
<path d="M0 0 C6.04767401 3.57872668 9.01508769 7.77406496 11.89453125 14.12109375 C11.89453125 14.78109375 11.89453125 15.44109375 11.89453125 16.12109375 C8.26453125 17.11109375 4.63453125 18.10109375 0.89453125 19.12109375 C0.33765625 18.02796875 -0.21921875 16.93484375 -0.79296875 15.80859375 C-2.78470346 12.39221547 -4.29675513 10.55994112 -8.10546875 9.12109375 C-13.09014342 8.56724101 -16.65230007 8.76741051 -21.10546875 11.12109375 C-24.28460823 11.02174564 -25.13494389 10.09161861 -27.41796875 7.80859375 C-29.10546875 5.12109375 -29.10546875 5.12109375 -28.94921875 3.09375 C-27.84264973 0.5066326 -26.83565143 0.02560913 -24.29296875 -1.12890625 C-16.12583553 -4.40095326 -7.79042717 -4.05663685 0 0 Z " fill="#000000" transform="translate(818.10546875,216.87890625)"/>
<path d="M0 0 C1.48011371 0.30798326 2.95907325 0.621518 4.4375 0.9375 C5.26121094 1.11152344 6.08492187 1.28554687 6.93359375 1.46484375 C9 2 9 2 10 3 C10.15769349 4.41340094 10.27634556 5.83125522 10.375 7.25 C10.75988606 11.21874313 11.69275892 13.68961062 14 17 C14 17.66 14 18.32 14 19 C18.2505466 20.85961414 22.49933525 21.93204565 27 23 C27.33 26.63 27.66 30.26 28 34 C20.72568619 34.64660567 13.9035112 32.7101726 7.87890625 28.52734375 C2.50929799 23.64273236 -0.55670815 17.47091498 -1.2734375 10.2421875 C-1.32785772 6.50896053 -1.18642651 3.55927954 0 0 Z " fill="#000000" transform="translate(540,219)"/>
<path d="M0 0 C5.445 0.495 5.445 0.495 11 1 C10.33513536 9.14459185 7.24565641 14.62583053 1 20 C-5.1912569 24.22713402 -10.54856574 25.49676228 -18 25 C-21.06405945 24.15946057 -24.031828 23.13073219 -27 22 C-26.43454163 18.04179141 -25.19097652 15.3340947 -23 12 C-22.319375 12.165 -21.63875 12.33 -20.9375 12.5 C-15.21445608 13.47413513 -10.69003458 13.65444146 -5.578125 10.48828125 C-2.51362297 7.59824344 -1.4323278 3.89593162 0 0 Z " fill="#000000" transform="translate(828,268)"/>
<path d="M0 0 C1.0044134 2.2898234 2.00367612 4.5816599 3 6.875 C3.28617187 7.52597656 3.57234375 8.17695312 3.8671875 8.84765625 C6 13.7734375 6 13.7734375 6 16 C0.64323369 16.12353289 -4.71270526 16.21430573 -10.07055664 16.2746582 C-11.89329467 16.29981397 -13.71593172 16.33394285 -15.53833008 16.37719727 C-18.15731693 16.43780546 -20.77497153 16.46619761 -23.39453125 16.48828125 C-24.21025101 16.51408768 -25.02597076 16.5398941 -25.8664093 16.56648254 C-28.17114258 16.56762695 -28.17114258 16.56762695 -32 16 C-34.05660597 13.57233274 -35 12.1942286 -35 9 C-34.16750732 8.76289307 -33.33501465 8.52578613 -32.47729492 8.28149414 C-29.3853459 7.40051641 -26.29356789 6.51894171 -23.2019043 5.63696289 C-21.86440738 5.25553879 -20.52684279 4.87435193 -19.18920898 4.4934082 C-17.26528381 3.94545031 -15.34162278 3.39656524 -13.41796875 2.84765625 C-11.68196411 2.3527771 -11.68196411 2.3527771 -9.91088867 1.84790039 C-3.566945 0 -3.566945 0 0 0 Z " fill="#000000" transform="translate(391,576)"/>
<path d="M0 0 C3.08061933 1.47495593 5.30938265 3.04011661 7.8125 5.375 C11.33642432 8.54190385 14.80535989 10.81529161 19 13 C19 13.66 19 14.32 19 15 C16.57350969 16.80068015 14.15260703 18.47836549 11.625 20.125 C10.57699219 20.82689453 10.57699219 20.82689453 9.5078125 21.54296875 C4.26683218 25 4.26683218 25 2 25 C0.74161443 22.48322887 0.79181027 20.58706712 0.68359375 17.7734375 C0.64169922 16.7421875 0.59980469 15.7109375 0.55664062 14.6484375 C0.51732422 13.56820312 0.47800781 12.48796875 0.4375 11.375 C0.39431641 10.28703125 0.35113281 9.1990625 0.30664062 8.078125 C0.2003547 5.3855483 0.09831943 2.69287747 0 0 Z " fill="#010000" transform="translate(416,517)"/>
</svg>
