<?xml version="1.0" encoding="UTF-8"?>
<svg version="1.1" xmlns="http://www.w3.org/2000/svg" width="2000" height="382">
<path d="M0 0 C19.22180115 18.274039 29.97815527 44.1219072 31.50390625 70.359375 C32.14883788 97.36588694 23.98423318 123.85390904 5.18530273 143.6472168 C3.89514883 144.97372603 2.59058876 146.28618007 1.28515625 147.59765625 C0.61484375 148.28214844 -0.05546875 148.96664062 -0.74609375 149.671875 C-2.05413335 150.99533959 -3.38116987 152.30002761 -4.71484375 153.59765625 C-3.14960425 157.47050599 -0.67609489 159.70703458 2.34765625 162.53515625 C20.56134487 180.27292433 30.36346529 205.27015617 31.453125 230.484375 C31.60818943 260.65991266 21.35781766 286.90010537 0.28515625 308.59765625 C-18.78466513 327.73114982 -44.6760165 337.62803482 -71.46484375 337.91015625 C-96.19441834 337.81468426 -120.03466825 330.04876879 -138.71484375 313.59765625 C-139.53339844 312.9221875 -140.35195312 312.24671875 -141.1953125 311.55078125 C-149.00440789 304.91607695 -155.04995359 297.09499149 -160.71484375 288.59765625 C-160.21889598 283.98061869 -156.95044398 281.43716653 -153.83984375 278.28515625 C-143.31976352 267.25797947 -135.21662874 255.21329226 -127.7109375 241.984375 C-125.71484375 238.59765625 -125.71484375 238.59765625 -123.71484375 236.59765625 C-121.88448658 238.42801342 -121.97192933 241.4447271 -121.52734375 243.91015625 C-118.81770727 256.68045257 -112.90807911 267.53440073 -102.265625 275.41015625 C-89.24100701 283.58888026 -75.38207057 286.72830493 -60.1640625 283.94921875 C-46.96014799 280.24896007 -35.99687818 272.44914762 -28.46484375 260.97265625 C-21.74643227 248.96762591 -19.62741655 235.38021169 -22.83984375 221.97265625 C-27.57734842 206.94104096 -35.03107877 197.25822553 -48.71484375 189.59765625 C-49.79378906 188.97697266 -49.79378906 188.97697266 -50.89453125 188.34375 C-62.70578071 182.30441301 -76.51278016 182.66300556 -88.875 186.60546875 C-94.996117 188.94248181 -99.9018867 191.88450869 -104.875 196.14453125 C-106.71484375 197.59765625 -106.71484375 197.59765625 -109.71484375 198.59765625 C-109.53308594 197.45103516 -109.53308594 197.45103516 -109.34765625 196.28125 C-108.79083538 192.72187966 -108.25241671 189.15998479 -107.71484375 185.59765625 C-107.53783936 184.4571582 -107.36083496 183.31666016 -107.1784668 182.14160156 C-105.84984838 173.02855299 -105.35161518 164.1234366 -105.40234375 154.91015625 C-105.40416656 154.21588531 -105.40598938 153.52161438 -105.40786743 152.80630493 C-105.4588947 141.19851527 -106.20374664 129.95516476 -108.71484375 118.59765625 C-108.8864502 117.81712891 -109.05805664 117.03660156 -109.23486328 116.23242188 C-115.08452715 90.53363046 -125.49874005 66.46636689 -141.71484375 45.59765625 C-142.71257812 44.28474609 -142.71257812 44.28474609 -143.73046875 42.9453125 C-146.5682638 39.29424692 -149.49434307 35.79748766 -152.69140625 32.45703125 C-153.45723022 31.65096436 -153.45723022 31.65096436 -154.23852539 30.82861328 C-155.24670388 29.77644795 -156.26643951 28.73520886 -157.29858398 27.70654297 C-160.70726496 24.16065195 -160.70726496 24.16065195 -160.7421875 21.56640625 C-148.93108972 -1.06778873 -126.28426151 -16.48913445 -102.5703125 -24.21875 C-98.32392775 -25.546193 -94.11605081 -26.71771154 -89.71484375 -27.40234375 C-88.41546875 -27.60859375 -87.11609375 -27.81484375 -85.77734375 -28.02734375 C-53.35325568 -31.07238854 -24.33077748 -21.53011244 0 0 Z M-92.53125 60.71484375 C-96.05532286 66.32079464 -97.65497596 71.99097374 -96.71484375 78.59765625 C-95.1163957 85.05340381 -92.09021635 91.26085983 -86.53125 95.109375 C-79.93476783 98.88962505 -74.20544779 100.74436648 -66.5078125 99.13671875 C-58.72580706 96.88298634 -53.77570969 92.96609614 -49.77734375 85.91015625 C-46.70275296 79.17243913 -46.74765628 72.95436569 -48.77734375 65.91015625 C-52.82138542 58.99614953 -57.72136317 52.79007597 -65.71484375 50.59765625 C-76.42021095 49.04293487 -85.84225249 51.96040508 -92.53125 60.71484375 Z " fill="#F5CC33" transform="translate(290.71484375,36.40234375)"/>
<path d="M0 0 C17.16264726 14.8711116 27.46192228 35.14205424 29.99609375 57.62109375 C31.08938362 76.37755208 29.3040238 93.58983716 20.99609375 110.62109375 C20.5784375 111.52988281 20.16078125 112.43867188 19.73046875 113.375 C15.77400388 121.36751381 10.18291771 127.32428181 3.99609375 133.62109375 C3.32191406 134.31074219 2.64773438 135.00039062 1.953125 135.7109375 C0.64811802 137.02834359 -0.67484782 138.32795582 -2.00390625 139.62109375 C-1.14410156 140.07097656 -0.28429687 140.52085937 0.6015625 140.984375 C23.37329135 153.24033114 40.78910439 172.67997747 48.6171875 197.59814453 C57.21144633 226.74419716 54.86886016 256.92279607 40.375 283.60546875 C25.36538136 308.51351695 2.63322127 322.95721531 -25.0078125 330.43359375 C-50.49848471 335.77661675 -78.03553389 330.12433365 -100.14160156 316.84667969 C-105.52911652 313.30114677 -110.21753155 308.92345303 -115.00390625 304.62109375 C-115.33390625 310.89109375 -115.66390625 317.16109375 -116.00390625 323.62109375 C-126.23390625 323.62109375 -136.46390625 323.62109375 -147.00390625 323.62109375 C-147.00390625 212.08109375 -147.00390625 100.54109375 -147.00390625 -14.37890625 C-136.77390625 -14.37890625 -126.54390625 -14.37890625 -116.00390625 -14.37890625 C-115.67390625 -9.42890625 -115.34390625 -4.47890625 -115.00390625 0.62109375 C-113.70453125 -0.61640625 -113.70453125 -0.61640625 -112.37890625 -1.87890625 C-80.03538914 -29.35141175 -31.94412736 -25.29775496 0 0 Z M-81.00390625 11.62109375 C-81.88046875 11.97171875 -82.75703125 12.32234375 -83.66015625 12.68359375 C-90.54895041 15.74528004 -95.70017171 20.33580699 -101.00390625 25.62109375 C-101.56980469 26.16378906 -102.13570312 26.70648438 -102.71875 27.265625 C-111.30708741 36.26401565 -116.32372115 49.46705284 -116.27133179 61.74038696 C-116.2758629 62.52940474 -116.28039401 63.31842252 -116.28506243 64.13134992 C-116.2976653 66.76031592 -116.29608872 69.38907365 -116.29443359 72.01806641 C-116.30042155 73.90931462 -116.30722771 75.8005604 -116.31478882 77.69180298 C-116.33243217 82.82021007 -116.3371436 87.94855038 -116.33842039 93.07698488 C-116.33984388 96.28544461 -116.3441173 99.49388746 -116.34941483 102.70234299 C-116.36791199 113.90850651 -116.37608613 125.1146225 -116.37451172 136.32080078 C-116.37331151 146.74482605 -116.39439108 157.16864387 -116.42599905 167.59261668 C-116.45221088 176.55850175 -116.46287691 185.5243193 -116.4616009 194.49024236 C-116.46109256 199.83775273 -116.46670418 205.18507881 -116.487957 210.53255081 C-116.50742127 215.56743815 -116.50740811 220.60196702 -116.49292374 225.63686752 C-116.49084443 227.47618386 -116.49548365 229.31552311 -116.50764465 231.15480042 C-116.64088252 252.71731748 -110.37163775 269.85534906 -95.00390625 285.62109375 C-85.11190002 294.64068976 -71.49848476 302.07253556 -58.00390625 303.62109375 C-56.32941406 303.81832031 -56.32941406 303.81832031 -54.62109375 304.01953125 C-35.70287789 305.76762101 -16.41982614 301.67931982 -1.453125 289.5546875 C1.11204136 287.31649227 3.56520709 285.00400238 5.99609375 282.62109375 C7.04796875 281.62335938 7.04796875 281.62335938 8.12109375 280.60546875 C16.94383745 271.57594199 22.60137817 258.9311193 24.99609375 246.62109375 C25.17785156 245.70585937 25.35960937 244.790625 25.546875 243.84765625 C28.34368763 223.7592455 24.02680796 203.17652622 12.28125 186.53515625 C0.37213867 171.34849463 -14.9754805 161.88086714 -34.00390625 158.62109375 C-35.97868322 158.51155349 -37.95607502 158.44425679 -39.93359375 158.41015625 C-41.05894531 158.38179687 -42.18429687 158.3534375 -43.34375 158.32421875 C-45.69255199 158.27231152 -48.04153434 158.22798831 -50.390625 158.19140625 C-56.61346105 158.02072275 -61.57971193 157.81668456 -67.00390625 154.62109375 C-70.197901 149.73028929 -70.43904354 145.67259598 -69.65234375 139.9296875 C-68.6723331 136.44061344 -66.87141967 134.73759175 -64.00390625 132.62109375 C-61.08805533 131.64914344 -58.45252832 131.34761249 -55.40673828 131.07739258 C-38.13267181 129.46877607 -22.32242297 123.24656929 -11.00390625 109.62109375 C0.04705266 94.87879158 4.62644694 77.91881456 2.32373047 59.69433594 C-0.33791327 42.8518034 -9.06828179 27.60911054 -22.90234375 17.50390625 C-40.07988785 6.14925845 -61.82846581 3.43382705 -81.00390625 11.62109375 Z " fill="#2E3231" transform="translate(649.00390625,35.37890625)"/>
<path d="M0 0 C10.23 0 20.46 0 31 0 C31.33 35.97 31.66 71.94 32 109 C35.96 105.37 39.92 101.74 44 98 C46.88493067 95.91559983 49.58679932 94.03734429 52.625 92.25 C53.38006836 91.79882812 54.13513672 91.34765625 54.91308594 90.8828125 C81.90539057 75.24804772 116.37446459 71.22578382 146.58984375 78.73828125 C175.65781478 86.76427456 201.03186936 104.40588504 216.06933594 130.8828125 C221.20421173 140.21388091 225.15261733 149.72138 228 160 C228.3196875 161.13566406 228.639375 162.27132812 228.96875 163.44140625 C235.94942198 193.40012348 230.73681944 225.95964601 215.07080078 252.28173828 C199.62905424 277.06035483 176.24789635 294.62316082 148 302 C146.80632812 302.31710937 145.61265625 302.63421875 144.3828125 302.9609375 C112.13082672 310.03431064 77.7880839 304.57378343 49.81152344 287.19091797 C43.20915696 282.85044039 37.57574246 277.57574246 32 272 C31.67 282.89 31.34 293.78 31 305 C20.77 305 10.54 305 0 305 C0 204.35 0 103.7 0 0 Z M62 123 C61.14664062 123.68964844 60.29328125 124.37929687 59.4140625 125.08984375 C43.90997968 138.28024036 33.23898137 157.65481167 31 178 C29.95789247 192.40806703 30.18285781 206.28846128 35 220 C35.37382813 221.07121094 35.74765625 222.14242187 36.1328125 223.24609375 C40.57459895 234.79179693 47.36490371 244.22241037 56 253 C57.14082031 254.16015625 57.14082031 254.16015625 58.3046875 255.34375 C74.32568982 270.68188993 95.49191124 277.40092286 117.43212891 277.30273438 C140.56244353 276.74649434 161.61715049 267.24084728 178 251 C194.05508894 234.07542194 201.20372216 211.0206046 201 188 C199.96242833 167.38260686 193.06427846 147.32818111 179 132 C178.33613281 131.24460938 177.67226562 130.48921875 176.98828125 129.7109375 C162.96318447 114.6229406 142.56920159 105.58757443 122.12109375 104.68359375 C99.71810206 104.08317856 79.74218779 108.44711787 62 123 Z " fill="#2E3231" transform="translate(1507,59)"/>
<path d="M0 0 C1.57484319 1.33979197 3.13740142 2.69415502 4.6875 4.0625 C5.52925781 4.77277344 6.37101563 5.48304688 7.23828125 6.21484375 C29.81410371 25.70747346 42.37351968 54.69882264 44.55859375 84.11328125 C46.68888638 116.32588797 36.54390109 146.58452228 15.6875 171.0625 C1.08834433 187.59212254 -18.20995575 198.20438046 -39.3125 204.0625 C-40.42496094 204.3821875 -41.53742188 204.701875 -42.68359375 205.03125 C-73.00120465 212.20387207 -107.63852442 207.24205088 -134.19921875 191.0625 C-138.48228926 188.31101681 -142.44623772 185.37038071 -146.3125 182.0625 C-147.11042969 181.39734375 -147.90835938 180.7321875 -148.73046875 180.046875 C-173.3848052 158.79445475 -184.83731504 129.95460284 -187.3125 98.0625 C-189.31057321 66.74576075 -177.55532254 36.81869607 -157.35693359 13.33520508 C-143.18278499 -2.57054607 -123.86207537 -13.57674121 -103.3125 -18.9375 C-102.10722656 -19.25460938 -100.90195312 -19.57171875 -99.66015625 -19.8984375 C-66.64499564 -27.53511202 -27.05647843 -21.23152676 0 0 Z M-127.3125 27.0625 C-127.91964844 27.52914062 -128.52679687 27.99578125 -129.15234375 28.4765625 C-145.09027195 40.83658845 -153.75579332 62.60312136 -156.3125 82.0625 C-158.05457084 109.77259727 -151.39811189 132.34634631 -133.234375 153.48046875 C-118.84594773 168.96135068 -97.3953118 178.15883142 -76.47265625 179.265625 C-52.33663379 179.72661716 -30.33752812 172.56089126 -12.3125 156.0625 C5.04322276 139.18497382 13.35873237 117.05578339 13.9375 93.125 C13.8179815 79.77876743 11.2748783 67.22955056 5.6875 55.0625 C5.19507813 53.98355469 4.70265625 52.90460938 4.1953125 51.79296875 C-0.08327456 43.16414366 -5.54804567 36.77034802 -12.3125 30.0625 C-13.08207031 29.25941406 -13.85164062 28.45632812 -14.64453125 27.62890625 C-29.89163102 12.64155264 -50.59660344 6.65760855 -71.5 6.5 C-92.39546911 6.76348949 -111.60245381 12.93240153 -127.3125 27.0625 Z " fill="#2E3231" transform="translate(926.3125,156.9375)"/>
<path d="M0 0 C0.72687012 0.19867676 1.45374023 0.39735352 2.20263672 0.60205078 C28.0059531 7.93597187 51.83546321 23.79353803 66 47 C66.98226563 48.56814453 66.98226563 48.56814453 67.984375 50.16796875 C84.10250725 76.59381166 88.54942838 109.04023058 81.83911133 139.22290039 C77.42709389 157.04073487 69.57370636 172.70538822 58 187 C57.33613281 187.84175781 56.67226562 188.68351563 55.98828125 189.55078125 C38.30009794 210.67552589 10.9748263 222.8472554 -16 226 C-21.0035468 226.31054115 -25.98755929 226.38183698 -31 226.375 C-31.67709015 226.37445618 -32.3541803 226.37391235 -33.05178833 226.37335205 C-64.86734381 226.25639514 -92.78984117 215.07327031 -115.6875 192.8125 C-137.8624323 170.44249971 -147.42360187 139.67738131 -147.30053711 108.74291992 C-146.73209909 77.53490798 -134.51304299 50.02447583 -113 27.625 C-83.87082115 -0.40496455 -38.87916035 -10.62945357 0 0 Z M-95 53 C-110.81830708 71.155382 -118.26858334 94.25205501 -116.77734375 118.2109375 C-115.18531418 137.33710091 -108.37518638 154.23054679 -96 169 C-95.37222656 169.81855469 -94.74445313 170.63710938 -94.09765625 171.48046875 C-81.84891277 186.19264667 -61.88019179 195.11606576 -43.2109375 197.71875 C-17.07462652 200.00806191 6.05172948 193.35990097 26.375 176.5625 C40.97531554 162.9562485 51.90221156 142.35414252 53.17700195 122.2019043 C53.77103525 94.30600579 49.18362116 71.40956756 29.390625 50.37109375 C11.66263997 32.7879452 -9.6003268 25.72901906 -34.25268555 25.6809082 C-57.86605411 25.94557464 -78.81452812 35.9143917 -95 53 Z " fill="#2E3231" transform="translate(1910,138)"/>
<path d="M0 0 C0.72960938 0.57492188 1.45921875 1.14984375 2.2109375 1.7421875 C22.86066015 18.80065403 35.84120963 46.79082993 39 73 C39.31599219 78.18808642 39.39019669 83.36622987 39.375 88.5625 C39.37445618 89.26454559 39.37391235 89.96659119 39.37335205 90.68991089 C39.27781664 117.58389318 30.98651609 143.57171977 13 164 C12.33613281 164.80695313 11.67226562 165.61390625 10.98828125 166.4453125 C-3.14882903 183.11717269 -22.94654939 194.50196513 -44 200 C-45.79050781 200.47566406 -45.79050781 200.47566406 -47.6171875 200.9609375 C-79.88475594 208.03772816 -114.22826097 202.56890935 -142.21044922 185.16894531 C-146.81602887 182.16055304 -150.94691594 178.70639725 -155 175 C-156.25876953 173.86304688 -156.25876953 173.86304688 -157.54296875 172.703125 C-179.30954861 152.05018411 -191.16166012 122.93614015 -192.125 93.1328125 C-192.75333125 60.78304772 -182.32027855 30.50860861 -160 7 C-117.74882736 -36.24678201 -46.15985393 -37.11411887 0 0 Z M-105 7 C-106.06089844 7.36222656 -107.12179687 7.72445312 -108.21484375 8.09765625 C-128.3371166 15.73738661 -144.05624723 31.32532324 -153.375 50.5 C-163.8341051 74.70705061 -163.93551565 100.85739765 -154.3125 125.25 C-144.75681867 146.07709597 -128.08509649 161.86452832 -106.74243164 170.1015625 C-84.6427933 178.01276131 -60.2834775 176.91432876 -39 167 C-18.25219578 156.49478267 -3.6906351 139.98700483 4.37890625 118.29296875 C11.74170305 94.08539697 10.29735708 68.7085576 -1.3125 46.125 C-4.66979121 40.25155317 -8.50329937 35.04610955 -13 30 C-13.99773437 28.86111328 -13.99773437 28.86111328 -15.015625 27.69921875 C-29.06932432 12.63053004 -49.41639321 3.58821127 -69.87890625 2.68359375 C-82.19109801 2.35460629 -93.31655257 2.94601654 -105 7 Z " fill="#2E3231" transform="translate(1443,161)"/>
<path d="M0 0 C10.23 0 20.46 0 31 0 C31.33 10.89 31.66 21.78 32 33 C35.63 29.7 39.26 26.4 43 23 C69.95687884 2.70795655 103.6288966 -3.9138291 136.8359375 0.6875 C157.72459863 4.25265574 177.13031996 12.9564906 193 27 C193.68191406 27.53882813 194.36382813 28.07765625 195.06640625 28.6328125 C216.73845575 46.05801594 228.33484836 75.20892307 231.35622978 102.08307457 C232.53540902 113.94504656 232.24527723 125.88361051 232.1953125 137.7890625 C232.19157411 140.43134452 232.18873105 143.07362795 232.18673706 145.71591187 C232.1805786 151.90959983 232.16424612 158.10321521 232.14403808 164.29687154 C232.12150107 171.36123131 232.11064141 178.42559498 232.10064721 185.48998189 C232.07987323 199.99336366 232.04326968 214.49666735 232 229 C221.77 229 211.54 229 201 229 C200.97812622 223.63536499 200.97812622 223.63536499 200.95581055 218.16235352 C200.90527584 206.29197851 200.83879442 194.42172842 200.76428509 182.55148411 C200.71953225 175.36075377 200.68007186 168.17007071 200.65356445 160.97924805 C200.63041656 154.70357158 200.59683575 148.42804731 200.55129844 142.15249199 C200.52758945 138.83700167 200.51027413 135.5216885 200.50238609 132.20611763 C200.42795364 103.7731596 197.54059687 78.20850124 178 56 C177.32195312 55.2265625 176.64390625 54.453125 175.9453125 53.65625 C162.54778259 39.32629127 142.46360572 30.51707844 122.96484375 29.68359375 C110.38634534 29.36071435 98.93063225 29.81742203 87 34 C85.94039062 34.36222656 84.88078125 34.72445312 83.7890625 35.09765625 C62.80568383 43.05407875 48.07840048 59.00023763 38.7265625 78.95703125 C33.33486941 91.12192926 31.86087162 103.11581417 31.79467773 116.26928711 C31.77982834 118.09961487 31.77982834 118.09961487 31.76467896 119.96691895 C31.73859807 123.29490533 31.71669241 126.62286911 31.69667697 129.95089412 C31.67472069 133.43559571 31.64737944 136.92025506 31.62062073 140.40492249 C31.57082361 146.9955777 31.52583696 153.58625652 31.48259836 160.17695767 C31.43311462 167.6836556 31.378238 175.19031112 31.32291877 182.69696796 C31.20929815 198.13127419 31.10312799 213.56561955 31 229 C20.77 229 10.54 229 0 229 C0 153.43 0 77.86 0 0 Z " fill="#2E3231" transform="translate(995,135)"/>
<path d="M0 0 C9.82614379 4.87229951 20.59314911 15.37150993 25.8828125 24.93359375 C25.3465625 25.12953125 24.8103125 25.32546875 24.2578125 25.52734375 C11.64196826 30.34128432 0.06969376 35.97064462 -10.1171875 44.93359375 C-10.92027344 45.53945312 -11.72335938 46.1453125 -12.55078125 46.76953125 C-25.11424089 57.36337697 -32.84828226 73.38104955 -37.1171875 88.93359375 C-37.45556641 90.16529297 -37.45556641 90.16529297 -37.80078125 91.421875 C-42.65684791 112.95601886 -38.29152695 136.60178525 -26.9921875 155.37109375 C-13.72890488 175.22304808 3.63139126 186.80326676 25.8828125 194.93359375 C19.69946329 203.93212634 10.84024368 215.04315326 0.8828125 219.93359375 C-4.24033185 219.78333393 -8.26349989 217.56156446 -12.6171875 215.05859375 C-13.31279785 214.66148193 -14.0084082 214.26437012 -14.72509766 213.85522461 C-43.97157538 196.69458977 -62.01733809 170.09827231 -71.1171875 137.93359375 C-72.02733464 134.26772332 -72.70100386 130.68536684 -73.1171875 126.93359375 C-73.22546875 126.05058594 -73.33375 125.16757813 -73.4453125 124.2578125 C-76.70584994 93.92623397 -69.18659013 61.90511381 -50.1796875 37.68359375 C-48.83799124 36.0896794 -47.48377822 34.50621628 -46.1171875 32.93359375 C-45.10398437 31.72123047 -45.10398437 31.72123047 -44.0703125 30.484375 C-34.96774461 19.90347035 -15.20437397 -0.47688996 0 0 Z " fill="#F5CC33" transform="translate(83.1171875,81.06640625)"/>
<path d="M0 0 C1.63001953 0.01353516 1.63001953 0.01353516 3.29296875 0.02734375 C4.12441406 0.03894531 4.95585937 0.05054688 5.8125 0.0625 C6.93417733 4.06646211 6.70695937 6.07833058 4.9375 9.8125 C1.15972565 18.71067234 1.40625227 25.04782577 4.8125 34.0625 C5.225 34.990625 5.6375 35.91875 6.0625 36.875 C7.00278968 39.61751158 6.45629172 41.28040006 5.8125 44.0625 C-1.60062524 44.50728751 -8.14813976 44.87511519 -14.1875 40.0625 C-19.03250464 35.07690371 -22.20244101 29.74650554 -22.1796875 22.61328125 C-21.62507902 14.54734482 -19.25371856 9.53689236 -13.1875 4.0625 C-8.8253813 0.47016695 -5.60169289 -0.06023326 0 0 Z " fill="#F5CC33" transform="translate(138.1875,168.9375)"/>
</svg>
