<?xml version="1.0" encoding="UTF-8"?>
<svg version="1.1" xmlns="http://www.w3.org/2000/svg" width="336" height="393">
<path d="M0 0 C1.61320381 1.42735084 3.21841377 2.86382956 4.8125 4.3125 C5.48925781 4.84875 6.16601562 5.385 6.86328125 5.9375 C27.55412348 22.52334548 39.55714524 50.79385931 42.49609375 76.4765625 C44.88674076 105.45946828 37.47985488 134.60230932 18.8125 157.3125 C16.55824153 159.91622614 14.2677014 162.47548773 11.93359375 165.0078125 C9.14218379 168.04083621 6.47790448 171.16868959 3.8125 174.3125 C4.63492188 175.08851563 5.45734375 175.86453125 6.3046875 176.6640625 C29.41434404 198.85559273 42.44473954 227.05086071 43.1875 259.3125 C42.54326041 286.20950292 33.79517621 310.46875354 16.8125 331.3125 C16.20019531 332.08980469 15.58789062 332.86710937 14.95703125 333.66796875 C-2.29565271 354.45211893 -29.63240493 367.09874837 -56.11083984 370.1315918 C-85.28235581 372.67286776 -114.00659351 365.21406256 -137.1484375 346.94921875 C-146.81113154 338.73754465 -157.8747918 329.0631775 -163.1875 317.3125 C-162.99036321 313.9365324 -161.63240574 312.46286607 -159.1875 310.25 C-146.84369657 298.38288816 -136.71351917 283.56636089 -128.35961914 268.68310547 C-125.3796179 263.40855895 -125.3796179 263.40855895 -123.1875 262.3125 C-122.96835938 263.32828125 -122.74921875 264.3440625 -122.5234375 265.390625 C-118.84797062 281.66911095 -112.41359387 295.11566507 -98.3515625 305.00390625 C-84.95210029 313.10646914 -70.03693951 315.62972373 -54.671875 312.625 C-51.72348732 311.69880492 -48.99089002 310.6104411 -46.1875 309.3125 C-45.26839844 308.91160156 -44.34929687 308.51070313 -43.40234375 308.09765625 C-29.69380665 301.44583445 -21.45181753 290.25238489 -16.1875 276.3125 C-14.41269235 270.87383346 -13.82910336 265.70364158 -13.875 260 C-13.88345947 258.88588745 -13.88345947 258.88588745 -13.89208984 257.74926758 C-14.21430729 243.05328057 -20.33390929 230.32289529 -30.48828125 219.7890625 C-42.0625801 209.16951768 -56.02397729 204.94022656 -71.49609375 205.1015625 C-85.21524931 205.88551425 -97.4829371 211.66502276 -107.1875 221.3125 C-107.8475 220.9825 -108.5075 220.6525 -109.1875 220.3125 C-109.07156494 219.723479 -108.95562988 219.13445801 -108.83618164 218.52758789 C-108.30367837 215.81078336 -107.77681222 213.09291357 -107.25 210.375 C-107.06759766 209.44880859 -106.88519531 208.52261719 -106.69726562 207.56835938 C-104.5645832 196.51718681 -103.94684083 185.80997178 -103.9375 174.5625 C-103.93682526 173.83084625 -103.93615051 173.0991925 -103.93545532 172.34536743 C-103.95330214 160.12062905 -104.67833073 148.31000105 -107.1875 136.3125 C-107.44490967 135.07185791 -107.44490967 135.07185791 -107.70751953 133.80615234 C-111.68452237 115.28590051 -118.19752824 97.96333961 -127.1875 81.3125 C-127.50831543 80.71099121 -127.82913086 80.10948242 -128.15966797 79.48974609 C-135.32189872 66.15104617 -143.85440232 54.37274159 -154.1875 43.3125 C-156.06253005 41.18698884 -157.92089272 39.04797128 -159.77734375 36.90625 C-160.87165145 35.6694701 -162.01978131 34.48021869 -163.1875 33.3125 C-162.83697237 26.54731668 -157.23556993 21.37920191 -153.1875 16.3125 C-152.60484375 15.57257812 -152.0221875 14.83265625 -151.421875 14.0703125 C-134.75174871 -6.07950034 -107.68566077 -19.1906646 -82.0703125 -22.37109375 C-52.91934985 -24.74657461 -23.1826067 -18.8097433 0 0 Z M-89.1875 71.3125 C-94.34037625 78.53701606 -95.34711289 85.59352382 -94.1875 94.3125 C-92.23508182 101.90396129 -87.66948002 107.39921299 -81.15625 111.6328125 C-74.29375925 115.18837836 -66.87891218 115.72060063 -59.48046875 113.5 C-52.32477837 110.33434896 -46.53478864 104.96859713 -42.99609375 97.94921875 C-40.80214186 90.79502779 -41.11464674 82.60920328 -44.25 75.8125 C-49.22737252 67.35512609 -55.85336768 63.8491039 -65.1875 61.3125 C-73.74107187 59.88690469 -83.75154701 64.77523705 -89.1875 71.3125 Z " fill="#FFFFFF" transform="translate(293.1875,22.6875)"/>
<path d="M0 0 C9.89597825 6.08284901 21.52779783 16.06446125 27.12890625 26.30859375 C26.44828125 26.57671875 25.76765625 26.84484375 25.06640625 27.12109375 C12.02689944 32.39238374 -0.25328453 37.91014424 -10.87109375 47.30859375 C-11.84046875 48.08074219 -12.80984375 48.85289063 -13.80859375 49.6484375 C-30.37776665 63.45084646 -39.91116502 86.10681917 -42.58984375 107.046875 C-44.66705982 131.13681136 -38.85974525 156.08363946 -23.53515625 175.2265625 C-21.37416357 177.65678184 -19.16142087 180.00058071 -16.87109375 182.30859375 C-15.60265625 183.63890625 -15.60265625 183.63890625 -14.30859375 184.99609375 C-13.50421875 185.75921875 -12.69984375 186.52234375 -11.87109375 187.30859375 C-11.3709375 187.81519531 -10.87078125 188.32179688 -10.35546875 188.84375 C0.07264715 198.79579974 13.46253906 204.40111233 27.12890625 208.30859375 C23.54146623 216.18006408 16.33965738 222.44537563 10.12890625 228.30859375 C9.33226563 229.09621094 8.535625 229.88382813 7.71484375 230.6953125 C1.64624939 236.22844266 1.64624939 236.22844266 -2.015625 236.421875 C-4.54645744 235.68469375 -6.57707867 234.61338131 -8.87109375 233.30859375 C-9.92167969 232.77234375 -10.97226563 232.23609375 -12.0546875 231.68359375 C-41.6477162 215.84785933 -64.50997032 188.43970979 -74.48046875 156.34716797 C-84.26493635 122.83701921 -80.87190883 87.35835635 -64.87109375 56.30859375 C-57.3915812 42.8587154 -20.43660688 -7.55173156 0 0 Z " fill="#FFFFFF" transform="translate(79.87109375,78.69140625)"/>
<path d="M0 0 C1 1 1 1 1.3125 3.9375 C1.29191205 7.30706179 0.37956128 9.69351618 -1 12.75 C-3.67431299 19.05373775 -4.32112825 25.10494947 -2.09375 31.671875 C-1.37965365 33.35510211 -0.64603559 35.03021732 0.109375 36.6953125 C1.37663132 39.97461612 1.30192981 42.52780715 1 46 C-4.84708655 48.23930974 -9.12161955 48.28659894 -15 46 C-21.45890529 42.45166065 -26.41755659 37.15308495 -28.609375 30.015625 C-30.07527883 22.45156125 -28.94001386 15.65083119 -25 9 C-18.25599898 1.36900093 -10.19818806 -2.37167164 0 0 Z " fill="#FFFFFF" transform="translate(144,173)"/>
</svg>
