<?xml version="1.0" encoding="UTF-8"?>
<svg version="1.1" xmlns="http://www.w3.org/2000/svg" width="2000" height="599">
<path d="M0 0 C660 0 1320 0 2000 0 C2000 197.67 2000 395.34 2000 599 C1340 599 680 599 0 599 C0 401.33 0 203.66 0 0 Z " fill="#FEFEFE" transform="translate(0,0)"/>
<path d="M0 0 C1.97838364 -0.01142029 1.97838364 -0.01142029 3.99673462 -0.02307129 C6.77883439 -0.03645696 9.56065066 -0.03811194 12.34277344 -0.03222656 C15.88223204 -0.02633711 19.42031577 -0.05691545 22.9595089 -0.09734344 C25.70847715 -0.12337973 28.45712131 -0.12608364 31.20619583 -0.12245178 C33.13700164 -0.12493505 35.06773922 -0.14951275 36.99838257 -0.17468262 C44.72455139 -0.11450357 50.85275758 0.86747952 57.2265625 5.46875 C59.5648213 7.97647667 61.48845479 10.51514129 63.2265625 13.46875 C63.57544966 14.03485615 63.92433681 14.6009623 64.28379631 15.18422318 C65.53561977 18.21766276 65.47224679 20.70491319 65.46707153 23.98602295 C65.46878038 24.63872547 65.47048923 25.291428 65.47224987 25.96390939 C65.47554162 28.14890318 65.46454649 30.33358923 65.45361328 32.51855469 C65.4530491 34.08562716 65.45336587 35.65270017 65.45449829 37.21977234 C65.45507253 41.4735783 65.44330671 45.72727167 65.42935038 49.98105145 C65.41685488 54.42667255 65.41567345 58.87229618 65.41329956 63.31793213 C65.40708132 71.73619926 65.39066584 80.1544145 65.37060058 88.57265878 C65.34825229 98.1566006 65.33725084 107.74054489 65.32720971 117.32450628 C65.30629992 137.03928316 65.27111724 156.75401331 65.2265625 176.46875 C65.76023437 176.09981628 66.29390625 175.73088257 66.84375 175.35076904 C69.30284207 173.65303028 71.7646774 171.95931077 74.2265625 170.265625 C75.06574219 169.68538574 75.90492188 169.10514648 76.76953125 168.50732422 C109.54524979 145.98989743 148.83966001 131.47232228 188.87109375 131.265625 C189.76156906 131.25992493 190.65204437 131.25422485 191.56950378 131.24835205 C193.44598226 131.23897073 195.3224767 131.23239569 197.19897461 131.22851562 C199.99429175 131.21890394 202.78884191 131.18785306 205.58398438 131.15625 C262.44177296 130.82445555 319.02650656 153.75973321 361.2265625 191.46875 C361.77296387 191.9534375 362.31936523 192.438125 362.88232422 192.9375 C380.57233315 208.69386632 395.71298781 226.9664017 407.25 247.71826172 C408.21055999 249.4400655 409.2027278 251.14411306 410.1953125 252.84765625 C419.64980138 269.41643719 426.68843411 287.95144909 431.2265625 306.46875 C431.40912598 307.21253906 431.59168945 307.95632813 431.77978516 308.72265625 C433.10854928 314.27404045 434.24241929 319.84625596 435.2265625 325.46875 C435.40662842 326.49718018 435.40662842 326.49718018 435.59033203 327.54638672 C437.53196144 339.47105856 437.43169721 351.5458183 437.4765625 363.59375 C437.48192017 364.39809479 437.48727783 365.20243958 437.49279785 366.03115845 C437.56702861 380.74740662 436.41035177 395.10659483 433.3515625 409.53125 C433.1757666 410.37083252 432.9999707 411.21041504 432.81884766 412.07543945 C432.46136122 413.76189851 432.09937853 415.44741214 431.73242188 417.13183594 C431.27982244 419.22270552 430.85315153 421.3171632 430.4296875 423.4140625 C420.11719551 470.01485178 389.60551319 515.19721358 352.2265625 544.46875 C351.01646989 545.45386575 349.80686385 546.43957938 348.59765625 547.42578125 C331.89356662 560.84257191 313.21202807 571.38642559 293.42871094 579.55761719 C291.43600818 580.38209243 289.46055653 581.23851284 287.484375 582.1015625 C264.4821291 591.54979684 237.00455167 596.8185546 212.2265625 597.46875 C211.31326172 597.49598145 210.39996094 597.52321289 209.45898438 597.55126953 C183.46285162 598.22445929 158.19475636 595.9294785 133.2265625 588.46875 C132.10048584 588.13883057 132.10048584 588.13883057 130.95166016 587.80224609 C107.89155973 580.87621824 84.69891708 568.96500301 66.2265625 553.46875 C66.20078125 554.51933594 66.175 555.56992187 66.1484375 556.65234375 C65.78935916 566.79963162 65.22469521 574.94900778 57.5390625 582.34375 C50.06421982 588.97027006 40.43971043 588.92561051 30.9765625 588.90234375 C29.09662598 588.91020653 29.09662598 588.91020653 27.17871094 588.91822815 C23.86785266 588.92625533 20.55741415 588.91922955 17.24658203 588.90789795 C15.22797721 588.90625115 13.20993441 588.91824527 11.19140625 588.93530273 C7.28619342 588.96608062 3.38187761 588.96937832 -0.5234375 588.96484375 C-1.71743164 588.97607773 -2.91142578 588.98731171 -4.14160156 588.99888611 C-12.62199638 588.92857594 -18.30178531 587.11108993 -25.5234375 582.84375 C-32.03733335 575.96797105 -33.92309099 567.73313549 -33.91045189 558.56922054 C-33.91310372 557.6435262 -33.91575554 556.71783185 -33.91848773 555.76408616 C-33.92620437 552.63307354 -33.9267408 549.5021 -33.92733765 546.37107849 C-33.93135071 544.11522488 -33.93578867 541.85937199 -33.9406172 539.60351998 C-33.95260596 533.38154224 -33.95823648 527.15957227 -33.96279836 520.93758523 C-33.96813557 514.92350674 -33.97811352 508.90943692 -33.98780782 502.89536431 C-34.01344635 486.77735874 -34.02847524 470.65934842 -34.04131828 454.54132832 C-34.04557234 449.2030297 -34.05013805 443.86473142 -34.0549016 438.52643323 C-34.0801617 410.1474569 -34.10221167 381.76848 -34.11462975 353.3894949 C-34.11755112 346.8132928 -34.12051863 340.23709073 -34.12353516 333.66088867 C-34.12390607 332.84387113 -34.12427697 332.02685358 -34.12465912 331.18507793 C-34.13681437 304.69600075 -34.16775753 278.20699002 -34.20945668 251.71794405 C-34.25224133 224.48970947 -34.2788704 197.26150997 -34.28410446 170.03324086 C-34.28484491 166.18764274 -34.2857556 162.34204467 -34.28676224 158.49644661 C-34.28695285 157.73959388 -34.28714347 156.98274115 -34.28733986 156.20295348 C-34.29085376 144.02145186 -34.3111532 131.84003344 -34.33755887 119.65856238 C-34.36370159 107.41374371 -34.37143176 95.16902118 -34.36045758 82.92417859 C-34.35500647 76.29009374 -34.35821521 69.65621772 -34.38292313 63.02215576 C-34.40535299 56.94913167 -34.40472393 50.87656327 -34.38571925 44.80353153 C-34.3829105 42.60627798 -34.38856609 40.40899393 -34.40353219 38.21178954 C-34.54719475 15.74713473 -34.54719475 15.74713473 -27.04729688 7.59174436 C-19.37518641 0.04472489 -10.17140855 0.00162383 0 0 Z " fill="#8B5CF6" transform="translate(909.7734375,-0.46875)"/>
<path d="M0 0 C0.88315887 -0.00376648 1.76631775 -0.00753296 2.67623901 -0.01141357 C19.29978111 -0.047343 35.7621072 0.84601213 51.9375 4.9375 C52.9805127 5.19619873 54.02352539 5.45489746 55.09814453 5.72143555 C83.65140551 13.03522137 108.88450954 25.03244443 132.6875 42.3125 C132.71328125 41.3946875 132.7390625 40.476875 132.765625 39.53125 C133.26711452 28.68084029 135.03370372 22.58186619 142.61328125 14.85546875 C149.84986921 9.47231952 157.06892146 9.84509198 165.80078125 9.84375 C167.17929895 9.83663563 168.55781374 9.8289348 169.93632507 9.82067871 C172.81855507 9.80727619 175.70051136 9.80564526 178.58276367 9.81152344 C182.25114804 9.81740779 185.91820352 9.78686334 189.58633137 9.74640656 C192.43223471 9.72037589 195.27782485 9.717666 198.1238308 9.72129822 C200.12554084 9.71881239 202.1271849 9.69422384 204.1287384 9.66906738 C211.97574246 9.72805133 218.21589817 10.6217441 224.6875 15.3125 C230.40690607 21.3657053 232.93434157 26.91237548 232.94756222 35.30292797 C232.95136789 35.99793444 232.95517356 36.69294091 232.95909455 37.40900818 C232.96942004 39.74330314 232.96550244 42.07735537 232.96165466 44.41166687 C232.96610656 46.10002579 232.97142044 47.78838261 232.97752339 49.47673637 C232.99171979 54.12079481 232.99336637 58.76478639 232.99292648 63.40886343 C232.99457325 68.41584433 233.00763717 73.42279757 233.01911926 78.42976379 C233.04197956 89.38020275 233.04989102 100.33062233 233.05494571 111.28108191 C233.0582016 118.11809881 233.06472344 124.95511008 233.0719471 131.79212379 C233.09151455 150.72045428 233.10791785 169.64877953 233.11082363 188.57712078 C233.1110112 189.78865017 233.11119877 191.00017956 233.11139202 192.24842196 C233.11175828 194.70451184 233.11212197 197.16060173 233.11248314 199.61669161 C233.11266595 200.83590555 233.11284876 202.05511948 233.11303711 203.3112793 C233.11330793 205.14233146 233.11330793 205.14233146 233.11358423 207.01037458 C233.117126 226.79092088 233.14414797 246.57135832 233.181535 266.35186686 C233.21960923 286.65840212 233.23898104 306.96488336 233.23928314 327.27145511 C233.23986792 338.67359028 233.24837304 350.0755956 233.27728081 361.47769737 C233.30178284 371.18673867 233.3090855 380.89560277 233.29403328 390.60466661 C233.28685956 395.55784665 233.28774193 400.5106767 233.31044388 405.4638176 C233.33103984 410.00097007 233.32842773 414.53750362 233.30756903 419.07464943 C233.30407532 420.71329888 233.30897917 422.35199304 233.32327347 423.99058386 C233.40401338 433.88621236 232.97149738 442.50378448 225.96138567 450.21002311 C218.33510201 457.61320436 209.38862735 457.77030971 199.31640625 457.74609375 C197.40105324 457.75395653 197.40105324 457.75395653 195.44700623 457.76197815 C192.75463703 457.76838339 190.06312118 457.76853317 187.37084961 457.75854492 C183.94355069 457.74706029 180.51728297 457.76727768 177.09011936 457.79646206 C173.79054445 457.81936043 170.49104189 457.81235139 167.19140625 457.80859375 C165.97240128 457.81982773 164.7533963 457.83106171 163.49745178 457.84263611 C154.66125459 457.77085099 148.78349989 455.99065377 141.4375 451.1875 C133.5251007 442.91544619 132.84804941 434.25905047 132.6875 423.3125 C131.74132813 423.99054688 130.79515625 424.66859375 129.8203125 425.3671875 C103.6364605 443.89172623 72.74164472 458.90320866 40.6875 463.3125 C39.83091797 463.44350098 38.97433594 463.57450195 38.09179688 463.70947266 C-22.86995886 472.89083242 -87.78352578 460.7337432 -138.3125 424.3125 C-138.99054688 423.83071289 -139.66859375 423.34892578 -140.3671875 422.85253906 C-149.60231154 416.25663495 -158.16648996 409.22416273 -166.3125 401.3125 C-166.93656738 400.71421387 -167.56063477 400.11592773 -168.20361328 399.49951172 C-197.46693358 371.36850853 -217.46180596 337.05163122 -229.3125 298.3125 C-229.86550781 296.52199219 -229.86550781 296.52199219 -230.4296875 294.6953125 C-236.10845895 274.92966612 -238.53763227 254.3866805 -238.5 233.875 C-238.49873108 233.16330658 -238.49746216 232.45161316 -238.49615479 231.71835327 C-238.2894814 170.80692364 -215.08613024 115.30565405 -173.3125 71.3125 C-172.80702637 70.77834473 -172.30155273 70.24418945 -171.78076172 69.69384766 C-144.70217723 41.28117637 -108.07293433 19.76325751 -70.3125 9.3125 C-69.34135254 9.04356934 -68.37020508 8.77463867 -67.36962891 8.49755859 C-44.89149993 2.421132 -23.22269022 0.0546026 0 0 Z " fill="#8B5CF6" transform="translate(1623.3125,130.6875)"/>
<path d="M0 0 C3.47098877 2.80172843 6.7499959 5.79899991 9.99267578 8.86181641 C10.84990234 9.66103516 11.70712891 10.46025391 12.59033203 11.28369141 C13.07961182 11.83492676 13.5688916 12.38616211 14.07299805 12.95410156 C16.55480973 15.51818528 18.32866144 17.18028638 21.97338867 17.47900391 C24.90596494 17.18528735 27.75557704 16.69948524 30.65283203 16.15869141 C42.21915677 14.41399366 53.47571047 13.94501629 65.15283203 13.97119141 C65.94368195 13.96851257 66.73453186 13.96583374 67.54934692 13.96307373 C131.13113918 13.79971135 188.93310907 42.17465591 233.59033203 86.28369141 C267.04357704 120.0753363 288.49032146 164.7377973 296.59033203 211.28369141 C296.77273438 212.28875732 296.95513672 213.29382324 297.14306641 214.3293457 C298.68946312 223.74324205 298.89769305 232.97395305 298.85107422 242.49584961 C298.84038953 245.08227204 298.85101293 247.66799351 298.86376953 250.25439453 C298.90664572 300.99413998 280.30857232 350.84246173 248.59033203 390.28369141 C248.1663916 390.821875 247.74245117 391.36005859 247.30566406 391.91455078 C235.01252249 407.4681523 220.62633634 421.63489583 204.59033203 433.28369141 C203.46470409 434.1266035 202.33970995 434.9703626 201.21533203 435.81494141 C153.18571839 471.46684908 92.71865459 486.68493569 33.59033203 478.28369141 C32.22231445 478.09033203 32.22231445 478.09033203 30.82666016 477.89306641 C-30.17374113 468.94799738 -85.36247162 434.13498622 -122.10107422 384.88525391 C-127.63898462 377.29403418 -132.60892111 369.35628485 -137.40966797 361.28369141 C-137.97161865 360.34589844 -137.97161865 360.34589844 -138.54492188 359.38916016 C-158.36066196 325.83909435 -166.62651051 287.18562512 -166.65966797 248.59619141 C-166.66067505 247.78065796 -166.66168213 246.96512451 -166.66271973 246.12487793 C-166.65124495 232.33152579 -165.88007578 218.88179331 -163.40966797 205.28369141 C-163.21679199 204.19096924 -163.21679199 204.19096924 -163.02001953 203.07617188 C-157.34586708 172.35922699 -144.26269986 140.61811336 -125.47216797 115.59619141 C-123.03104896 112.07113189 -123.03104896 112.07113189 -122.38232422 107.97509766 C-123.14672844 105.26077609 -124.2292149 102.84596896 -125.40966797 100.28369141 C-136.52142441 71.75519312 -142.4863597 36.2092025 -130.74951172 6.89697266 C-124.93837764 -6.25300438 -115.51684716 -17.3923596 -102.40966797 -23.71630859 C-67.15781812 -37.17310374 -28.42062778 -22.06148043 0 0 Z " fill="#8B5CF6" transform="translate(545.40966796875,116.71630859375)"/>
<path d="M0 0 C83.49 0 166.98 0 253 0 C251 2 251 2 247.6875 3.75 C241.444442 7.26739858 238.43461539 12.40111819 236 19 C235.55674211 22.49309248 235.55674211 22.49309248 235.62082577 26.16732502 C235.61627505 26.85717728 235.61172434 27.54702955 235.60703573 28.25778642 C235.59545184 30.56270498 235.60512595 32.86703099 235.61473083 35.17195129 C235.61072253 36.84396152 235.60539548 38.51596902 235.59886509 40.18797129 C235.5847145 44.77790137 235.58914522 49.36765439 235.59657824 53.95759332 C235.60131696 58.91016241 235.58875531 63.86269068 235.57821655 68.81524658 C235.56223525 77.39840092 235.5569663 85.98150805 235.55874443 94.56467628 C235.56112907 106.99408331 235.54513058 119.42341502 235.52429188 131.85280236 C235.49075414 152.044685 235.46910197 172.23656091 235.45629883 192.4284668 C235.45514459 194.24121697 235.45514459 194.24121697 235.45396704 196.09058835 C235.45086521 200.98629203 235.44778238 205.88199572 235.444727 210.77769943 C235.43620852 224.23095168 235.4253044 237.68420158 235.41333008 251.13745117 C235.41226206 252.34114205 235.41119404 253.54483293 235.41009366 254.78499929 C235.39197179 274.88823891 235.36595992 294.99146261 235.33519894 315.09468669 C235.31668778 327.48407256 235.30573183 339.87342257 235.30467702 352.26282247 C235.30356958 360.76345082 235.2955801 369.26405464 235.28229337 377.76467261 C235.27490904 382.66203695 235.27075078 387.55934763 235.27541161 392.45671654 C235.27964861 396.95209632 235.27456377 401.44737153 235.26250375 405.94273623 C235.25976702 407.55723548 235.26029774 409.17174483 235.26468485 410.78624044 C235.33141543 437.53307634 233.02032475 468.95930699 213.1953125 489.01953125 C201.61969739 499.46230146 187.80858932 500.37583581 172.8125 500.4375 C171.54196777 500.4475708 170.27143555 500.4576416 168.96240234 500.46801758 C149.65293841 500.29101625 134.07094859 493.47114991 120.11328125 480.20703125 C109.45462393 468.973525 103.68345281 454.5245249 101.5625 439.4375 C100.34449601 430.84705836 98.72271812 423.10229409 92.0625 417 C86.96922512 413.67377967 82.49719688 412.75015815 76.46313477 412.7253418 C74.54568199 412.71104378 74.54568199 412.71104378 72.5894928 412.69645691 C71.206797 412.69671836 69.82410119 412.69765554 68.44140625 412.69921875 C67.00943376 412.69532688 65.57746242 412.69099121 64.14549255 412.68623352 C61.15058645 412.67879126 58.15579828 412.67904814 55.16088867 412.68432617 C51.33670077 412.69011978 47.51299736 412.67318321 43.6888895 412.6499815 C40.73334465 412.63519874 37.77791529 412.63437857 34.82234001 412.63749123 C33.41303485 412.63698034 32.00372282 412.63178665 30.59445381 412.62167931 C21.37590514 412.56366835 15.48110065 412.92473485 7.8125 418.1875 C4.51353455 421.48646545 2.79533732 424.74399448 1 429 C0.67 429 0.34 429 0 429 C0 287.43 0 145.86 0 0 Z " fill="#FEFEFE" transform="translate(0,0)"/>
<path d="M0 0 C1.271922 -0.0127597 2.54384399 -0.02551941 3.85430908 -0.03866577 C5.23587898 -0.04172427 6.61745093 -0.04395158 7.99902344 -0.04541016 C9.42763399 -0.05184423 10.85624323 -0.05857304 12.28485107 -0.06558228 C15.27733409 -0.07753987 18.26970182 -0.08126484 21.26220703 -0.08007812 C25.07625799 -0.07987538 28.88956006 -0.10713668 32.70343399 -0.14162254 C35.65477822 -0.16398587 38.60594518 -0.16791276 41.55736542 -0.16685867 C42.96224286 -0.16920204 44.36712614 -0.17795354 45.77191925 -0.19352341 C55.4206698 -0.29042587 62.88400933 0.30104321 70.42089844 6.66552734 C75.60690235 12.88873204 77.73120078 17.09058833 77.74261951 25.17757511 C77.74497174 25.88574083 77.74732397 26.59390655 77.74974748 27.32353184 C77.75644497 29.71473163 77.75597903 32.10587717 77.75556946 34.49708557 C77.75886771 36.22181132 77.7625932 37.94653631 77.76671094 39.6712603 C77.77674517 44.42575159 77.78045009 49.18023026 77.78310025 53.93473065 C77.78699961 59.05792792 77.79657884 64.18111515 77.80531311 69.30430603 C77.82509776 81.69187572 77.83515058 94.07944626 77.8440409 106.46702781 C77.84842437 112.30587388 77.85379138 118.14471903 77.85902977 123.98356438 C77.87605125 143.40761025 77.89054075 162.83165555 77.89777851 182.25570774 C77.89968834 187.2992967 77.90160867 192.34288566 77.90356445 197.38647461 C77.90404819 198.63999747 77.90453193 199.89352033 77.90503033 201.18502872 C77.91331289 221.44632869 77.93861559 241.70756926 77.97114513 261.96884335 C78.00430045 282.79067355 78.02223529 303.61247369 78.02542275 324.4343304 C78.02758105 336.11644506 78.03622848 347.79847338 78.06188393 359.48056221 C78.08370768 369.44096451 78.09158477 379.40125952 78.08191714 389.36168302 C78.07740474 394.43425123 78.07907749 399.50659867 78.09867859 404.57913589 C78.19400412 430.690689 77.66668312 456.15825332 69.60839844 481.29052734 C69.36750488 482.04994629 69.12661133 482.80936523 68.87841797 483.59179688 C65.09624691 495.37373452 60.58518146 506.45498118 54.60839844 517.29052734 C54.27114746 517.91233887 53.93389648 518.53415039 53.58642578 519.17480469 C33.41681001 555.98172098 0.10065338 579.2711454 -39.39160156 591.29052734 C-40.85919922 591.75265625 -40.85919922 591.75265625 -42.35644531 592.22412109 C-87.23414516 604.94276437 -138.1453503 597.57175255 -178.70410156 575.47802734 C-216.03018916 553.16207462 -243.27577273 517.38584398 -254.19677734 475.17871094 C-256.80480998 464.2530784 -258.65622718 453.50320674 -259.39160156 442.29052734 C-259.48183594 441.06978516 -259.57207031 439.84904297 -259.66503906 438.59130859 C-259.95114518 430.17318631 -258.4780322 424.70007111 -252.71191406 418.47802734 C-247.38478251 413.55339018 -242.13909442 412.04962183 -234.88647461 412 C-233.61462814 411.9872403 -232.34278168 411.97448059 -231.03239441 411.96133423 C-229.65603794 411.95827596 -228.27967941 411.95604853 -226.90332031 411.95458984 C-225.47613901 411.94815379 -224.04895901 411.94142484 -222.6217804 411.93441772 C-219.63527369 411.9224719 -216.64888241 411.91873405 -213.66235352 411.91992188 C-209.85617827 411.9201248 -206.05075194 411.89283945 -202.24475384 411.85837746 C-199.29770076 411.83601703 -196.35082524 411.83208712 -193.40369606 411.83314133 C-192.00160965 411.83079845 -190.59951736 411.82204981 -189.19751549 411.80647659 C-180.44083319 411.71832022 -172.30566798 411.77360371 -165.55131531 417.98208618 C-159.65939704 424.20504005 -158.07093941 431.05995428 -157.07910156 439.29052734 C-155.18654543 452.72089816 -150.47420641 464.28295415 -142.39160156 475.29052734 C-141.82054687 476.06912109 -141.24949219 476.84771484 -140.66113281 477.64990234 C-133.17725511 486.90501763 -121.77842047 493.95569267 -110.39160156 497.29052734 C-109.80411133 497.46422852 -109.21662109 497.63792969 -108.61132812 497.81689453 C-101.39594616 499.70048191 -94.18615763 499.67613725 -86.76660156 499.66552734 C-86.09963257 499.66465118 -85.43266357 499.66377502 -84.7454834 499.66287231 C-69.02370026 499.59458865 -56.62483892 497.66906994 -44.66113281 486.70458984 C-26.17022551 467.21545875 -25.05532037 434.04623166 -25.14677429 408.74194336 C-25.14534737 407.05474059 -25.14302953 405.36753839 -25.13991195 403.68033791 C-25.13388071 399.09984026 -25.1399962 394.51943095 -25.14822257 389.93893981 C-25.15486767 384.97787025 -25.14978989 380.01681097 -25.14599609 375.05574036 C-25.140796 366.47658527 -25.14224629 357.89745284 -25.14777184 349.31829834 C-25.15601841 335.75449799 -25.14472509 322.19074589 -25.13056946 308.62695312 C-25.12596964 303.97808849 -25.12151912 299.32922373 -25.11713123 294.68035889 C-25.11603309 293.51895921 -25.11493495 292.35755953 -25.11380353 291.16096592 C-25.10165452 277.97157031 -25.09408387 264.78217317 -25.08813477 251.59277344 C-25.08758671 250.38839536 -25.08703865 249.18401728 -25.08647398 247.94314289 C-25.07800076 228.39302907 -25.08136131 208.84292899 -25.08728912 189.29281509 C-25.0929056 169.19376624 -25.07938248 149.09478668 -25.04973632 128.99575901 C-25.03220379 116.6109338 -25.03055191 104.22630899 -25.04938147 91.84148473 C-25.06098301 83.36200499 -25.05454647 74.88266067 -25.03391226 66.40319854 C-25.02259095 61.51271985 -25.01941981 56.62259015 -25.03808784 51.73212624 C-25.05502852 47.25283797 -25.04887072 42.77418886 -25.02458928 38.29493988 C-25.01987162 36.67754679 -25.02354614 35.06010204 -25.03661474 33.44275486 C-25.11441557 23.09682465 -24.21035736 14.98542056 -17.32910156 6.85302734 C-16.37003906 6.07958984 -16.37003906 6.07958984 -15.39160156 5.29052734 C-14.43253906 4.48615234 -14.43253906 4.48615234 -13.45410156 3.66552734 C-9.04408552 0.72551665 -5.2598743 0.03591605 0 0 Z " fill="#8B5CF6" transform="translate(259.3916015625,-0.29052734375)"/>
<path d="M0 0 C3.38916436 2.94253029 6.71013338 5.94709195 10 9 C10.59425781 9.52851563 11.18851563 10.05703125 11.80078125 10.6015625 C35.00495244 32.19971707 47.81375355 66.8921627 49.22241211 98.06469727 C49.36284315 102.39738018 49.38718063 106.72784357 49.375 111.0625 C49.37412384 111.82868652 49.37324768 112.59487305 49.37234497 113.38427734 C49.2331297 150.41842846 35.48610502 184.05359046 9.43261719 210.5859375 C-7.9802975 227.77332705 -30.48185237 238.87875704 -54 245 C-55.77310547 245.47953125 -55.77310547 245.47953125 -57.58203125 245.96875 C-67.73106824 248.22641425 -77.89847397 248.28735673 -88.25 248.3125 C-88.97902527 248.31617584 -89.70805054 248.31985168 -90.45916748 248.32363892 C-99.79572423 248.3481791 -108.8042309 247.76060024 -118 246 C-118.7317041 245.864729 -119.4634082 245.72945801 -120.21728516 245.59008789 C-141.12325402 241.46048096 -160.97641636 230.92301301 -177 217 C-178.22783203 215.95392578 -178.22783203 215.95392578 -179.48046875 214.88671875 C-196.29987458 200.20559397 -208.35371996 182.49603793 -217 162 C-217.35835937 161.18144531 -217.71671875 160.36289062 -218.0859375 159.51953125 C-231.85422569 126.96218812 -229.84840015 87.65722422 -216.75 55.3125 C-209.34559856 37.77984044 -199.06013217 22.8352839 -186 9 C-185.36578125 8.31292969 -184.7315625 7.62585938 -184.078125 6.91796875 C-137.2424136 -42.14340663 -50.84974555 -43.61235108 0 0 Z " fill="#FEFEFE" transform="translate(1199,255)"/>
<path d="M0 0 C1.18384277 0.38792725 2.36768555 0.77585449 3.58740234 1.17553711 C4.70066895 1.55202393 5.81393555 1.92851074 6.9609375 2.31640625 C7.95657715 2.6522876 8.9522168 2.98816895 9.97802734 3.33422852 C12.56875249 4.41405576 14.47475597 5.65115814 16.625 7.4375 C16.10292969 7.63794922 15.58085938 7.83839844 15.04296875 8.04492188 C3.24002138 12.6028026 -8.19441825 17.51182096 -19.375 23.4375 C-20.01711426 23.77765137 -20.65922852 24.11780273 -21.32080078 24.46826172 C-25.01857439 26.43436766 -28.70221123 28.425013 -32.375 30.4375 C-33.32707281 60.48491803 -12.18143878 95.23505101 2.625 120.4375 C5.83521117 120.4375 7.79096076 118.0144909 10.1875 116.0625 C37.7653024 94.32222052 71.41205178 85.18760745 106.29296875 88.8671875 C141.29286564 93.46391261 174.03750014 113.00088991 195.75 140.625 C201.18626716 147.76558724 205.49846115 155.48712628 209.625 163.4375 C209.95129395 164.05351074 210.27758789 164.66952148 210.61376953 165.30419922 C220.45521231 184.07406523 224.05963185 204.81138904 224 225.875 C223.99978851 226.57004639 223.99957703 227.26509277 223.99935913 227.98120117 C223.96174052 240.44847178 222.73163293 252.34038285 219.625 264.4375 C219.43776367 265.16807617 219.25052734 265.89865234 219.05761719 266.65136719 C213.54027559 287.35807408 203.78996494 306.34532895 189.625 322.4375 C188.48804688 323.79101562 188.48804688 323.79101562 187.328125 325.171875 C171.73129282 343.21526909 150.5763304 355.41770116 128.0625 362.75 C127.33208496 362.99250488 126.60166992 363.23500977 125.84912109 363.48486328 C113.86303104 367.20178579 101.59346824 367.78095449 89.125 367.75 C87.82691406 367.76611328 86.52882813 367.78222656 85.19140625 367.79882812 C76.30022752 367.80326927 68.23214717 366.61174109 59.625 364.4375 C58.48087646 364.16824707 57.33675293 363.89899414 56.15795898 363.62158203 C40.05968043 359.73889918 24.6453926 351.5466114 11.625 341.4375 C10.67496094 340.70789063 9.72492188 339.97828125 8.74609375 339.2265625 C-20.56541767 315.98934204 -38.01013799 283.27030132 -43.375 246.4375 C-43.56546514 242.00494401 -43.56081105 237.57301072 -43.56030273 233.13696289 C-43.5624619 231.03705717 -43.58057188 228.93770175 -43.59960938 226.83789062 C-43.65113224 214.72012198 -42.60113819 202.85755726 -39.375 191.125 C-38.88 189.27455078 -38.88 189.27455078 -38.375 187.38671875 C-37.375 184.4375 -37.375 184.4375 -35.375 182.4375 C-34.81103516 183.00670166 -34.24707031 183.57590332 -33.66601562 184.16235352 C-31.07173231 186.77761844 -28.47340077 189.38882619 -25.875 192 C-24.988125 192.89525391 -24.10125 193.79050781 -23.1875 194.71289062 C-18.08262714 199.8365314 -12.90897814 204.78015595 -7.375 209.4375 C-6.7660791 209.95304443 -6.1571582 210.46858887 -5.52978516 210.99975586 C16.9536784 229.87332467 41.87325336 247.29743873 69.625 257.4375 C68.86316406 256.62667969 68.10132813 255.81585938 67.31640625 254.98046875 C61.64741151 248.91379551 56.16200729 242.78255421 50.9609375 236.3046875 C48.28624443 233.02170303 45.52265875 229.82510296 42.75 226.625 C37.37782168 220.39239412 32.23186277 214.01591427 27.21191406 207.49707031 C26.07605188 206.02289594 24.93701588 204.55116487 23.79589844 203.08105469 C14.28614761 190.82309485 5.18805606 178.37549418 -3.375 165.4375 C-3.86339355 164.70015625 -4.35178711 163.9628125 -4.85498047 163.203125 C-11.29540642 153.44188822 -17.50983149 143.5554897 -23.375 133.4375 C-23.75446777 132.78297852 -24.13393555 132.12845703 -24.52490234 131.45410156 C-73.72811943 45.97757724 -73.72811943 45.97757724 -65.71875 7.265625 C-63.79384907 1.1258548 -61.0582233 -3.33901169 -55.375 -6.5625 C-37.98664083 -13.72095556 -16.65868203 -5.46423312 0 0 Z " fill="#FEFEFE" transform="translate(521.375,135.5625)"/>
<path d="M0 0 C2.501372 2.20686796 4.9412825 4.46455882 7.3671875 6.75390625 C8.10453125 7.42679687 8.841875 8.0996875 9.6015625 8.79296875 C32.28943737 30.27404177 47.87446309 63.86363741 49.54418945 95.06103516 C49.61180007 98.83376145 49.66596198 102.60562659 49.6796875 106.37890625 C49.68230591 107.06587585 49.68492432 107.75284546 49.68762207 108.46063232 C49.69255631 120.58371414 48.4404246 132.00809748 45.3671875 143.75390625 C45.06683594 144.94371094 44.76648437 146.13351562 44.45703125 147.359375 C35.06745625 180.73098138 12.34912219 211.17526827 -17.6328125 228.75390625 C-40.44606041 241.24864057 -62.4451415 246.99593191 -88.3828125 247.06640625 C-89.66091797 247.07196533 -90.93902344 247.07752441 -92.25585938 247.08325195 C-104.74277457 246.98935934 -116.949835 245.68281084 -128.9453125 242.12890625 C-129.82775635 241.87020752 -130.7102002 241.61150879 -131.61938477 241.3449707 C-164.70768293 231.27229852 -193.15842794 209.18346068 -209.87890625 178.74609375 C-226.45438089 147.35285861 -231.84420309 109.54483085 -223.1796875 74.9453125 C-222.67135633 72.9083569 -222.20878829 70.8666758 -221.7578125 68.81640625 C-216.52913948 46.78128423 -204.87416125 27.29561891 -189.6328125 10.75390625 C-188.77042969 9.80902344 -187.90804688 8.86414063 -187.01953125 7.890625 C-170.74337295 -9.15714377 -150.07541107 -20.46194596 -127.6328125 -27.24609375 C-126.60027344 -27.56191406 -125.56773438 -27.87773437 -124.50390625 -28.203125 C-81.3149453 -40.13150469 -33.83525965 -28.86539213 0 0 Z " fill="#FEFEFE" transform="translate(1710.6328125,256.24609375)"/>
<path d="M0 0 C0.79076935 -0.00029205 1.5815387 -0.00058411 2.39627075 -0.00088501 C4.99891292 0.00050358 7.60126553 0.01604249 10.20385742 0.03173828 C12.01274967 0.03547009 13.82164395 0.03831627 15.63053894 0.04031372 C20.38330704 0.04793698 25.13595222 0.06757425 29.88867188 0.08972168 C34.74176369 0.11020827 39.59487543 0.11932145 44.44799805 0.12939453 C53.96432799 0.15082136 63.48056684 0.18494154 72.99682617 0.22705078 C73.08241671 54.33259262 73.16201997 108.43814061 73.20854187 162.54373169 C73.20923216 163.34449178 73.20992244 164.14525187 73.21063364 164.97027742 C73.22559813 182.3728872 73.23944905 199.7754977 73.25215282 217.17810928 C73.25838951 225.71232692 73.26487228 234.24654436 73.27148438 242.78076172 C73.27213817 243.63001962 73.27279197 244.47927752 73.27346557 245.35427051 C73.29477289 272.88192975 73.33232986 300.40953767 73.37831228 327.93716582 C73.42547876 356.22502113 73.45625421 384.51284804 73.46640112 412.800742 C73.4678419 416.79606689 73.46947008 420.79139169 73.47121239 424.78671646 C73.4715495 425.57305485 73.47188662 426.35939325 73.47223395 427.16956008 C73.47814289 439.82823425 73.50133411 452.48682063 73.53098634 465.14545901 C73.56042703 477.87120681 73.57166496 490.59686755 73.56433306 503.32264821 C73.56086456 510.21798848 73.56544202 517.11309351 73.59285355 524.00838661 C73.61716047 530.32022284 73.61842971 536.63162765 73.60132065 542.94348361 C73.59920565 545.22763894 73.6055694 547.51182104 73.62124208 549.79592358 C73.64131176 552.90123873 73.63049227 556.00499715 73.61206532 559.11028862 C73.62520038 559.99689104 73.63833545 560.88349346 73.65186855 561.79696262 C73.55327503 569.15069636 71.23620704 575.6174743 66.27071382 581.1504228 C58.57604697 588.49459895 49.73140067 588.68494091 39.62573242 588.66064453 C37.71037941 588.66850731 37.71037941 588.66850731 35.7563324 588.67652893 C33.0639632 588.68293417 30.37244736 588.68308395 27.68017578 588.6730957 C24.25287686 588.66161107 20.82660914 588.68182846 17.39944553 588.71101284 C14.09987062 588.73391121 10.80036806 588.72690217 7.50073242 588.72314453 C6.28172745 588.73437851 5.06272247 588.74561249 3.80677795 588.75718689 C-5.02941924 588.68540177 -10.90717394 586.90520455 -18.25317383 582.10205078 C-27.91789202 571.99802722 -26.71044539 560.34727038 -26.63809204 547.21166992 C-26.6438555 544.94151974 -26.65179812 542.67137422 -26.66172826 540.40123844 C-26.68259359 534.17214524 -26.67228745 527.94343524 -26.65679717 521.71434069 C-26.64664862 515.68362002 -26.65997233 509.65297935 -26.672534 503.62227449 C-26.69884232 490.5289205 -26.69658893 477.4356886 -26.68213944 464.34232304 C-26.66955663 452.88405555 -26.66628048 441.42583279 -26.67225266 429.96755981 C-26.67263458 429.20720773 -26.67301651 428.44685564 -26.67341 427.66346259 C-26.67496672 424.5768671 -26.67655873 421.49027163 -26.67820882 418.40367619 C-26.69350036 389.45500466 -26.67964203 360.50641084 -26.65272434 331.55775131 C-26.62899667 305.84428607 -26.63111983 280.13094463 -26.6550293 254.41748047 C-26.68180833 225.52142023 -26.69241585 196.62542864 -26.67696798 167.72935772 C-26.67536442 164.64841908 -26.67380021 161.56748042 -26.67225266 158.48654175 C-26.67185727 157.72794822 -26.67146188 156.96935469 -26.67105451 156.18777347 C-26.66536957 144.73731557 -26.67201401 133.28690732 -26.68465042 121.8364563 C-26.69894852 108.81543379 -26.69536882 95.79455235 -26.6682467 82.77354741 C-26.65486322 76.12930405 -26.64996978 69.48525659 -26.66649246 62.8409996 C-26.68138833 56.75897593 -26.67320881 50.67743667 -26.6466047 44.59545696 C-26.64101833 42.39505901 -26.64386358 40.19462017 -26.65598364 37.99424851 C-26.76763979 16.03960146 -26.76763979 16.03960146 -18.94067383 6.78955078 C-17.98161133 6.01611328 -17.98161133 6.01611328 -17.00317383 5.22705078 C-16.36379883 4.69080078 -15.72442383 4.15455078 -15.06567383 3.60205078 C-10.17919884 0.34440079 -5.756936 -0.05598279 0 0 Z " fill="#8B5CF6" transform="translate(1927.003173828125,-0.22705078125)"/>
<path d="M0 0 C5.94 0 11.88 0 18 0 C18 5.94 18 11.88 18 18 C16.92968847 16.39453271 15.87324528 14.77634221 14.921875 13.09765625 C11.23541304 6.69550065 7.02506995 3.47943645 0 1 C0 0.67 0 0.34 0 0 Z " fill="#FBFAFD" transform="translate(1982,0)"/>
</svg>
