<?xml version="1.0" encoding="UTF-8"?>
<svg version="1.1" xmlns="http://www.w3.org/2000/svg" width="1479" height="727">
<path d="M0 0 C1.11749634 -0.0071553 2.23499268 -0.01431061 3.38635254 -0.02168274 C4.61809708 -0.02437164 5.84984161 -0.02706055 7.11891174 -0.02983093 C8.4116098 -0.03640213 9.70430786 -0.04297333 11.03617859 -0.04974365 C14.587795 -0.06715577 18.13939796 -0.07770534 21.69104648 -0.08594918 C23.90857665 -0.09109746 26.12610262 -0.09717318 28.34362984 -0.10346031 C35.2778522 -0.12251048 42.21206391 -0.13674363 49.14630741 -0.14507228 C57.15848356 -0.15485398 65.17038412 -0.18119822 73.18246311 -0.22157317 C79.37103656 -0.2516924 85.55953081 -0.26653703 91.74817616 -0.26985329 C95.44669728 -0.27220803 99.14492392 -0.28122314 102.84336662 -0.30631447 C106.96664286 -0.33383668 111.08929964 -0.32977701 115.21266174 -0.32279968 C117.0572422 -0.34201477 117.0572422 -0.34201477 118.93908691 -0.36161804 C120.61956116 -0.35120232 120.61956116 -0.35120232 122.33398438 -0.34057617 C123.79712145 -0.3441587 123.79712145 -0.3441587 125.28981686 -0.34781361 C127.73048401 0.14717102 127.73048401 0.14717102 129.54479694 1.65538597 C131.24501912 5.2284942 131.13720928 8.62827051 131.09797668 12.503479 C131.10287995 13.78026696 131.10287995 13.78026696 131.10788226 15.08284861 C131.11517715 17.94162776 131.10099047 20.79989759 131.08692932 23.65864563 C131.08772019 25.70755094 131.08981743 27.7564561 131.09312439 29.80535889 C131.09827173 35.38601183 131.08468291 40.96648117 131.06759739 46.5471046 C131.05253029 52.41814767 131.05373413 58.28918863 131.05293274 64.1602478 C131.04923359 74.0559042 131.03425689 83.95149155 131.01173401 93.84712219 C130.98313768 106.43447486 130.9725341 119.02177115 130.96805191 131.60915279 C130.96401981 142.52708131 130.95150685 153.44499822 130.93770504 164.36291814 C130.93366157 167.81710931 130.93070763 171.2713001 130.92790985 174.72549248 C130.90752512 196.18060455 130.84857673 217.63012547 130.29200745 239.07905579 C130.27351573 239.83165487 130.255024 240.58425396 130.23597193 241.35965908 C129.93736982 253.11632613 129.17770409 264.62627125 126.73048401 276.14717102 C126.53857483 277.05499329 126.34666565 277.96281555 126.14894104 278.89814758 C117.81788814 316.80861344 96.39001379 354.56858423 63.46876526 376.46357727 C40.49758744 390.58708318 14.31142366 396.94559857 -12.58201599 390.58467102 C-26.67790789 386.85129388 -39.67967144 379.73154345 -47.70701599 367.20967102 C-52.1281724 358.99358431 -53.53157986 351.85529344 -53.64451599 342.58467102 C-53.65853455 341.79326721 -53.6725531 341.0018634 -53.68699646 340.18647766 C-53.61071227 330.74973214 -50.95314668 323.94730064 -44.46092224 317.09638977 C-36.75587072 310.24287692 -28.08845236 309.67591906 -18.19139099 309.88154602 C-9.95872127 310.4391372 -5.80661558 314.03416274 -0.49900818 320.0995636 C4.24590413 326.58562802 7.42568192 334.03308096 10.85548401 341.27217102 C12.01666368 343.71118076 13.18228712 346.14761911 14.36082458 348.57829285 C15.08815738 350.07924236 15.80581535 351.5849373 16.51152039 353.09617615 C19.46783733 359.21207632 22.85198159 364.76122541 29.10548401 367.77217102 C33.78844835 368.25661561 36.7364976 367.63458495 40.73048401 365.14717102 C51.88101751 355.42105697 52.2791209 341.42301653 53.31752396 327.58110905 C54.58302764 308.30069735 54.09115845 288.87755266 54.0058642 269.56837922 C53.98487303 264.77737833 53.97024157 259.98639305 53.9596405 255.19535828 C53.95809831 254.50446969 53.95655612 253.81358111 53.9549672 253.10175651 C53.95183254 251.69423652 53.94870139 250.28671653 53.94557369 248.87919652 C53.91491682 235.51252306 53.86317152 222.14598934 53.80246246 208.77942216 C53.74700492 196.55046501 53.70400878 184.32151108 53.66749573 172.09248352 C53.62190641 156.95157191 53.56320632 141.81076684 53.48834419 126.66997051 C53.48022743 125.02682179 53.47211419 123.38367305 53.46400452 121.74052429 C53.4599963 120.93103948 53.45598808 120.12155467 53.4518584 119.28754002 C53.42430174 113.60018889 53.40343396 107.91283633 53.38514709 102.22544861 C53.36253236 95.26765802 53.32905226 88.31001561 53.28218371 81.35234463 C53.25842283 77.78937 53.2392141 74.22653441 53.23280144 70.66348267 C53.22560321 66.77352354 53.19523935 62.8839298 53.16285706 58.99409485 C53.1642934 57.87643392 53.16572975 56.75877298 53.16720963 55.60724354 C53.03998415 44.84155881 51.95867041 33.73369143 44.30470276 25.63935852 C32.84068355 14.74990829 18.09326057 13.76175177 3.16212463 13.02412415 C1.98198792 12.95258118 0.8018512 12.88103821 -0.41404724 12.80732727 C-1.49017273 12.75197815 -2.56629822 12.69662903 -3.67503357 12.63960266 C-4.53121277 12.47710022 -5.38739197 12.31459778 -6.26951599 12.14717102 C-9.07674291 7.93633065 -8.21489492 6.03162884 -7.26951599 1.14717102 C-4.70398677 -0.13559359 -2.8736409 0.01259472 0 0 Z " fill="#F8B72A" transform="translate(172.26951599121094,201.8528289794922)"/>
<path d="M0 0 C2.32592773 -0.3215332 2.32592773 -0.3215332 5.24609375 -0.23828125 C6.32745605 -0.21072754 7.40881836 -0.18317383 8.52294922 -0.15478516 C9.67037598 -0.10370605 10.81780273 -0.05262695 12 0 C13.12035645 0.04979004 14.24071289 0.09958008 15.39501953 0.15087891 C49.23030176 1.92614262 82.01913128 6.39109233 110 27 C110.81339844 27.59039062 111.62679687 28.18078125 112.46484375 28.7890625 C123.34823225 37.0794881 133.98724166 47.18445928 141 59 C141.65355469 60.07121094 142.30710937 61.14242187 142.98046875 62.24609375 C159.12920855 89.84237772 160.49328969 123.85235494 152.9375 154.375 C149.10343474 168.76676461 142.60486685 182.56299092 133 194 C131.91912109 195.28777344 131.91912109 195.28777344 130.81640625 196.6015625 C110.56661715 219.83442278 83.48064266 230.42913942 53.18554688 232.859375 C33.2117446 234.14455263 12.45569654 232.70495993 -4 220 C-5.33984375 217.27734375 -5.33984375 217.27734375 -6 215 C-3.08181716 214.02727239 -1.46956492 213.92797272 1.54296875 214.04296875 C22.35206484 214.60869628 41.78692225 211.03344203 57.625 196.5 C70.45598637 184.09245085 78.22996437 168.05989212 83 151 C83.31839844 149.989375 83.63679688 148.97875 83.96484375 147.9375 C91.24139737 121.11149587 85.14604254 91.8823709 71.90478516 68.02685547 C61.06417577 49.31349925 46.14419982 35.90311071 25.0625 30.1875 C19.57689138 28.96350025 14.01921595 28.28489754 8.42993164 27.7331543 C4.91382725 27.36416687 1.97435246 26.99019172 -1 25 C-2.81948976 21.36102049 -2.18470453 17.06840712 -2.1875 13.0625 C-2.19974609 12.14275391 -2.21199219 11.22300781 -2.22460938 10.27539062 C-2.22654297 9.39173828 -2.22847656 8.50808594 -2.23046875 7.59765625 C-2.23457764 6.78820557 -2.23868652 5.97875488 -2.24291992 5.14477539 C-2 3 -2 3 0 0 Z " fill="#F29838" transform="translate(338,202)"/>
<path d="M0 0 C5.14013044 2.98793194 9.74965603 6.45197559 14.3125 10.25 C14.91707031 10.72050781 15.52164063 11.19101563 16.14453125 11.67578125 C27.56929572 20.83106655 36.04039692 34.97464832 39.3125 49.25 C39.6484375 52.93359375 39.6484375 52.93359375 39.6875 56.6875 C39.71585938 57.92371094 39.74421875 59.15992187 39.7734375 60.43359375 C38.83930684 68.167879 34.70888748 73.45050444 29.29394531 78.78613281 C28.70149017 79.38559723 28.10903503 79.98506165 27.49862671 80.60269165 C25.5558338 82.56295408 23.59893778 84.50837628 21.640625 86.453125 C20.27486721 87.82158085 18.90970337 89.19062972 17.54510498 90.5602417 C14.69016957 93.42105725 11.82816924 96.27455694 8.9609375 99.12304688 C5.29797808 102.76321834 1.6532722 106.42105519 -1.98630905 110.08458328 C-4.79987814 112.91265014 -7.6229592 115.73106706 -10.44895172 118.54671478 C-11.79620713 119.89131393 -13.14053096 121.23885745 -14.48177338 122.58945465 C-16.36208935 124.48000137 -18.25488299 126.35713588 -20.15136719 128.23144531 C-20.69606659 128.78424164 -21.24076599 129.33703796 -21.80197144 129.90658569 C-28.72241343 136.67888083 -37.32544019 140.2170147 -47 140.5 C-50.6875 140.25 -50.6875 140.25 -53.6875 138.25 C-53.19378906 137.57195312 -52.70007813 136.89390625 -52.19140625 136.1953125 C-47.9258006 129.99859766 -44.88198699 124.9260652 -45.6875 117.25 C-47.55892349 109.30786127 -51.48436117 100.38487439 -57.37109375 94.59375 C-58.6875 93.25 -58.6875 93.25 -58.6875 91.25 C-59.24953125 90.98058594 -59.8115625 90.71117187 -60.390625 90.43359375 C-62.8279611 89.17761953 -65.11349347 87.76685441 -67.4375 86.3125 C-75.62132506 81.43322238 -82.95102367 78.46640459 -92.6875 80.25 C-95.86909597 81.83882184 -98.63838639 83.62282136 -101.5078125 85.71875 C-103.6875 87.25 -103.6875 87.25 -105.6875 87.25 C-106.18852079 76.81206696 -106.49530745 67.95123472 -99.44534302 59.59118652 C-98.56506439 58.64521606 -97.68478577 57.69924561 -96.77783203 56.72460938 C-96.29441912 56.20444496 -95.8110062 55.68428055 -95.31294441 55.14835358 C-89.83054518 49.27922172 -84.20726581 43.54842328 -78.5546875 37.84375 C-78.00231541 37.28605423 -77.44994331 36.72835846 -76.88083267 36.15376282 C-73.96875129 33.21528955 -71.05323248 30.28027276 -68.13525391 27.34765625 C-65.7427834 24.94175961 -63.3578383 22.52875402 -60.97900391 20.109375 C-58.07268768 17.15358664 -55.1541409 14.21041028 -52.2265358 11.27571106 C-51.1243676 10.16687601 -50.02641998 9.05382742 -48.93304062 7.93632507 C-34.22890066 -7.0741933 -19.23143831 -10.01749015 0 0 Z " fill="#656565" transform="translate(735.6875,61.75)"/>
<path d="M0 0 C32.34 0 64.68 0 98 0 C98 10.23 98 20.46 98 31 C77.54 31 57.08 31 36 31 C36 40.9 36 50.8 36 61 C53.49 61 70.98 61 89 61 C89 71.23 89 81.46 89 92 C71.51 92 54.02 92 36 92 C36 103.22 36 114.44 36 126 C57.45 126 78.9 126 101 126 C101 136.23 101 146.46 101 157 C67.67 157 34.34 157 0 157 C0 105.19 0 53.38 0 0 Z " fill="#4C4C4C" transform="translate(950,320)"/>
<path d="M0 0 C32.34 0 64.68 0 98 0 C98 10.23 98 20.46 98 31 C77.54 31 57.08 31 36 31 C36 40.9 36 50.8 36 61 C53.49 61 70.98 61 89 61 C89 71.23 89 81.46 89 92 C71.51 92 54.02 92 36 92 C36 103.22 36 114.44 36 126 C57.45 126 78.9 126 101 126 C101 136.23 101 146.46 101 157 C67.67 157 34.34 157 0 157 C0 105.19 0 53.38 0 0 Z " fill="#4C4C4C" transform="translate(672,320)"/>
<path d="M0 0 C1.03296524 1.30796047 2.0434296 2.63517369 3 4 C0.93814296 6.54218884 -1.12460383 9.08365434 -3.1875 11.625 C-3.76564453 12.33785156 -4.34378906 13.05070312 -4.93945312 13.78515625 C-8.26488829 17.88088996 -11.61250976 21.95542596 -15 26 C-17.41376857 24.80209997 -19.81267637 23.58029868 -22.20703125 22.34375 C-23.40878116 21.72902392 -24.61060596 21.11444423 -25.8125 20.5 C-26.40353516 20.19191406 -26.99457031 19.88382812 -27.60351562 19.56640625 C-36.75449834 14.91607043 -46.45485893 13.33092334 -56.578125 15.5703125 C-60.06035088 16.79554012 -62.60977763 18.21025919 -65 21 C-66.20190901 24.60572704 -66.32670315 27.2102435 -66 31 C-63.22376064 35.28185532 -60.31627978 37.21459197 -55.76171875 39.41015625 C-55.15245041 39.70455093 -54.54318207 39.99894562 -53.91545105 40.30226135 C-46.03830864 44.03719891 -37.87885834 47.13528888 -29.73266602 50.22680664 C-15.4546058 55.66950842 -2.84420716 62.59775385 4.140625 76.8125 C8.65127607 88.29415726 8.98969636 102.76355737 4.3828125 114.296875 C-2.84462321 128.42508267 -13.92062819 137.0560521 -28.859375 141.93359375 C-49.84118668 147.99049795 -73.74838269 145.5122554 -92.9765625 134.91015625 C-98.97351298 131.36215965 -104.60874394 127.42103002 -110 123 C-108.63733356 118.96194134 -106.8590849 116.45631882 -103.9375 113.375 C-99.04340986 108.09955219 -94.50927247 102.60727499 -90 97 C-86.7913857 98.50775163 -83.94131691 100.33849118 -81 102.3125 C-68.30901495 110.47220716 -55.31050609 114.11139494 -40.3125 111.5390625 C-36.88948941 110.43695682 -34.94040914 108.93593983 -32.5 106.3125 C-30.54720052 102.00006782 -30.47654537 99.71109167 -31 95 C-33.09206099 90.28189042 -36.0484543 88.47957532 -40.5625 86.375 C-41.57981201 85.8812085 -41.57981201 85.8812085 -42.61767578 85.37744141 C-50.50249314 81.62514233 -58.59548782 78.31274485 -66.68579102 75.03271484 C-80.9916389 69.14686786 -94.69937764 61.52686144 -101 46.63671875 C-105.28380883 34.38255408 -105.03512007 22.58341017 -99.96875 10.55078125 C-92.9723198 -2.99298397 -81.25528489 -10.90673485 -67.046875 -15.65234375 C-44.2192124 -22.00882703 -17.42858064 -16.20746989 0 0 Z " fill="#4C4C4C" transform="translate(627,335)"/>
<path d="M0 0 C1.36360684 1.64199024 2.70455222 3.3037186 4 5 C3.63237549 5.41773682 3.26475098 5.83547363 2.88598633 6.26586914 C1.19148641 8.19517643 -0.49801702 10.12879833 -2.1875 12.0625 C-2.76564453 12.71927734 -3.34378906 13.37605469 -3.93945312 14.05273438 C-7.56537126 18.21127325 -10.86467237 22.45938427 -14 27 C-17.62154291 26.21128095 -19.72756934 24.88427075 -22.6875 22.625 C-31.06175212 16.67133462 -38.72863701 14.86751639 -49 16 C-57.74420247 17.79184477 -64.31401592 22.16328105 -70 29 C-80.7322735 45.43318732 -81.71963685 64.17065189 -78 83 C-74.76841621 94.67539949 -69.35950809 103.99315682 -58.7890625 110.32421875 C-50.82157823 114.09620051 -41.64342958 114.36857012 -33.1328125 112.3046875 C-26.04806232 109.67825363 -19.20853948 105.50243826 -14 100 C-10.11152009 101.52730362 -8.23634816 103.87442633 -5.6875 107.125 C-1.91282636 111.86833989 1.96754078 116.47482872 6 121 C3.54909553 128.96189777 -4.54384454 134.15117169 -11.56640625 138.09765625 C-30.20926648 147.77050927 -51.52814616 148.21672401 -71.3671875 141.93359375 C-90.59448774 134.36752625 -102.5487051 121.54257832 -111.2734375 103.34375 C-121.58600895 79.4620056 -120.17052671 50.92391621 -110.84863281 27.03320312 C-106.92424229 17.63092342 -101.13925526 10.17574209 -94 3 C-93.33613281 2.30132812 -92.67226562 1.60265625 -91.98828125 0.8828125 C-67.66315637 -22.9326431 -24.7833925 -22.75829039 0 0 Z " fill="#4C4C4C" transform="translate(1203,334)"/>
<path d="M0 0 C40.26 0 80.52 0 122 0 C122 10.23 122 20.46 122 31 C107.81 31 93.62 31 79 31 C79 72.58 79 114.16 79 157 C67.12 157 55.24 157 43 157 C43 115.42 43 73.84 43 31 C28.81 31 14.62 31 0 31 C0 20.77 0 10.54 0 0 Z " fill="#4C4C4C" transform="translate(1231,320)"/>
<path d="M0 0 C12.21 0 24.42 0 37 0 C37 41.58 37 83.16 37 126 C57.13 126 77.26 126 98 126 C98 136.23 98 146.46 98 157 C65.66 157 33.32 157 0 157 C0 105.19 0 53.38 0 0 Z " fill="#4C4C4C" transform="translate(814,320)"/>
<path d="M0 0 C1.13312592 0.95333051 2.2637536 1.90963097 3.39331055 2.8671875 C4.02319382 3.39940918 4.65307709 3.93163086 5.30204773 4.47998047 C10.3350507 8.98556225 13.52278297 15.65365408 14.25390625 22.3125 C14.73542717 32.50210395 9.54490529 39.0085234 3.375 46.6875 C2.11689373 48.27841357 0.85908285 49.86956076 -0.3984375 51.4609375 C-1.01299805 52.23405273 -1.62755859 53.00716797 -2.26074219 53.80371094 C-4.62067013 56.78376593 -6.9395187 59.79405094 -9.25 62.8125 C-10.04277344 63.84503906 -10.83554687 64.87757813 -11.65234375 65.94140625 C-12.42707031 66.95074219 -13.20179688 67.96007812 -14 69 C-15.60405092 71.08342246 -17.20822017 73.1667538 -18.8125 75.25 C-21.62990404 78.90868876 -24.43914229 82.57340628 -27.23828125 86.24609375 C-40.61458946 103.79367517 -40.61458946 103.79367517 -45 109 C-45.54599854 109.7259436 -45.54599854 109.7259436 -46.10302734 110.46655273 C-49.00501573 112.81242005 -52.39307116 113.48093204 -55.9375 114.41796875 C-57.56235796 114.86763254 -59.18710989 115.31767958 -60.81176758 115.76806641 C-61.65994049 115.99955383 -62.5081134 116.23104126 -63.38198853 116.46954346 C-77.67581286 120.38944404 -91.68056664 124.39173454 -105 131 C-105.74991211 131.36335449 -106.49982422 131.72670898 -107.27246094 132.10107422 C-115.02027557 135.88462801 -122.44513184 139.57926414 -128.65234375 145.6875 C-130.48310424 147.47050152 -131.60174964 147.98202841 -134.1640625 148.09765625 C-136.44270833 148.06510417 -138.72135417 148.03255208 -141 148 C-133.40896839 138.86415743 -124.93522069 130.53215593 -116.58940411 122.09277534 C-113.85764633 119.33037536 -111.13444941 116.56058179 -108.42993164 113.77148438 C-105.79529708 111.05473093 -103.1413796 108.3582844 -100.47281837 105.67486191 C-99.46563199 104.65547916 -98.46531946 103.62925376 -97.47238731 102.5959816 C-88.76136015 93.54868229 -88.76136015 93.54868229 -83.05786133 92.97607422 C-82.36630447 92.99499725 -81.67474762 93.01392029 -80.9622345 93.03341675 C-77.24087188 92.97004214 -74.97033179 91.13863889 -72 89 C-69.41017552 85.99246189 -68.81342341 83.68114698 -68.6875 79.8125 C-68.58769629 75.98098541 -68.58769629 75.98098541 -71 74 C-70.66272161 70.76969793 -69.48379289 69.1108924 -67.22227478 66.86151123 C-66.63190933 66.26702179 -66.04154388 65.67253235 -65.43328857 65.06002808 C-64.78233215 64.41985748 -64.13137573 63.77968689 -63.46069336 63.12011719 C-62.77779739 62.43678314 -62.09490143 61.7534491 -61.39131165 61.04940796 C-59.13119352 58.79138069 -56.86063299 56.54416637 -54.58984375 54.296875 C-53.02120313 52.73382925 -51.45322332 51.17012005 -49.88587952 49.60577393 C-45.75783775 45.4891894 -41.62086623 41.38169305 -37.48199463 37.27600098 C-33.26057948 33.08526751 -29.04763855 28.88603425 -24.83398438 24.6875 C-16.56427899 16.44997431 -8.28511859 8.22202122 0 0 Z " fill="#F29938" transform="translate(673,156)"/>
<path d="M0 0 C1.9765625 1.47265625 1.9765625 1.47265625 3.375 2.9375 C3.375 7.51606055 0.1570632 9.62278497 -2.90795898 12.70385742 C-3.91039894 13.72863945 -3.91039894 13.72863945 -4.93309021 14.77412415 C-7.15395596 17.03892057 -9.38645156 19.29176869 -11.62109375 21.54296875 C-13.16896116 23.1080877 -14.71681767 24.67321744 -16.2646637 26.23835754 C-19.51654031 29.52178457 -22.77537982 32.79813778 -26.0378418 36.07104492 C-30.21472008 40.26436481 -34.36306393 44.48475183 -38.50521755 48.71233654 C-41.69434845 51.95737738 -44.90346436 55.18208092 -48.11836433 58.40157509 C-49.65640914 59.94869728 -51.18695016 61.50331715 -52.70971489 63.06548119 C-54.84492669 65.2519382 -57.00683428 67.40813168 -59.17749023 69.55932617 C-59.79968445 70.20916473 -60.42187866 70.8590033 -61.06292725 71.52853394 C-64.45455837 74.82593652 -66.55806436 76.30775255 -71.38343811 76.26191711 C-72.47795839 76.15492225 -72.47795839 76.15492225 -73.59459019 76.04576588 C-77.91391581 75.81545002 -80.7538979 78.1873843 -83.875 80.875 C-85.75209425 84.15991494 -85.78796693 85.66993783 -86.03149414 89.35839844 C-87.39004636 97.87812459 -92.93289339 102.56393411 -98.87109375 108.265625 C-100.00644978 109.38992206 -101.13980624 110.51624161 -102.27125549 111.64447021 C-104.6329211 113.9893873 -107.00978822 116.31717231 -109.40063477 118.63232422 C-112.46763608 121.60257955 -115.50525205 124.60082433 -118.53350735 127.61052322 C-121.42791695 130.4846933 -124.33650997 133.34433132 -127.24609375 136.203125 C-128.07663175 137.02292721 -128.07663175 137.02292721 -128.92394829 137.85929108 C-130.48640118 139.39649105 -132.05858871 140.92292695 -133.63452148 142.44628906 C-134.52783676 143.31610413 -135.42115204 144.18591919 -136.34153748 145.08209229 C-138.625 146.9375 -138.625 146.9375 -141.625 146.9375 C-142.46763323 140.19643417 -142.46763323 140.19643417 -140.3125 136.9765625 C-139.09600794 135.64602431 -137.86288785 134.33057644 -136.6171875 133.02734375 C-119.69333854 115.27389435 -112.51016755 85.01209828 -107.29614258 61.75976562 C-105.39000297 53.70237199 -100.89711934 50.1168884 -94.5 45.5 C-93.05748322 44.43900822 -91.61612014 43.37644648 -90.17578125 42.3125 C-89.05357178 41.48492187 -89.05357178 41.48492187 -87.90869141 40.640625 C-84.12358349 37.81777778 -80.40631517 34.90930468 -76.6875 32 C-69.3594926 26.27728792 -61.99039816 20.61140843 -54.59765625 14.97265625 C-51.51471595 12.62053099 -48.44279373 10.25468175 -45.37597656 7.8815918 C-40.79836834 4.34391169 -36.20176023 0.83146337 -31.5625 -2.625 C-30.27666016 -3.58599609 -30.27666016 -3.58599609 -28.96484375 -4.56640625 C-19.44373492 -10.6541937 -8.33396914 -5.90445517 0 0 Z " fill="#F8B82A" transform="translate(668.625,151.0625)"/>
<path d="M0 0 C5.06365393 2.39372731 6.89106203 4.904902 9 10 C9.87147116 16.66675436 10.32325018 23.79169212 6.8125 29.75 C4.50253219 32.69344928 2.59996714 34.74783752 -1 36 C-10.55737705 36.72131148 -10.55737705 36.72131148 -14 35 C-14 39.29 -14 43.58 -14 48 C-17.96 48 -21.92 48 -26 48 C-26 32.49 -26 16.98 -26 1 C-22.7 1 -19.4 1 -16 1 C-16 1.66 -16 2.32 -16 3 C-15.21625 2.505 -14.4325 2.01 -13.625 1.5 C-8.93062203 -0.44250123 -5.01534008 -0.72579718 0 0 Z M-14 11 C-14.22137393 13.62697064 -14.28162025 16.00893964 -14.1875 18.625 C-14.17396484 19.33140625 -14.16042969 20.0378125 -14.14648438 20.765625 C-14.1111104 22.51074128 -14.05730221 24.25546608 -14 26 C-9.12279862 27.07946171 -9.12279862 27.07946171 -4.5625 25.6875 C-2.16829456 21.56946664 -2.2283391 17.64539862 -3 13 C-4.5451157 10.28351423 -4.5451157 10.28351423 -7 9 C-11.04622502 8.63019987 -11.04622502 8.63019987 -14 11 Z " fill="#4C4C4C" transform="translate(651,525)"/>
<path d="M0 0 C3.47316593 1.88129821 4.6405353 3.10961903 6.11279297 6.75634766 C7.02649264 10.0968578 7.22951326 12.8191611 7.1953125 16.2734375 C7.18886719 17.42714844 7.18242188 18.58085938 7.17578125 19.76953125 C7.15902344 20.95933594 7.14226562 22.14914062 7.125 23.375 C7.11597656 24.58800781 7.10695313 25.80101562 7.09765625 27.05078125 C7.07416682 30.03393929 7.03829821 33.01699532 7 36 C3.04 36 -0.92 36 -5 36 C-5.495 23.13 -5.495 23.13 -6 10 C-12.4 10.2 -12.4 10.2 -14 12 C-14.15764405 13.77869726 -14.25100677 15.56318476 -14.31640625 17.34765625 C-14.35830078 18.42724609 -14.40019531 19.50683594 -14.44335938 20.61914062 C-14.48267578 21.75544922 -14.52199219 22.89175781 -14.5625 24.0625 C-14.60568359 25.20267578 -14.64886719 26.34285156 -14.69335938 27.51757812 C-14.79982738 30.34489508 -14.90045262 33.17243092 -15 36 C-18.96 36 -22.92 36 -27 36 C-27 24.45 -27 12.9 -27 1 C-23.7 1 -20.4 1 -17 1 C-16.67 1.66 -16.34 2.32 -16 3 C-15.21625 2.505 -14.4325 2.01 -13.625 1.5 C-8.94608326 -0.43610348 -4.99984113 -0.74288124 0 0 Z " fill="#4C4C4C" transform="translate(1165,525)"/>
<path d="M0 0 C3.47316593 1.88129821 4.6405353 3.10961903 6.11279297 6.75634766 C7.02649264 10.0968578 7.22951326 12.8191611 7.1953125 16.2734375 C7.18886719 17.42714844 7.18242188 18.58085938 7.17578125 19.76953125 C7.15902344 20.95933594 7.14226563 22.14914062 7.125 23.375 C7.11597656 24.58800781 7.10695313 25.80101562 7.09765625 27.05078125 C7.07416682 30.03393929 7.03829821 33.01699532 7 36 C3.04 36 -0.92 36 -5 36 C-5.495 23.13 -5.495 23.13 -6 10 C-12.4 10.2 -12.4 10.2 -14 12 C-14.15764405 13.77869726 -14.25100677 15.56318476 -14.31640625 17.34765625 C-14.35830078 18.42724609 -14.40019531 19.50683594 -14.44335938 20.61914062 C-14.48267578 21.75544922 -14.52199219 22.89175781 -14.5625 24.0625 C-14.60568359 25.20267578 -14.64886719 26.34285156 -14.69335938 27.51757812 C-14.79982738 30.34489508 -14.90045262 33.17243092 -15 36 C-18.96 36 -22.92 36 -27 36 C-27 24.45 -27 12.9 -27 1 C-23.7 1 -20.4 1 -17 1 C-16.67 1.66 -16.34 2.32 -16 3 C-15.21625 2.505 -14.4325 2.01 -13.625 1.5 C-8.94608326 -0.43610348 -4.99984113 -0.74288124 0 0 Z " fill="#4C4C4C" transform="translate(745,525)"/>
<path d="M0 0 C4.31997925 3.21229226 5.60432829 6.64061838 6.4375 11.8125 C6.51540887 13.65098168 6.54543615 15.49192827 6.53515625 17.33203125 C6.53193359 18.35361328 6.52871094 19.37519531 6.52539062 20.42773438 C6.51282227 22.01038086 6.51282227 22.01038086 6.5 23.625 C6.49548828 24.69943359 6.49097656 25.77386719 6.48632812 26.88085938 C6.47457729 29.52479683 6.45814787 32.16861952 6.4375 34.8125 C4.81286158 34.86645478 3.18771459 34.90527195 1.5625 34.9375 C0.20511719 34.97230469 0.20511719 34.97230469 -1.1796875 35.0078125 C-3.5625 34.8125 -3.5625 34.8125 -5.5625 32.8125 C-6.11035156 33.13347656 -6.65820312 33.45445312 -7.22265625 33.78515625 C-11.49517335 35.66106943 -16.00059238 35.49509655 -20.5625 34.8125 C-23.45933868 32.6109026 -24.95547231 31.02655538 -26.5625 27.8125 C-26.91830114 24.04100793 -26.92520494 21.55518155 -25.25 18.125 C-20.05644792 13.6561296 -13.21021161 12.01898124 -6.5625 10.8125 C-6.5625 10.1525 -6.5625 9.4925 -6.5625 8.8125 C-12.08927733 8.61857799 -16.31864911 9.0645497 -21.5625 10.8125 C-22.8825 8.1725 -24.2025 5.5325 -25.5625 2.8125 C-17.17996726 -1.34167552 -9.0717149 -3.02390497 0 0 Z M-14.5625 21.8125 C-14.5625 23.1325 -14.5625 24.4525 -14.5625 25.8125 C-11.71288233 26.97345535 -10.72304927 26.87817925 -7.8125 25.6875 C-5.2724631 24.00869237 -5.2724631 24.00869237 -5.25 21.125 C-5.353125 20.361875 -5.45625 19.59875 -5.5625 18.8125 C-9.25668201 18.8125 -11.34086178 20.09429295 -14.5625 21.8125 Z " fill="#4C4C4C" transform="translate(1010.5625,526.1875)"/>
<path d="M0 0 C6.23722899 6.5655042 5.7611866 14.48194881 5.5625 23 C5.54219727 24.66289063 5.54219727 24.66289063 5.52148438 26.359375 C5.48638881 29.07343232 5.4372227 31.78645193 5.375 34.5 C3.75036158 34.55395478 2.12521459 34.59277195 0.5 34.625 C-0.85738281 34.65980469 -0.85738281 34.65980469 -2.2421875 34.6953125 C-4.625 34.5 -4.625 34.5 -6.625 32.5 C-7.17285156 32.82097656 -7.72070312 33.14195312 -8.28515625 33.47265625 C-12.55767335 35.34856943 -17.06309238 35.18259655 -21.625 34.5 C-24.52183868 32.2984026 -26.01797231 30.71405538 -27.625 27.5 C-27.74441368 23.08169369 -27.51886263 19.56146187 -24.625 16.125 C-19.29449877 13.23764516 -13.61118802 11.4655142 -7.625 10.5 C-7.625 9.84 -7.625 9.18 -7.625 8.5 C-13.15177733 8.30607799 -17.38114911 8.7520497 -22.625 10.5 C-25.68463728 6.09412232 -25.68463728 6.09412232 -25.41796875 3.4375 C-24.625 1.5 -24.625 1.5 -21.375 -0.25 C-14.4492053 -2.51275964 -6.7455654 -2.79126844 0 0 Z M-15.625 21.5 C-15.625 22.82 -15.625 24.14 -15.625 25.5 C-12.77538233 26.66095535 -11.78554927 26.56567925 -8.875 25.375 C-6.3349631 23.69619237 -6.3349631 23.69619237 -6.3125 20.8125 C-6.415625 20.049375 -6.51875 19.28625 -6.625 18.5 C-10.31918201 18.5 -12.40336178 19.78179295 -15.625 21.5 Z " fill="#4C4C4C" transform="translate(698.625,526.5)"/>
<path d="M0 0 C5.54672446 5.69269089 5.70535427 11.31543315 5.63867188 18.93945312 C5.61353516 20.07318359 5.58839844 21.20691406 5.5625 22.375 C5.54219727 24.11620117 5.54219727 24.11620117 5.52148438 25.89257812 C5.4863141 28.74137052 5.43709287 31.58918844 5.375 34.4375 C3.75036158 34.49145478 2.12521459 34.53027195 0.5 34.5625 C-0.85738281 34.59730469 -0.85738281 34.59730469 -2.2421875 34.6328125 C-4.625 34.4375 -4.625 34.4375 -6.625 32.4375 C-7.17285156 32.75847656 -7.72070312 33.07945312 -8.28515625 33.41015625 C-12.57477017 35.29357605 -17.04411392 35.0822173 -21.625 34.4375 C-24.77713716 32.42013222 -26.10394344 31.07322185 -27.2421875 27.5 C-27.83999506 24.27915926 -27.74194699 21.78054451 -26.6875 18.6875 C-21.66872703 13.21247494 -14.71369907 11.68458595 -7.625 10.4375 C-7.955 9.7775 -8.285 9.1175 -8.625 8.4375 C-13.81709404 8.22557779 -17.751739 8.8462311 -22.625 10.4375 C-25.68463728 6.03162232 -25.68463728 6.03162232 -25.41796875 3.375 C-24.625 1.4375 -24.625 1.4375 -21.375 -0.3125 C-14.44831206 -2.57555148 -6.71158591 -2.89292496 0 0 Z M-15.625 21.4375 C-15.35823796 23.42241642 -15.35823796 23.42241642 -14.625 25.4375 C-11.65050974 26.79456576 -11.65050974 26.79456576 -8.9375 25.3125 C-6.33204406 23.64636743 -6.33204406 23.64636743 -6.3125 20.75 C-6.415625 19.986875 -6.51875 19.22375 -6.625 18.4375 C-10.31918201 18.4375 -12.40336178 19.71929295 -15.625 21.4375 Z " fill="#4C4C4C" transform="translate(605.625,526.5625)"/>
<path d="M0 0 C4.73681906 2.8228645 7.78719066 5.70922824 9.5546875 11.01171875 C10.03223176 16.87533595 10.41684361 22.19161141 7.8671875 27.57421875 C0.97609218 34.83780571 0.97609218 34.83780571 -4.2734375 35.21484375 C-15.96100757 35.37494745 -15.96100757 35.37494745 -20.4453125 32.01171875 C-24.9745765 27.47004581 -26.60769326 23.71097374 -26.8203125 17.32421875 C-26.75464075 11.28971488 -25.6025453 7.42347601 -21.4453125 3.01171875 C-15.34988857 -1.96413752 -7.39940262 -2.99049339 0 0 Z M-12.1328125 9.38671875 C-15.01534378 12.955567 -14.90057086 16.60245723 -14.4453125 21.01171875 C-13.52510518 24.0499645 -13.52510518 24.0499645 -11.4453125 26.01171875 C-8.4453125 26.76171875 -8.4453125 26.76171875 -5.4453125 26.01171875 C-2.65751692 23.11897087 -2.01387097 20.98607195 -2.0078125 17.01171875 C-2.11416913 13.57791904 -2.25159523 12.30229465 -4.1953125 9.38671875 C-7.12445341 7.5966882 -9.33792241 7.1094009 -12.1328125 9.38671875 Z " fill="#4C4C4C" transform="translate(1115.4453125,525.98828125)"/>
<path d="M0 0 C3.96 0 7.92 0 12 0 C15.01574158 6.57000844 17.58472815 13.18548299 20 20 C21.98 13.4 23.96 6.8 26 0 C29.96 0 33.92 0 38 0 C35.79361084 7.7112932 33.21117246 15.24910756 30.40356445 22.76000977 C29.92508011 24.04798586 29.45309316 25.3383939 28.98754883 26.63110352 C23.1665231 42.78837754 23.1665231 42.78837754 15.6875 47.4375 C11.78434761 48.25443887 7.97154505 48.15574686 4 48 C3.25110053 45.41189154 2.98452608 44.0812381 3.5 41.375 C5 39 5 39 8.625 37.6875 C9.73875 37.460625 10.8525 37.23375 12 37 C13.54800052 32.28003331 12.18545056 29.09640689 10.25390625 24.765625 C9.96394272 24.08699402 9.67397919 23.40836304 9.37522888 22.70916748 C8.44995797 20.55055947 7.50684346 18.40032321 6.5625 16.25 C5.62574732 14.08383439 4.69264373 11.91613079 3.76048279 9.74798584 C3.17975485 8.40095835 2.59557766 7.05541187 2.00770569 5.71148682 C0 1.10606802 0 1.10606802 0 0 Z " fill="#4C4C4C" transform="translate(1261,526)"/>
<path d="M0 0 C4.004793 2.0023965 6.6587028 4.17998877 9 8 C10.5456757 12.63702711 10.05735628 17.12471651 10 22 C-0.395 22.495 -0.395 22.495 -11 23 C-7.40265593 26.59734407 -5.97075596 26.66861627 -1 27 C1.34260643 26.7397104 3.6817571 26.42579972 6 26 C9 30.75 9 30.75 9 33 C2.35454601 36.79740228 -4.48861533 36.92594258 -12 36 C-16.40512354 34.37811361 -19.12471418 32.15763609 -21.9375 28.4375 C-24.26565488 23.0964388 -25.1383527 17.53214582 -23.31640625 11.87890625 C-21.08049874 6.97104288 -18.39852939 4.08832915 -14 1 C-9.37164486 -0.54278505 -4.8335155 -0.50478774 0 0 Z M-10.9375 10.375 C-12.18241645 11.95540186 -12.18241645 11.95540186 -12 14 C-8.04 14 -4.08 14 0 14 C-0.66 12.35 -1.32 10.7 -2 9 C-6.74590563 8.56036392 -6.74590563 8.56036392 -10.9375 10.375 Z " fill="#4C4C4C" transform="translate(870,525)"/>
<path d="M0 0 C4.33345023 2.23154168 6.26082624 4.78865427 7.828125 9.31640625 C8.74073855 13.61398641 8.9110267 16.98479945 7.828125 21.31640625 C0.898125 21.31640625 -6.031875 21.31640625 -13.171875 21.31640625 C-10.64532475 25.56096301 -10.64532475 25.56096301 -6.921875 26.12890625 C-3.16826831 26.31658658 0.13899091 25.99400231 3.828125 25.31640625 C6.828125 28.67640625 6.828125 28.67640625 6.828125 31.44140625 C5.36320039 34.1881399 3.76681172 34.392819 0.828125 35.31640625 C-2.51171875 35.6171875 -2.51171875 35.6171875 -6.109375 35.62890625 C-7.29402344 35.64566406 -8.47867187 35.66242187 -9.69921875 35.6796875 C-14.19412165 35.20946706 -17.49255519 33.88403734 -20.81640625 30.78125 C-25.7779768 24.29304236 -25.86845063 19.42377259 -25.171875 11.31640625 C-23.61511841 6.39231747 -20.42760281 3.15355812 -16.171875 0.31640625 C-11.03906382 -1.39453081 -5.20173714 -1.63723741 0 0 Z M-11.171875 8.31640625 C-12.656875 10.79140625 -12.656875 10.79140625 -14.171875 13.31640625 C-10.211875 13.31640625 -6.251875 13.31640625 -2.171875 13.31640625 C-2.74312854 9.57365413 -2.74312854 9.57365413 -4.171875 8.31640625 C-7.58759353 7.81609419 -7.58759353 7.81609419 -11.171875 8.31640625 Z " fill="#4C4C4C" transform="translate(1209.171875,525.68359375)"/>
<path d="M0 0 C2.88846103 1.48743399 4.78717392 3.26356615 6.765625 5.81640625 C8.35536709 11.05320374 8.01017555 15.85488983 7.828125 21.31640625 C0.898125 21.31640625 -6.031875 21.31640625 -13.171875 21.31640625 C-10.64532475 25.56096301 -10.64532475 25.56096301 -6.921875 26.12890625 C-3.16826831 26.31658658 0.13899091 25.99400231 3.828125 25.31640625 C5.390625 27.62890625 5.390625 27.62890625 6.828125 30.31640625 C5.828125 33.31640625 5.828125 33.31640625 3.69921875 34.484375 C0.32611636 35.4618863 -2.5983645 35.61746973 -6.109375 35.62890625 C-7.29402344 35.64566406 -8.47867188 35.66242187 -9.69921875 35.6796875 C-14.19412165 35.20946706 -17.49255519 33.88403734 -20.81640625 30.78125 C-25.7779768 24.29304236 -25.86845063 19.42377259 -25.171875 11.31640625 C-23.61511841 6.39231747 -20.42760281 3.15355812 -16.171875 0.31640625 C-11.03906382 -1.39453081 -5.20173714 -1.63723741 0 0 Z M-11.171875 8.31640625 C-12.656875 10.79140625 -12.656875 10.79140625 -14.171875 13.31640625 C-10.211875 13.31640625 -6.251875 13.31640625 -2.171875 13.31640625 C-2.74312854 9.57365413 -2.74312854 9.57365413 -4.171875 8.31640625 C-7.58759353 7.81609419 -7.58759353 7.81609419 -11.171875 8.31640625 Z " fill="#4C4C4C" transform="translate(789.171875,525.68359375)"/>
<path d="M0 0 C1.62890625 0.828125 1.62890625 0.828125 3.87890625 2.328125 C3.87890625 6.59639373 3.50277112 7.26694932 0.87890625 10.328125 C0.38390625 10.18375 -0.11109375 10.039375 -0.62109375 9.890625 C-4.09862297 9.10818093 -7.58064498 8.74117736 -11.12109375 8.328125 C-11.12109375 9.318125 -11.12109375 10.308125 -11.12109375 11.328125 C-10.46882812 11.48667969 -9.8165625 11.64523437 -9.14453125 11.80859375 C-3.31471663 13.36493069 0.82831637 14.75822873 4.87890625 19.328125 C6.13347915 23.38703733 6.13493882 25.54496656 4.81640625 29.578125 C2.45051067 32.93617034 0.66492524 33.78517733 -3.12109375 35.328125 C-6.55859375 35.7265625 -6.55859375 35.7265625 -10.12109375 35.703125 C-11.29671875 35.71085938 -12.47234375 35.71859375 -13.68359375 35.7265625 C-17.47440346 35.28717319 -19.90636161 34.36603556 -23.12109375 32.328125 C-23.45109375 31.338125 -23.78109375 30.348125 -24.12109375 29.328125 C-22.18359375 26.140625 -22.18359375 26.140625 -20.12109375 23.328125 C-19.46109375 23.6375 -18.80109375 23.946875 -18.12109375 24.265625 C-14.4163336 25.57772755 -11.02845384 25.93076635 -7.12109375 26.328125 C-6.79109375 25.338125 -6.46109375 24.348125 -6.12109375 23.328125 C-6.70117188 23.15796875 -7.28125 22.9878125 -7.87890625 22.8125 C-19.35034952 19.25370242 -19.35034952 19.25370242 -22.55859375 13.953125 C-23.27389861 10.61503563 -23.14282394 8.59766162 -22.12109375 5.328125 C-16.50025259 -1.32813427 -8.33473325 -2.64009967 0 0 Z " fill="#4C4C4C" transform="translate(831.12109375,525.671875)"/>
<path d="M0 0 C2.1875 1.1015625 2.1875 1.1015625 5.4375 3.1015625 C1.8125 8.9765625 1.8125 8.9765625 -1.5625 10.1015625 C-3.23217972 9.4424784 -4.89857955 8.77505411 -6.5625 8.1015625 C-9.27136941 7.93357988 -9.27136941 7.93357988 -11.5625 8.1015625 C-8.72144518 12.36314473 -5.12105943 12.94212572 -0.41015625 14.625 C2.94399793 16.36419106 3.96327101 17.65484595 5.4375 21.1015625 C5.77777731 24.25444442 5.38174851 27.07657474 4.4375 30.1015625 C0.08890863 34.56165621 -3.100401 35.290235 -9.1875 35.4140625 C-15.50377194 35.39456783 -19.27691097 34.48433948 -24.5625 31.1015625 C-23.29308503 27.18753301 -22.05082306 25.31083377 -18.5625 23.1015625 C-17.675625 23.5965625 -16.78875 24.0915625 -15.875 24.6015625 C-12.68663762 26.04534924 -10.98062454 26.40316172 -7.5625 26.1015625 C-7.5625 25.1115625 -7.5625 24.1215625 -7.5625 23.1015625 C-8.22636719 22.87082031 -8.89023437 22.64007812 -9.57421875 22.40234375 C-19.36959534 18.78448933 -19.36959534 18.78448933 -22.5625 14.1015625 C-23.52954334 9.81520824 -23.09605628 6.97811925 -20.8125 3.2265625 C-15.15780834 -2.11397962 -7.23723359 -2.5374447 0 0 Z " fill="#4C4C4C" transform="translate(934.5625,525.8984375)"/>
<path d="M0 0 C3.96 0 7.92 0 12 0 C12.09951569 4.83799361 12.17177037 9.67538025 12.21972656 14.51416016 C12.23973571 16.1571695 12.26695213 17.80010859 12.30175781 19.44287109 C12.35075305 21.81625788 12.37307504 24.18869649 12.390625 26.5625 C12.41127014 27.28679199 12.43191528 28.01108398 12.45318604 28.75732422 C12.45555055 34.23669104 11.02913703 38.41669567 8 43 C3.28657457 47.00720512 -1.67827559 46.48815821 -7.6015625 46.3515625 C-12.23832724 45.87189718 -14.44030447 44.99338033 -18 42 C-19.4375 39.25 -19.4375 39.25 -20 37 C-18.87926138 36.16094435 -17.75325453 35.32892169 -16.625 34.5 C-15.99851562 34.0359375 -15.37203125 33.571875 -14.7265625 33.09375 C-13 32 -13 32 -11 32 C-10.401875 32.680625 -9.80375 33.36125 -9.1875 34.0625 C-7.15083434 36.3199336 -7.15083434 36.3199336 -4.3125 35.875 C-1.83572904 35.23669149 -1.83572904 35.23669149 -1 33 C-0.84373424 30.52167341 -0.74186802 28.06688669 -0.68359375 25.5859375 C-0.66281265 24.85629791 -0.64203156 24.12665833 -0.62062073 23.37490845 C-0.55518083 21.04170237 -0.49626632 18.70838279 -0.4375 16.375 C-0.39430947 14.79425905 -0.35069501 13.21352961 -0.30664062 11.6328125 C-0.19950519 7.75532496 -0.09822218 3.87772315 0 0 Z " fill="#4C4C4C" transform="translate(553,515)"/>
<path d="M0 0 C3.3 0 6.6 0 10 0 C10 2.97 10 5.94 10 9 C12.97 9 15.94 9 19 9 C19 11.97 19 14.94 19 18 C16.03 18 13.06 18 10 18 C10.495 26.415 10.495 26.415 11 35 C13.31 35 15.62 35 18 35 C18.36122881 36.31057393 18.71380311 37.62353624 19.0625 38.9375 C19.25972656 39.66839844 19.45695312 40.39929688 19.66015625 41.15234375 C19.77230469 41.76207031 19.88445312 42.37179687 20 43 C18.08016787 44.91983213 14.87081238 44.30549517 12.3125 44.375 C4.41512604 44.33478934 4.41512604 44.33478934 1.1875 41.6875 C-1.56352849 38.307665 -2.12761897 35.99427423 -2.09765625 31.76953125 C-2.09282227 30.56586914 -2.09282227 30.56586914 -2.08789062 29.33789062 C-2.07951172 28.50451172 -2.07113281 27.67113281 -2.0625 26.8125 C-2.05798828 25.96751953 -2.05347656 25.12253906 -2.04882812 24.25195312 C-2.03705403 22.16793845 -2.0191189 20.08396023 -2 18 C-3.65 18 -5.3 18 -7 18 C-7 15.03 -7 12.06 -7 9 C-5.02 9 -3.04 9 -1 9 C-1.020625 7.88625 -1.04125 6.7725 -1.0625 5.625 C-1 2 -1 2 0 0 Z " fill="#4C4C4C" transform="translate(1034,517)"/>
<path d="M0 0 C3.3 0 6.6 0 10 0 C10 2.97 10 5.94 10 9 C12.97 9 15.94 9 19 9 C19 11.97 19 14.94 19 18 C16.03 18 13.06 18 10 18 C10.33 22.95 10.66 27.9 11 33 C13.64 33.99 16.28 34.98 19 36 C19.38063221 38.3260857 19.71269945 40.66055264 20 43 C18.07815673 44.92184327 14.80710692 44.26210059 12.25 44.3125 C10.40148437 44.36857422 10.40148437 44.36857422 8.515625 44.42578125 C4.37073112 43.92378855 2.84904434 43.00789394 0 40 C-2.59044487 35.63347167 -2.23225484 31.108847 -2.125 26.1875 C-2.11597656 25.39923828 -2.10695313 24.61097656 -2.09765625 23.79882812 C-2.07422504 21.86575334 -2.03835838 19.9328362 -2 18 C-3.65 18 -5.3 18 -7 18 C-7 15.03 -7 12.06 -7 9 C-5.02 9 -3.04 9 -1 9 C-0.67 6.03 -0.34 3.06 0 0 Z " fill="#4C4C4C" transform="translate(955,517)"/>
<path d="M0 0 C-0.66 3.3 -1.32 6.6 -2 10 C-3.98567708 10.16276042 -5.97135417 10.32552083 -7.95703125 10.48828125 C-10.53867803 11.134927 -11.36021256 11.91320513 -13 14 C-13.50330762 16.41063442 -13.50330762 16.41063442 -13.51171875 19.10546875 C-13.54716797 20.08837891 -13.58261719 21.07128906 -13.61914062 22.08398438 C-13.65297852 23.62022461 -13.65297852 23.62022461 -13.6875 25.1875 C-13.72166016 26.22326172 -13.75582031 27.25902344 -13.79101562 28.32617188 C-13.87351759 30.88373264 -13.93843456 33.44184963 -14 36 C-17.96 36 -21.92 36 -26 36 C-26 24.45 -26 12.9 -26 1 C-22.7 1 -19.4 1 -16 1 C-15.67 1.99 -15.34 2.98 -15 4 C-14.195625 3.34 -13.39125 2.68 -12.5625 2 C-8.4761594 -0.78302333 -4.81196561 -0.29163428 0 0 Z " fill="#4C4C4C" transform="translate(1256,525)"/>
<path d="M0 0 C3.96 0 7.92 0 12 0 C12 11.55 12 23.1 12 35 C8.04 35 4.08 35 0 35 C0 23.45 0 11.9 0 0 Z " fill="#4C4C4C" transform="translate(1065,526)"/>
<path d="M0 0 C1.875 1.125 1.875 1.125 3 3 C3.4375 6 3.4375 6 3 9 C1.4375 10.9375 1.4375 10.9375 -1 12 C-7.32727273 11.67272727 -7.32727273 11.67272727 -10 9 C-10.375 6.0625 -10.375 6.0625 -10 3 C-7.09589708 -0.35088799 -4.27607914 -0.54588244 0 0 Z " fill="#4C4C4C" transform="translate(1074,510)"/>
</svg>
