<?xml version="1.0" encoding="UTF-8"?>
<svg version="1.1" xmlns="http://www.w3.org/2000/svg" width="1032" height="1224">
<path d="M0 0 C0.9782373 0.47953125 1.95647461 0.9590625 2.96435547 1.453125 C30.18921907 14.92732714 55.42247924 31.63065991 78 52 C78.59731934 52.53560547 79.19463867 53.07121094 79.81005859 53.62304688 C93.67639645 66.11550579 106.48130942 79.44135824 117.73681641 94.34277344 C118.97485861 95.9670159 120.23782168 97.56784215 121.51171875 99.1640625 C153.2059079 139.06905276 173.70451988 188.09093468 183 238 C183.16435547 238.87785156 183.32871094 239.75570313 183.49804688 240.66015625 C187.02187497 259.98827773 188.39342365 279.43529977 188.3125 299.0625 C188.30976578 300.45624344 188.30976578 300.45624344 188.30697632 301.87814331 C188.05685553 378.12424794 160.99580638 459.14221114 108.23046875 515.59375 C106.3964723 517.57228207 104.63579252 519.58298718 102.87890625 521.62890625 C98.38533106 526.77933164 93.57977152 531.6042438 88.75 536.4375 C87.87214844 537.32759766 86.99429688 538.21769531 86.08984375 539.13476562 C80.03147598 545.20643875 73.73637812 550.69473736 67 556 C70.43883801 559.45896709 73.94443451 562.7913063 77.5625 566.0625 C90.48334122 577.90021432 103.30405234 590.08707192 114 604 C114.8840118 605.06453988 115.77234427 606.12550083 116.6640625 607.18359375 C130.12900969 623.29997469 141.41377285 641.33481225 151 660 C151.47002441 660.91410645 151.94004883 661.82821289 152.42431641 662.77001953 C191.89139649 740.38219295 199.29888916 831.7345265 173.05859375 914.77734375 C157.97653037 960.958636 133.74873259 1002.16074132 101 1038 C99.77023437 1039.38638672 99.77023437 1039.38638672 98.515625 1040.80078125 C41.69780822 1104.25854999 -42.42671023 1140.06349328 -126.65332031 1144.84326172 C-213.99861442 1148.93398822 -299.0851255 1118.64716824 -364.125 1060.4375 C-364.91777344 1059.715625 -365.71054687 1058.99375 -366.52734375 1058.25 C-368.27998238 1056.65518191 -370.04423185 1055.0730813 -371.81640625 1053.5 C-376.56118045 1049.26520833 -381.05995892 1045.0333902 -385.1484375 1040.16015625 C-387.39026547 1037.54469029 -389.76005728 1035.06715835 -392.125 1032.5625 C-402.49272603 1021.3428523 -411.22056946 1008.89508318 -419.75 996.25 C-420.45406982 995.21391602 -421.15813965 994.17783203 -421.88354492 993.11035156 C-422.86158081 991.64033691 -422.86158081 991.64033691 -423.859375 990.140625 C-424.44170898 989.26954102 -425.02404297 988.39845703 -425.62402344 987.50097656 C-428.03702414 983.11510374 -428.03702414 983.11510374 -428 980 C-426.28398469 977.75596507 -424.69398044 976.01728184 -422.65625 974.10546875 C-422.0943396 973.55441971 -421.5324292 973.00337067 -420.95349121 972.43562317 C-419.14926128 970.67159774 -417.32574267 968.92922577 -415.5 967.1875 C-413.1304596 964.8944067 -410.76837175 962.59370005 -408.40625 960.29296875 C-407.83517517 959.7392157 -407.26410034 959.18546265 -406.67572021 958.6149292 C-402.5483274 954.59440813 -398.69828354 950.41991479 -395 946 C-393.95596764 944.80740131 -392.90908796 943.61728924 -391.859375 942.4296875 C-385.16055336 934.78894385 -378.67597857 927.03186341 -372.50146484 918.9609375 C-371.45628058 917.59590985 -370.40679691 916.23416795 -369.35400391 914.875 C-348.67461092 888.14550691 -330.43788064 859.52777629 -314.67822266 829.63745117 C-314.22108887 828.77740479 -313.76395508 827.9173584 -313.29296875 827.03125 C-312.8961792 826.27392578 -312.49938965 825.51660156 -312.09057617 824.73632812 C-311 823 -311 823 -309 822 C-308.91024902 822.70793701 -308.82049805 823.41587402 -308.72802734 824.14526367 C-303.49260702 864.50624684 -289.96604749 900.06946276 -261.33837891 929.61474609 C-260.18428424 930.80926144 -259.04923142 932.02212082 -257.91796875 933.23828125 C-232.43450703 960.00932841 -191.68943499 977.65548672 -154.88623047 979.12426758 C-125.21830504 979.7876166 -97.90088625 976.18330423 -71 963 C-69.97229492 962.50741699 -69.97229492 962.50741699 -68.92382812 962.00488281 C-53.59573251 954.59419196 -40.27893335 944.7830152 -28 933 C-27.04738281 932.11054687 -26.09476563 931.22109375 -25.11328125 930.3046875 C4.93372748 901.7440519 21.38057951 860.04218806 23 819 C23.04125 818.15050781 23.0825 817.30101562 23.125 816.42578125 C24.2053791 773.41318835 6.7683077 730.35050966 -22.578125 699.13671875 C-52.24434525 668.38388022 -93.52700972 649.00832341 -136.48828125 647.796875 C-183.27836062 647.16906178 -223.10157613 663.22152895 -258 694 C-259.34766307 695.31884791 -260.68733482 696.64631404 -262 698 C-262.66 697.67 -263.32 697.34 -264 697 C-263.78384033 696.02691895 -263.56768066 695.05383789 -263.3449707 694.05126953 C-254.13997174 652.40699021 -247.8945615 610.7153115 -247 568 C-246.96712891 566.6382666 -246.96712891 566.6382666 -246.93359375 565.24902344 C-244.98922859 473.7666427 -266.44011785 382.26874183 -306 300 C-306.42635742 299.10877441 -306.85271484 298.21754883 -307.29199219 297.29931641 C-317.16863826 276.75886889 -328.5675792 257.09180878 -341 238 C-341.69480469 236.92878906 -342.38960938 235.85757812 -343.10546875 234.75390625 C-363.87740216 203.18913321 -387.65641435 172.48127974 -414.92578125 146.2265625 C-415.75706543 145.41993164 -416.58834961 144.61330078 -417.44482422 143.78222656 C-419.083057 142.20015259 -420.7341619 140.63128032 -422.39892578 139.07714844 C-423.14255371 138.35817383 -423.88618164 137.63919922 -424.65234375 136.8984375 C-425.32257568 136.26599121 -425.99280762 135.63354492 -426.68334961 134.98193359 C-428 133 -428 133 -427.83496094 130.47753906 C-427.07102204 128.21074026 -426.28391707 126.458649 -424.98828125 124.4609375 C-424.35720459 123.48133057 -424.35720459 123.48133057 -423.71337891 122.48193359 C-423.25108887 121.78664551 -422.78879883 121.09135742 -422.3125 120.375 C-421.58426025 119.26825928 -421.58426025 119.26825928 -420.84130859 118.13916016 C-408.85646017 100.12976163 -395.42246654 83.79849149 -380.6875 68 C-380.04184082 67.30567871 -379.39618164 66.61135742 -378.73095703 65.89599609 C-374.93149582 61.8688591 -370.9872511 58.13550544 -366.78393555 54.53222656 C-364.65503066 52.703705 -362.61341063 50.79021711 -360.5625 48.875 C-340.09010675 30.5086926 -316.45173925 15.44680507 -292 3 C-291.20319824 2.59201172 -290.40639648 2.18402344 -289.58544922 1.76367188 C-253.21284159 -16.66936743 -213.43778284 -26.91730254 -173 -31 C-172.29182129 -31.07202637 -171.58364258 -31.14405273 -170.85400391 -31.21826172 C-113.0371283 -36.73787734 -52.07802419 -25.58151142 0 0 Z M-205.57666016 248.30615234 C-220.30436864 265.8328833 -224.81270475 287.70209111 -223 310 C-220.06105624 331.34485127 -208.72833767 349.54532574 -192.3359375 363.28125 C-174.75152983 376.21961016 -153.53883005 382.09114148 -131.8125 379.3125 C-115.47532094 376.56077255 -101.44227114 369.94515234 -89 359 C-88.23816406 358.33355469 -87.47632813 357.66710937 -86.69140625 356.98046875 C-77.06471987 347.98777558 -70.19682794 336.44236047 -66 324 C-65.68160156 323.06671875 -65.36320313 322.1334375 -65.03515625 321.171875 C-59.10691286 300.30008721 -62.7722222 278.34940911 -72.9140625 259.57421875 C-75.50535691 255.00409591 -78.55983754 250.96217716 -82 247 C-82.763125 245.989375 -83.52625 244.97875 -84.3125 243.9375 C-97.99241624 228.98503341 -117.98956173 219.68171109 -138.19140625 218.78125 C-165.10580953 218.01720963 -187.68794638 228.36810752 -205.57666016 248.30615234 Z " fill="#F5CC33" transform="translate(828,54)"/>
<path d="M0 0 C2.17815018 1.36430331 4.03210935 2.69267982 6 4.3125 C6.56033936 4.75891846 7.12067871 5.20533691 7.69799805 5.6652832 C9.47904397 7.0942417 11.24183684 8.54300144 13 10 C13.57443848 10.4753418 14.14887695 10.95068359 14.74072266 11.44042969 C18.52753843 14.58838863 22.27134857 17.7834167 26 21 C26.73992187 21.63808594 27.47984375 22.27617187 28.2421875 22.93359375 C30.17166315 24.61123021 32.08660644 26.30404779 34 28 C34.71639648 28.63228516 35.43279297 29.26457031 36.17089844 29.91601562 C42.67275897 35.70435509 48.90565572 41.7224462 55.0625 47.875 C55.99126953 48.79152344 56.92003906 49.70804687 57.87695312 50.65234375 C63.26922653 56.033265 68.27407923 61.56623198 73.01904297 67.52709961 C75.89718421 71.11998754 78.93790524 74.56375861 82 78 C79.36564162 80.63435838 76.9894687 81.10438207 73.4296875 82.21484375 C72.05604165 82.65140288 70.68268086 83.08885972 69.30957031 83.52709961 C68.5862854 83.75638153 67.86300049 83.98566345 67.11779785 84.22189331 C28.31583202 96.60238774 -6.42281605 116.25430442 -36.54296875 143.765625 C-38.15464463 145.23125076 -39.78192582 146.67993549 -41.42578125 148.109375 C-52.99509861 158.22099527 -62.77911084 169.75311824 -72 182 C-72.76763672 183.00691895 -72.76763672 183.00691895 -73.55078125 184.03417969 C-118.28903374 242.95043068 -136.86318387 318.64825798 -127.4230957 391.70092773 C-123.2065836 421.57485625 -114.48046526 450.97644908 -101 478 C-100.5978125 478.81001465 -100.195625 479.6200293 -99.78125 480.45458984 C-94.47185044 491.05057515 -88.7129819 501.23102381 -82 511 C-81.39671875 511.87930176 -81.39671875 511.87930176 -80.78125 512.77636719 C-73.30971121 523.59258701 -65.18584225 533.74201694 -56.3203125 543.45703125 C-54.69832348 545.23466568 -53.08999545 547.02481821 -51.4921875 548.82421875 C-46.59964638 554.3077549 -41.62552818 559.28646018 -36 564 C-34.52660156 565.30517578 -34.52660156 565.30517578 -33.0234375 566.63671875 C-17.9103518 579.9915879 -1.4986626 591.01721733 16 601 C17.00691895 601.57790283 17.00691895 601.57790283 18.03417969 602.16748047 C38.17717156 613.62957966 60.11917678 620.67194065 82 628 C78.55344597 632.71065991 75.04115722 637.2182684 71.0625 641.5 C68.27578456 644.50874642 65.53506226 647.53856695 62.8671875 650.65234375 C58.62655223 655.51469393 54.0818556 660.06861653 49.51196289 664.6184082 C48.06475615 666.06025221 46.62297974 667.50737116 45.18164062 668.95507812 C39.95822839 674.18257491 34.6358361 679.21933161 29 684 C27.97858811 684.88865837 26.95771868 685.77794078 25.9375 686.66796875 C22.65500903 689.48340316 19.34459972 692.25876712 16 695 C15.32211426 695.55574707 14.64422852 696.11149414 13.94580078 696.68408203 C11.83485416 698.39520249 9.70300539 700.07605944 7.5625 701.75 C6.56959961 702.55667114 6.56959961 702.55667114 5.55664062 703.37963867 C4.92048828 703.86795166 4.28433594 704.35626465 3.62890625 704.859375 C2.7946814 705.51631348 2.7946814 705.51631348 1.94360352 706.18652344 C-1.75541894 707.73471372 -5.13173386 706.34401668 -8.70629883 704.92773438 C-10.06791138 704.26741211 -10.06791138 704.26741211 -11.45703125 703.59375 C-12.47821045 703.10213379 -13.49938965 702.61051758 -14.55151367 702.10400391 C-16.1657019 701.31002197 -16.1657019 701.31002197 -17.8125 700.5 C-18.93180908 699.9539209 -20.05111816 699.4078418 -21.2043457 698.84521484 C-24.47535904 697.2415603 -27.73893781 695.62377834 -31 694 C-31.8156543 693.5968457 -32.63130859 693.19369141 -33.47167969 692.77832031 C-51.87364915 683.62274197 -69.00913068 672.30045293 -85.08007812 659.51855469 C-86.94012559 658.04735743 -88.81733435 656.60205335 -90.703125 655.1640625 C-98.36365184 649.29551449 -105.49230686 643.01836736 -112.50683594 636.39599609 C-114.76177962 634.28779335 -117.06883888 632.23935634 -119.375 630.1875 C-125.35254628 624.8183308 -130.89261536 619.23480481 -136.1328125 613.14453125 C-138.13153645 610.84892571 -140.18945229 608.615204 -142.25 606.375 C-190.35824158 552.90333959 -221.14104525 483.46266751 -232.25 412.75 C-232.40106201 411.79496582 -232.55212402 410.83993164 -232.70776367 409.85595703 C-235.44806176 391.28127998 -236.37960875 372.75717163 -236.3125 354 C-236.31067719 352.93383453 -236.30885437 351.86766907 -236.30697632 350.76919556 C-236.25704132 333.34090578 -235.56964129 316.26297555 -233 299 C-232.74259033 297.25831543 -232.74259033 297.25831543 -232.47998047 295.48144531 C-222.40694727 229.71417046 -195.54605218 167.01984685 -154 115 C-152.89591797 113.60587891 -152.89591797 113.60587891 -151.76953125 112.18359375 C-146.96767459 106.20889422 -141.90813665 100.52731181 -136.6953125 94.9140625 C-134.222608 92.24067473 -131.79373619 89.53463167 -129.375 86.8125 C-123.40601603 80.17320232 -117.17627369 73.85324962 -110.38671875 68.05078125 C-108.51493741 66.4424585 -106.66970346 64.81458782 -104.83203125 63.16796875 C-84.62056481 45.17595328 -28.87297125 -4.26137226 0 0 Z " fill="#F5CC33" transform="translate(248,257)"/>
<path d="M0 0 C2.56488015 5.12976031 1.49365385 11.34214394 -0.08056641 16.62890625 C-1.53155779 20.63725946 -3.16567707 24.56899631 -4.8125 28.5 C-5.91128751 31.17349119 -6.99960683 33.85109484 -8.08203125 36.53125 C-8.34267365 37.17497559 -8.60331604 37.81870117 -8.87185669 38.48193359 C-17.15823663 59.26397605 -16.24021176 77.97333145 -8.0625 98.59375 C-7.79479797 99.2704776 -7.52709595 99.9472052 -7.25128174 100.6444397 C-5.88922899 104.06862761 -4.49881085 107.47761487 -3.06542969 110.87255859 C-0.05527549 118.1438948 2.63171422 125.04561607 1 133 C-0.9362564 136.03165029 -2.16630104 136.7147872 -5.5234375 137.86328125 C-23.89765583 140.75784989 -42.41885634 136.86275687 -57.72265625 126.08203125 C-60.22662269 124.12946616 -62.62662484 122.10874797 -65 120 C-65.63679688 119.44570313 -66.27359375 118.89140625 -66.9296875 118.3203125 C-78.98598945 107.12134758 -86.53351734 89.95145648 -87.3203125 73.65234375 C-87.92538936 52.53779227 -83.26951659 35.09894179 -69 19 C-68.48050781 18.38640625 -67.96101563 17.7728125 -67.42578125 17.140625 C-52.61688761 0.8769534 -20.35537252 -12.06355165 0 0 Z " fill="#F5CC33" transform="translate(444,543)"/>
</svg>
